<?xml version="1.0" encoding="UTF-8"?>
<svg id="Layer_1" data-name="Layer 1" xmlns="http://www.w3.org/2000/svg" viewBox="0 0 990.815072 404.270166">
  <defs>
    <style>
      .cls-1 {
        fill: #fff;
      }
    </style>
  </defs>
  <g>
    <path class="cls-1" d="M64.280738,278.787573l-.01938-27.896748c-.00467-6.722491-4.998825-11.663799-11.237319-10.277965-6.238494,1.385834-11.225712,8.527433-11.222674,15.231404l.043896,96.866475c.003037,6.702837,5.002002,11.03245,11.248726,9.739995,6.246724-1.292455,11.239522-7.704465,11.234853-14.425819l-.019614-28.233099,30.594139-6.483975.032735,32.0493c.027222,26.652051-17.760878,51.840185-45.568381,57.456064l-1.875031.378673c-30.932202,6.246929-47.492687-15.418085-47.492687-45.094877v-97.702079c0-26.34317,19.953211-52.551079,47.70114-58.85512l1.558943-.354176c33.982648-7.720505,45.858529,18.265774,45.885839,44.917698l.026621,25.978953-30.891805,6.705298Z"/>
    <path class="cls-1" d="M196.807044,369.619805l-29.030074,5.874948-.141211-78.963282-16.857298,3.575485.127011,78.802158-42.179801,8.536117-.213502-182.913416c-.008931-7.651063,5.284658-14.287142,12.746346-15.978906l28.705405-6.508282.127576,79.475969,16.85032-3.654657-.141898-79.638482,42.714018-9.684409.411909,185.000611c.017368,7.800462-5.473312,14.528894-13.118802,16.076147Z"/>
    <path class="cls-1" d="M275.879414,353.617571l-2.562721-21.555481-20.929233,4.291678-2.127963,22.448622-29.682513,6.006985,25.725905-204.607366,37.726043-8.553502,32.466933,193.74933-40.616452,8.219735ZM260.581601,261.376078l-6.073526,49.766134,14.67662-3.053845-6.016945-46.720875c-.19585-1.520749-2.4004-1.513431-2.586149.008585Z"/>
    <path class="cls-1" d="M323.623886,142.671272l52.068053-11.805219c27.747984-6.291209,43.437528,13.322462,43.556352,40.680188.127966,29.462531-5.767916,38.460609-17.914623,46.692466l.002913.699321c12.196362,3.336916,19.109318,12.385024,18.857974,26.48201-.760662,40.883207-.74392,44.740492-.396323,52.742991.364421,11.861845,4.801135,25.357411,4.801135,25.357411l-38.429875,7.777228c-3.770738-4.479379-5.385774-17.778036-5.423079-27.204475l.117923-48.945045c-.024891-6.284524-3.788309-10.025652-9.407-8.829193l-7.49194,1.595353.333049,87.809504-39.992168,8.093396-.68239-201.145936ZM367.267435,212.672903c8.734545-2.595278,13.698961-10.661885,13.658824-20.787849l-.024911-6.284756c-.049822-12.569512-4.440056-17.535635-13.796675-15.456346l-4.05457.901033.160964,42.508554,4.056368-.880635Z"/>
    <path class="cls-1" d="M531.140573,301.959214l-21.558377,4.362866-4.105556-7.680662c-4.033896,6.13774-15.560084,15.200508-27.745145,17.661349-14.998135,3.028956-44.10565-2.344549-44.368387-61.013123l-.352409-78.692331c-.198228-44.263917,28.403459-68.695687,49.292744-73.440637l2.181896-.495612c24.318131-5.523803,43.177896,18.644888,43.317897,44.575534l.138082,25.575169-29.018697,6.317011-.112373-21.949835c-.043493-8.495552-6.317184-14.190776-13.491031-12.59716-6.861711,1.524277-13.065882,9.969069-13.0247,18.438387l.495946,101.995744c.030889,6.352585,5.054276,10.613413,10.363416,9.515613,5.62169-1.162428,10.279919-7.438143,10.247684-13.806008l-.096707-19.103594-9.991078,2.102369-.173705-34.982511,47.439773-10.179614.560725,103.397045Z"/>
    <path class="cls-1" d="M586.967723,168.914549l30.658772-6.616058.236744,38.36628-30.354978,6.452076.245319,41.130917,40.911601-8.481818.269237,42.402283-65.545789,13.264798c-8.935181,1.808253-17.297689-4.992666-17.348434-14.108843l-.98646-177.214168c-.037809-6.792213,4.651567-12.697443,11.275759-14.199325l71.28155-16.161432.278363,43.839505-41.173266,9.123826.251582,42.201958Z"/>
    <path class="cls-1" d="M739.354908,192.762426c.65511,46.51657-25.438717,72.207658-50.121681,77.202861l-47.178294,9.547685-1.350981-208.732224,56.121047-12.724141c21.513015-4.877575,41.294528,9.592119,41.637943,56.170823l.891967,78.534996ZM681.1583,232.864496c8.743967-1.808772,18.398712-7.795887,18.327619-17.939397l-.718529-102.520245c-.093943-13.403837-7.590107-13.19009-18.506458-10.765565l.897367,131.225207Z"/>
  </g>
  <path class="cls-1" d="M823.429078,139.926092c.089664,11.02051,5.135083,15.865018,12.942432,14.249668,7.808405-1.615569,12.755624-8.54475,12.663172-19.596897l-1.312888-110.734591,30.555038-6.927644,1.427258,119.034376c.252248,29.205347-17.353555,56.461949-46.723407,62.393353l-1.875031.378673c-32.494552,6.562455-49.266764-17.517159-49.519258-50.058914l-1.104638-100.128509c-.060646-5.497144,3.724626-10.290695,9.086029-11.506269l32.588-7.38857,1.273294,110.285323Z"/>
  <path class="cls-1" d="M946.867685,1.110998l-52.06798,11.805217,1.086781,188.443799-106.99622,22.598493-31.602421,55.300281-473.413819,98.252469c-2.424121.834503-1.280872,4.470149,1.184585,3.767098l501.607274-79.311589,30.114993-51.732883,94.892453-17.621821c14.258257-2.647802,24.600491-15.087439,24.600491-29.589464v-77.604378l11.719537-2.49613c27.781126-5.916982,43.154457-33.569589,42.816248-68.754693-.370904-38.552266-16.194054-59.347666-43.941923-53.056398ZM938.915242,87.941038l-4.056264.880755-.414307-45.381852,4.054573-.901329c9.356577-2.079709,13.782054,3.285709,13.906628,16.703342l.062569,6.708957c.100336,10.809189-4.822873,19.347298-13.553199,21.990127Z"/>
</svg>