<?xml version="1.0" encoding="UTF-8"?>
<svg id="Layer_1" data-name="Layer 1" xmlns="http://www.w3.org/2000/svg" viewBox="0 0 911.942922 380.242831">
  <defs>
    <style>
      .cls-1 {
        fill: #fff;
      }
    </style>
  </defs>
  <path class="cls-1" d="M863.184357,371.857489c-8.942334,5.587327-19.046518,8.385342-30.308202,8.385342-11.266035,0-21.413735-2.798015-30.438747-8.385342-9.029364-5.587327-17.332027-15.173683-24.894935-28.763419-7.571611-13.585385-13.459192-33.232411-17.671444-58.945428-4.216604-25.708666-6.318379-57.052525-6.318379-94.027226s2.101775-68.31856,6.318379-94.031578c4.212253-25.704314,10.099833-45.355691,17.671444-58.945428,7.562908-13.581034,15.865571-23.171741,24.894935-28.759068,9.025012-5.589503,19.172712-8.385342,30.438747-8.385342,11.261684,0,21.365868,2.795839,30.308202,8.385342,8.942334,5.587327,17.197131,15.178034,24.768742,28.759068,7.562908,13.589737,13.450489,33.241114,17.667093,58.945428,4.212253,25.713017,6.32273,57.056877,6.32273,94.031578s-2.110478,68.31856-6.32273,94.027226c-4.216604,25.713017-10.104185,45.360043-17.667093,58.945428-7.571611,13.589737-15.826408,23.176093-24.768742,28.763419ZM825.134835,326.197193c1.975581,4.386313,4.556021,6.579469,7.74132,6.579469,3.180947,0,5.71352-2.193156,7.610775-6.579469,1.888551-4.386313,3.737939-17.671444,5.543812-39.855395,1.805873-22.18395,2.710985-54.258862,2.710985-96.220383s-.905112-74.036432-2.710985-96.220383c-1.805873-22.188302-3.655261-35.473433-5.543812-39.859746-1.897254-4.381961-4.429828-6.575118-7.610775-6.575118-3.185298,0-5.765738,2.193156-7.74132,6.575118-1.975581,4.386313-3.829321,17.671444-5.543812,39.859746-1.723194,22.18395-2.58044,54.258862-2.58044,96.220383s.857246,74.036432,2.58044,96.220383c1.714491,22.18395,3.568231,35.469082,5.543812,39.855395Z"/>
  <path class="cls-1" d="M72.2696,274.145231V97.238023h29.693825c12.874581,0,23.25482,4.227526,31.137286,12.679148,7.884181,8.454194,11.825414,19.950458,11.825414,34.488792,0,35.486163-30.268487,39.545289-33.522783,43.445217-1.099416,1.317533-.985784,3.211241.123817,4.520206,2.795135,3.297343,32.085793,4.576063,32.085793,31.377775v44.409591c0,3.241789.459439,5.845849,1.378317,7.817322.920593,1.96976,1.817185,3.217788,2.693205,3.744086l1.314887.656587v2.62806h-22.862239c-4.117809,0-7.159022-1.203456-9.130495-3.613797-1.971474-2.406912-2.955496-6.589866-2.955496-12.547145v-45.72105c0-8.935062-4.030378-13.402593-12.087706-13.402593v66.425009h-29.693825ZM101.963425,172.654612h1.313173c8.057328,0,12.087706-8.518481,12.087706-25.555444,0-17.035248-4.030378-25.554587-12.087706-25.554587h-1.313173v51.110031Z"/>
  <path class="cls-1" d="M237.966638,231.1155h37.035315l.313012,21.366833c0,22.581708,3.531296,33.817031,10.596154,33.699171,3.125582,0,5.412538-1.591123,6.860868-4.777902,1.446063-3.182246,2.171362-9.292884,2.171362-18.325114s-1.969638-17.978331-5.906648-26.838302c-3.93701-8.859972-8.685447-17.080774-14.243045-24.666941-5.559864-7.5839-11.117462-15.430721-16.677327-23.538195-5.557598-8.102942-10.308302-17.484221-14.243045-28.139306-3.939276-10.652818-5.906648-21.888142-5.906648-33.699171,0-20.61207,4.517248-36.448504,13.549478-47.509303,9.03223-11.057399,20.498742-16.588931,34.395004-16.588931,13.780667,0,25.244913,5.270878,34.395004,15.806969,9.145558,10.53949,13.721736,24.840332,13.721736,42.907059v28.487223h-37.290894l-.055166-21.366833c0-22.580575-3.592493-33.872562-10.770679-33.872562-3.127849,0-5.38534,1.623988-6.774739,4.864031-1.389399,3.243443-2.085233,9.44021-2.085233,18.588035,0,10.88514,2.980523,21.973138,8.946101,33.262858,5.963312,11.291987,12.506862,21.16511,19.630651,29.617101,7.121522,8.454258,13.635607,19.311066,19.542255,32.570425,5.904381,13.261625,8.857705,27.012827,8.857705,41.255872,0,20.614337-4.514982,36.423572-13.549478,47.423174-9.03223,11.004135-20.557673,16.502802-34.567262,16.502802-13.782934,0-25.217714-5.269745-34.308874-15.806969-9.09116-10.537224-13.635607-24.782535-13.635607-42.733667v-28.488356Z"/>
  <path class="cls-1" d="M625.848038,332.381038V47.861793h44.840249c10.317733,0,19.375303,2.25062,27.181891,6.746122,7.804292,4.498945,14.97965,11.972702,21.52837,22.420125,6.546424,10.450865,11.573306,25.133264,15.078352,44.047196,3.50275,18.916227,5.258716,41.932003,5.258716,69.045032,0,27.11762-1.755966,50.167827-5.258716,69.146029-3.505045,18.982793-8.531928,33.666339-15.078352,44.048343-6.548719,10.384299-13.724077,17.825922-21.52837,22.320276-7.806588,4.498945-16.864157,6.746122-27.181891,6.746122h-44.840249ZM670.688287,293.690111h1.983208c2.382604,0,4.331382-.525642,5.853219-1.586108,1.519542-1.05817,3.174511-3.537181,4.960316-7.441622,1.785806-3.899851,3.14008-9.45467,4.067413-16.664459.925038-7.209789,1.716944-17.392095,2.382604-30.556099.658774-13.159414.991604-28.933266.991604-47.321555,0-18.383699-.33283-34.157551-.991604-47.31926-.66566-13.161709-1.457566-23.313028-2.382604-30.455103-.927334-7.143223-2.281608-12.69919-4.067413-16.666755-1.785806-3.968712-3.440775-6.479858-4.960316-7.539176-1.521837-1.05817-3.470615-1.588403-5.853219-1.588403h-1.983208v207.138539Z"/>
  <path class="cls-1" d="M203.092251,107.853952h27.120387v-25.457027h-51.93116l-17.330665,17.330665v180.67804l17.440169,17.440277h51.821657v-23.674868h-27.120387c-6.488951,0-11.749246-5.260404-11.749246-11.749246v-58.477734h29.704365v-30.650548h-29.704365v-53.690312c0-6.488951,5.260296-11.749246,11.749246-11.749246Z"/>
  <path class="cls-1" d="M468.758906,113.048496h25.488423v-30.651572h-51.93116l-17.330665,17.330665v180.67804l17.440169,17.440277h51.821657v-30.289559h-25.488423c-6.488951,0-11.749246-5.260404-11.749246-11.749246v-51.863043h28.072401v-30.650548h-28.072401v-48.495768c0-6.488951,5.260296-11.749246,11.749246-11.749246Z"/>
  <polygon class="cls-1" points="566.234201 62.098339 575.088428 206.506474 569.981348 207.092472 546.35621 68.842314 520.536054 68.842314 504.839671 82.396925 504.839671 297.845907 518.210981 309.194711 546.35621 309.194711 538.51625 169.446966 541.094076 169.167501 566.224159 318.144492 607.576292 318.144492 607.576292 62.098339 566.234201 62.098339"/>
  <path class="cls-1" d="M386.871155,228.589465c0,9.106122-.294026,15.977966-.877447,20.613505-.585737,4.63742-1.253662,7.499398-2.00609,8.583763-.752429,1.086536-1.900172,1.629731-3.445544,1.629731-1.547109,0-2.800771-1.06541-3.760407-3.19594-.959636-2.130675-1.860235-8.583908-2.692537-19.359843-.555061-7.143586-.920857-16.446208-1.107228-27.812076-.094922-5.779375-.146434-12.056655-.146434-18.927197,0-7.083826.053828-13.548924.154537-19.472418.189265-11.121184.552746-20.235988,1.099125-27.26671.832302-10.778106,1.732901-17.231483,2.692537-19.361435.959636-2.130386,2.213298-3.19594,3.760407-3.19594,1.545373,0,2.693116.564466,3.445544,1.692241.752429,1.127919,1.420354,3.99091,2.00609,8.584197.583422,4.594879.877447,11.445596.877447,20.549693l.152801,21.548685h28.165139v-24.055574c0-16.956412-3.132997-29.759419-9.397833-38.405836-6.265415-8.646417-14.285146-12.96883-24.058615-12.96883-5.764761,0-10.924106,1.357844-15.475141,4.072086-4.555087,2.71511-8.708493,7.373511-12.468899,13.97202-3.758381,6.600101-6.662466,16.145526-8.708782,28.631789-1.46058,8.905716-2.388382,19.229036-2.806848,30.916567-.168139,4.703547-.262192,9.605474-.262192,14.759466,0,4.945192.085082,9.662196.240198,14.192684.407469,11.923823,1.344532,22.431633,2.828842,31.481178,2.046316,12.49017,4.950401,22.033858,8.708782,28.632947,3.760407,6.601259,7.894712,11.257923,12.405522,13.97202,4.510809,2.713952,9.689255,4.073099,15.538519,4.073099,9.773469,0,17.7932-4.301576,24.058615-12.906466,6.264836-8.605179,9.397833-21.384889,9.397833-38.345642v-27.567109h-28.365979l.04804,24.935346Z"/>
  <path class="cls-1" d="M37.614376,222.375977c0,7.635271-.246534,13.397152-.735719,17.283943-.491127,3.888369-1.051166,6.28807-1.68206,7.197285-.630894.911035-1.59325,1.366492-2.889008,1.366492-1.297215,0-2.348381-.893321-3.153013-2.679722-.804632-1.786521-1.559764-7.197407-2.257629-16.232777-.465406-5.98973-.772117-13.789762-.928385-23.319777-.07959-4.845871-.122782-10.109224-.122782-15.870013,0-5.939623.045133-11.360457.129576-16.327168.158694-9.324854.463464-16.967404.92159-22.862501.697866-9.03719,1.452997-14.448197,2.257629-16.234112.804632-1.786279,1.855798-2.679722,3.153013-2.679722,1.295759,0,2.258115.473292,2.889008,1.418904.630894.945734,1.190933,3.346285,1.68206,7.197649.489185,3.852699.735719,9.596866.735719,17.230439l.12812,15.334823h23.615812v-17.436791c0-14.217557-2.626945-24.952579-7.879864-32.202398-5.253404-7.249819-11.977762-10.874062-20.172588-10.874062-4.833617,0-9.159608,1.138521-12.975545,3.414349-3.819334,2.276556-7.301868,6.182517-10.454881,11.715213-3.151315,5.534031-5.586322,13.537647-7.302111,24.007088-1.224662,7.467235-2.002603,16.123099-2.353477,25.922821-.140981,3.943814-.219842,8.053966-.219842,12.375468,0,4.146428.07134,8.101526.201401,11.900235.341653,9.997847,1.127359,18.808401,2.371918,26.396234,1.715789,10.472716,4.150796,18.474877,7.302111,24.008058,3.153013,5.535001,6.619532,9.439506,10.401741,11.715213,3.782209,2.275586,8.124214,3.415198,13.028686,3.415198,8.194826,0,14.919183-3.606772,20.172588-10.82177,5.252919-7.215242,7.879864-17.930731,7.879864-32.151927v-20.92853h-23.784212l.04028,18.721858Z"/>
</svg>