<?xml version="1.0" encoding="UTF-8"?>
<svg id="Layer_1" data-name="Layer 1" xmlns="http://www.w3.org/2000/svg" viewBox="0 0 624.392344 176.541333">
  <defs>
    <style>
      .cls-1 {
        fill: #fff;
      }
    </style>
  </defs>
  <g>
    <g>
      <path class="cls-1" d="M319.088054,127.61515v-31.343639c0-6.253688-2.963255-9.244846-9.160128-9.244846h-30.918548v79.084231h12.662645v-28.927262h8.33878l6.333277,28.927262h12.937039l-6.644671-29.78369c4.310677-.883994,6.451607-3.478002,6.451607-8.712056ZM306.425408,124.602958c0,.951341-.277691,1.274397-1.211996,1.382989l-13.541389.020548v-28.647452h13.541389c.94261,0,1.211996.27186,1.211996,1.223689v26.020227Z"/>
      <path class="cls-1" d="M537.276071,127.61515v-31.343639c0-6.253688-2.963255-9.244846-9.160128-9.244846h-30.918548v79.084231h12.662645v-28.927262h8.33878l6.333277,28.927262h12.937039l-6.644671-29.78369c4.310677-.883994,6.451607-3.478002,6.451607-8.712056ZM524.613426,124.602958c0,.951341-.277691,1.274397-1.211996,1.382989l-13.541389.020548v-28.647452h13.541389c.94261,0,1.211996.27186,1.211996,1.223689v26.020227Z"/>
      <path class="cls-1" d="M365.640207,156.138881c0,6.253718,3.161662,10.156223,9.160128,10.156223h17.748784c8.244272,0,9.160128-6.97656,9.160128-13.230278v-8.654066h-12.662645l.155575,9.410528c0,.951341-.300132,1.223689-1.36806,1.223689h-7.65772c-1.203135,0-1.785377-.272348-1.785377-1.223689l-.088167-54.966666c0-.951341.269387-1.22372,1.212485-1.22372h8.637379c.943098,0,1.212485.272379,1.212485,1.22372v13.616215h12.662523v-16.199324c0-6.253688-2.828684-9.244846-9.025557-9.244846h-18.067383c-6.196385,0-9.294578,2.991158-9.294578,9.244846v59.86737Z"/>
      <polygon class="cls-1" points="421.666829 87.026665 409.004184 87.026665 409.004184 166.116574 421.666829 166.116574 421.666829 130.483138 433.671367 130.483138 433.671367 166.116574 445.573843 166.116574 445.573843 87.026665 433.671367 87.026665 433.671367 119.300838 421.666829 119.300807 421.666829 87.026665"/>
      <path class="cls-1" d="M575.573128,87.026665h-21.224408c-6.196874,0-9.160128,2.991158-9.160128,9.244846v60.763741c0,6.253688,1.995321,9.117846,9.287129,9.117846h21.097408c8.504353,0,9.160128-3.746261,9.160128-9.999948v-36.216976l-19.46509-.084158v10.701063h6.937382v23.275272c0,.951829-.196606,1.525406-1.212485,1.22372l-12.366226.067464c-.98535-.405485-.775723-.892878-.775723-1.844707v-54.555908c0-.951829.269387-1.223689,1.212607-1.223689h11.929342c.943098,0,1.212485.27186,1.212485,1.223689v13.751916h12.527708v-16.199324c0-6.253688-2.963255-9.244846-9.160128-9.244846Z"/>
      <polygon class="cls-1" points="624.392344 97.630901 624.392344 87.026665 593.98253 87.026665 593.98253 166.116574 624.285859 166.145866 624.392344 155.378217 606.645053 155.488922 606.645053 130.623021 620.14883 130.623021 620.14883 119.921958 606.645053 119.890991 606.645053 97.630901 624.392344 97.630901"/>
      <polygon class="cls-1" points="357.526902 97.630901 357.526902 87.026665 327.117087 87.026665 327.117087 166.116574 357.420417 166.145866 357.526902 155.378217 339.779611 155.488922 339.779611 130.623021 353.283388 130.623021 353.283388 119.921958 339.779611 119.890991 339.779611 97.630901 357.526902 97.630901"/>
      <path class="cls-1" d="M461.142227,87.026696h-.123947c-3.500807,0-6.338894,2.837995-6.338894,6.338833v72.640341h11.483132v-35.531024l11.803563.008293v35.522732h12.211429v-72.640341c0-3.500838-2.837964-6.338833-6.338772-6.338833h-22.69651ZM477.966081,119.300746l-11.803563-.008262v-21.436676c0-.371567.301137-.672765.672734-.672765h10.458094c.371475,0,.672734.301228.672734.672765v21.444939Z"/>
    </g>
    <g>
      <rect class="cls-1" x="279.009378" y="16.839098" width="12.046695" height="52.540747"/>
      <polygon class="cls-1" points="312.131744 38.646088 331.145861 69.379845 342.321994 69.379845 342.321994 16.839098 330.637738 16.839098 330.637738 45.903627 312.712403 16.839098 300.44761 16.839098 300.44761 69.379845 312.131744 69.379845 312.131744 38.646088"/>
      <polygon class="cls-1" points="365.014231 48.334794 383.375274 48.334794 383.375274 38.029405 365.014231 38.029405 365.014231 27.289529 387.947401 27.289529 387.947401 16.839098 352.967536 16.839098 352.967536 69.379845 365.014231 69.379845 365.014231 48.334794"/>
      <rect class="cls-1" x="397.284231" y="16.839098" width="12.046695" height="52.540747"/>
      <polygon class="cls-1" points="431.034393 38.646088 450.048388 69.379845 461.224521 69.379845 461.224521 16.839098 449.540387 16.839098 449.540387 45.903627 431.61493 16.839098 419.350259 16.839098 419.350259 69.379845 431.034393 69.379845 431.034393 38.646088"/>
      <rect class="cls-1" x="472.498591" y="16.839098" width="12.046695" height="52.540747"/>
      <polygon class="cls-1" points="531.501141 16.839098 492.965273 16.839098 492.965273 27.362066 506.173652 27.362066 506.173652 69.379845 518.220347 69.379845 518.220347 27.362066 531.501141 27.362066 531.501141 16.839098"/>
      <polygon class="cls-1" points="574.06499 58.929413 551.132308 58.929413 551.132308 47.681476 569.492863 47.681476 569.492863 37.376301 551.132308 37.376301 551.132308 27.289529 574.06499 27.289529 574.06499 16.839098 539.085125 16.839098 539.085125 69.379845 574.06499 69.379845 574.06499 58.929413"/>
    </g>
  </g>
  <g>
    <path class="cls-1" d="M.685825,52.799564c1.07126-.385385,2.170802-.704814,3.294181-.953438,1.675675-.37079,3.406296-.578002,5.175098-.618707v-8.702449l1.101966-.174284v8.873501c.606233.010757,1.206203.048432,1.802739.098227.149892.012525.299379.026211.448463.04116.593708.059492,1.184386.131105,1.766983.229231.437352.073633.87127.158073,1.301754.253321.182011.040301.361396.088278.541993.132216v-15.529082l7.708508-2.119542v-4.044649L0,37.234676v15.839369c.227262-.089794.450281-.189435.680774-.272411.001818-.000657.003434-.001414.00505-.002071Z"/>
    <path class="cls-1" d="M89.27943,41.135443c.498561,0,.984194.050099,1.461746.124388v-11.241112c0-.215444.174537-.390082.390082-.390082.215343,0,.390082.174638.390082.390082v11.395245c4.13919,1.008132,7.216007,4.729817,7.216007,9.179496v21.984874l2.687948,4.670577c.128681-.883492.259583-1.778599.259583-1.784053,0-.19701.228676-.374729.595526-.502551.004444-.048987.007676-.085198.007676-.092218,0-.001111.00101-.002172.00101-.003283-.002626-.012171-.010303-.023888-.010303-.036261,0-.002576-.017171-.01308-.045452-.028837-.47836-.139438-.790264-.347407-.82299-.581486-.021009-.033786-.03414-.066512-.03414-.097015,0-.284582.902582-.814152.902582-.888744,0-.06838.039392-.133529.110298-.192768-.079592-.484724-.30746-1.573811-.765215-2.285948-.124438-.193475-.265239-.359124-.424828-.475583-.348064-.300591-.392102-1.067523-.397758-1.319884-.063835-.068431-.11252-.139286-.135953-.213121.000202-.088228.008282-.175244.008282-.262108,0-.905814.39897-7.219997,2.460283-8.163284.003838-.122519.012929-.402657.014545-.425939.000202-.002475.000404-.004545.000404-.005202,0-.084844.164638-.153275.384223-.174739.019999-.546943.085854-2.312209.085854-2.314987,0-.009545.022019-.017322.048886-.017322.027069,0,.048886.007777.048886.017322,0,.002778.065855,1.768044.086056,2.314987.219585.021464.384223.089895.384223.174739,0,.000657,0,.002727.000202.005202.001818.023736.011111.313873.014747.432302,2.005962.964397,2.460081,7.252975,2.460081,8.15692,0,.086864.008282.17388.008484.262108-.023433.073784-.072118.144639-.135953.21307-.005656.25226-.049695,1.019344-.397758,1.319935-.161204.117216-.302005.27438-.425434.455129-.492501.721025-.700571,1.814506-.769861,2.302967.073532.06025.115348.126458.115348.196202,0,.074592.902582.604162.902582.888744,0,.030504-.012929.063128-.033938.097015-.032726.234079-.344629.442049-.82299.581486-.028281.015757-.045654.026261-.045654.028837,0,.012373-.007676.02409-.010101.036261,0,.001111.000808.002172.000808.003283,0,.00702.003232.04323.007676.092218.366851.127822.595728.30554.595728.502551,0,.010808.505228,3.453466.505228,3.499272,0,.117519-.071916.229433-.199788.331347.078582.084592.131509.173426.131509.267361,0,.004697.245644,2.949299.564215,6.767848l1.805567,3.13737c2.007578-.976366,4.261608-1.525278,6.644116-1.525278,1.732238,0,3.394984.293571,4.94622.826929l-.070502-.829757,1.098936-1.467049-1.192062.198677-.053331.073279v-7.811432l3.94526-7.204442v1.655524l.017373-.034392v-1.537702h4.960159v10.135661l4.74522-6.73992,2.926118-18.505601,2.302109,11.079402,1.728399-2.45498v-25.708377l4.680779-8.547406v-13.924514c0-.215393.174537-.390031.390082-.390031s.390082.174638.390082.390031v12.499888l1.560125-2.849051v-6.335243c0-.215494.174739-.390031.390082-.390031.215545,0,.390082.174537.390082.390031v4.910667l2.363722-4.316504v-.000657l.000404.000101.004646-.008535v.01l8.314337,2.608407v-7.368525L115.363192,3.587449l-38.555672,11.245303,12.342623,26.315721c.043634-.002525.084844-.01303.129287-.01303Z"/>
    <polygon class="cls-1" points="170.490369 121.728888 170.490369 32.832369 170.490369 27.28946 170.490369 19.6661 170.490369 17.942195 170.490369 16.218442 170.490369 1.165447 162.944479 14.017591 162.249766 15.200866 162.249766 15.538627 162.249766 17.262531 162.249766 25.88857 162.169164 25.88857 162.169164 30.22179 162.169164 118.701209 170.490369 121.765199 170.490369 121.728888"/>
    <path class="cls-1" d="M84.417044,52.883904l-.044644-.036766v-14.091577l-10.780276-22.985027-.71148-1.516541-.711076-1.516339-1.534874-3.272263v108.31046l13.78235-5.025307v-59.86664ZM73.430111,112.702616l-1.170043.313469v-1.99374l1.170043-.259381v1.939652ZM73.430111,108.860533l-1.170043.206303v-1.92541l1.170043-.154134v1.873241ZM73.430111,105.135364l-1.170043.102369v-1.889149l1.170043-.051058v1.837839ZM73.430111,101.466707h-1.170043v-1.881978l1.170043.05121v1.830768ZM73.430111,97.798049l-1.170043-.102369v-1.903643l1.170043.154083v1.851929ZM73.430111,94.072779l-1.170043-.206252v-1.955509l1.170043.259432v1.90233ZM73.430111,90.230847l-1.170043-.313621v-2.040808l1.170043.368871v1.985559ZM73.430111,86.204278l-1.170043-.425838v-2.16555l1.170043.484673v2.106714ZM73.430111,81.913127l-1.170043-.545731v-2.338723l1.170043.609212v2.275241ZM73.430111,77.256741l-1.170043-.675573v-2.574166l1.170043.745569v2.504169ZM73.430111,72.104975l-1.170043-.819353v-2.893089l1.170043.897986v2.814457ZM73.430111,66.280919l-1.170043-.981921v-3.328977l1.170043,1.072371v3.238527ZM73.430111,59.533929l-1.170043-1.170245v-3.935664l1.170043,1.277058v3.828851ZM73.430111,51.493114l-1.170043-1.394578v-4.804712l1.170043,1.524975v4.674315ZM73.430111,41.580421l-1.170043-1.671231v-6.100658l1.170043,1.836778v5.935111ZM73.430111,28.83696l-1.170043-2.026819v-8.143487l1.170043,2.247919v7.922387ZM76.550765,111.866446l-1.170245.31357v-1.849454l1.170245-.259381v1.795265ZM76.550765,108.310359l-1.170245.206353v-1.786174l1.170245-.154134v1.733955ZM76.550765,104.862297l-1.170245.102369v-1.752287l1.170245-.051109v1.701027ZM76.550765,101.466707h-1.170245v-1.745621l1.170245.051008v1.694613ZM76.550765,98.071167l-1.170245-.10252v-1.765822l1.170245.154134v1.714208ZM76.550765,94.623105l-1.170245-.206404v-1.8139l1.170245.259432v1.760873ZM76.550765,91.067018l-1.170245-.31357v-1.893139l1.170245.368972v1.837738ZM76.550765,87.340182l-1.170245-.425939v-2.00884l1.170245.484673v1.950106ZM76.550765,83.368156l-1.170245-.54563v-2.169388l1.170245.609162v2.105856ZM76.550765,79.058419l-1.170245-.675623v-2.387761l1.170245.745418v2.317966ZM76.550765,74.290069l-1.170245-.819454v-2.683605l1.170245.897986v2.605073ZM76.550765,68.899274l-1.170245-.981921v-3.087928l1.170245,1.072321v2.997529ZM76.550765,62.654381l-1.170245-1.170195v-3.650678l1.170245,1.276957v3.543916ZM76.550765,55.211971l-1.170245-1.394628v-4.4568l1.170245,1.524975v4.326453ZM76.550765,46.03702l-1.170245-1.671382v-5.658811l1.170245,1.836727v5.493466ZM76.550765,34.241794l-1.170245-2.026819v-7.55392l1.170245,2.247869v7.33287ZM79.671015,111.030224l-1.170043.313621v-1.705017l1.170043-.259533v1.650929ZM79.671015,107.760234l-1.170043.206151v-1.646686l1.170043-.154033v1.594568ZM79.671015,104.58933l-1.170043.102369v-1.615627l1.170043-.051058v1.564317ZM79.671015,101.466707h-1.170043v-1.609466l1.170043.051109v1.558357ZM79.671015,98.344033l-1.170043-.102369v-1.62795l1.170043.154083v1.576235ZM79.671015,95.17323l-1.170043-.206303v-1.672342l1.170043.259432v1.619213ZM79.671015,91.903088l-1.170043-.31357v-1.745419l1.170043.369022v1.689967ZM79.671015,88.475883l-1.170043-.425888v-1.85203l1.170043.484673v1.793245ZM79.671015,84.823286l-1.170043-.54568v-2.000053l1.170043.609111v1.936622ZM79.671015,80.860047l-1.170043-.675674v-2.201457l1.170043.745569v2.131561ZM79.671015,76.474961l-1.170043-.819353v-2.47412l1.170043.897935v2.395538ZM79.671015,71.51768l-1.170043-.981871v-2.84688l1.170043,1.07222v2.756531ZM79.671015,65.774883l-1.170043-1.170245v-3.365743l1.170043,1.277058v3.25893ZM79.671015,58.930827l-1.170043-1.394578v-4.10909l1.170043,1.525026v3.978642ZM79.671015,50.493466l-1.170043-1.67118v-5.217318l1.170043,1.836778v5.05172ZM79.671015,39.646679l-1.170043-2.02687v-6.964404l1.170043,2.247919v6.743354ZM82.791669,110.194154l-1.170245.31357v-1.560731l1.170245-.259381v1.506542ZM82.791669,107.209908l-1.170245.206353v-1.50735l1.170245-.154033v1.455029ZM82.791669,104.316263l-1.170245.10247v-1.478917l1.170245-.051058v1.427505ZM82.791669,101.466707h-1.170245v-1.47321l1.170245.05121v1.422ZM82.791669,98.6171l-1.170245-.102369v-1.490179l1.170245.154033v1.438515ZM82.791669,95.723556l-1.170245-.206404v-1.530833l1.170245.259533v1.477705ZM82.791669,92.739158l-1.170245-.313469v-1.597648l1.170245.368871v1.542247ZM82.791669,89.611635l-1.170245-.425838v-1.69532l1.170245.484774v1.636384ZM82.791669,86.278416l-1.170245-.54563v-1.830869l1.170245.609212v1.767286ZM82.791669,82.661625l-1.170245-.675623v-2.015052l1.170245.745468v1.945207ZM82.791669,78.660055l-1.170245-.819454v-2.264686l1.170245.897986v2.186155ZM82.791669,74.136087l-1.170245-.981871v-2.605881l1.170245,1.072169v2.515583ZM82.791669,68.895386l-1.170245-1.170245v-3.080858l1.170245,1.277058v2.974045ZM82.791669,62.649634l-1.170245-1.394578v-3.761178l1.170245,1.524975v3.63078ZM82.791669,54.950014l-1.170245-1.67113v-4.775774l1.170245,1.836778v4.610126ZM82.791669,45.051412l-1.170245-2.026718v-6.374887l1.170245,2.248071v6.153535Z"/>
    <path class="cls-1" d="M227.987328,36.435777l-4.130705,2.384832v-3.589621l-4.131917-1.205092v7.187524l-4.131513,2.385438v-10.778003l-13.698313-3.995358-.000202.000051-.459371.383718-6.370999,5.321707v96.282518l34.655662,12.373732,1.006415-.293521V37.234676l-2.739057-.7989ZM203.197845,116.954326l-1.762539-.310843-2.369378-.417656v-7.435996l2.369378.207262,1.762539.154184v7.803049ZM203.197845,101.466707h-4.131917v-7.323073l2.369378-.207262,1.762539-.154184v7.68452ZM203.197845,85.979088l-1.762539.310742-2.369378.417808v-7.669066l2.369378-.634868,1.762539-.4723v8.047683ZM203.197845,69.497427l-1.762539.641534-2.369378.862281v-8.56589l2.369378-1.104743,1.762539-.821879v8.988698ZM203.197845,45.790264v4.964957l-1.762539,1.017677-2.369378,1.367862v-10.283533l2.369378-1.658857,1.762539-1.234232v5.826126ZM211.461275,118.411476l-4.131715-.72855v-8.170203l4.131715.361497v8.537255ZM211.461275,101.466707h-4.131715v-8.046017l4.131715-.361497v8.407514ZM211.461275,84.521988l-4.131715.72855v-8.42615l4.131715-1.107168v8.804767ZM211.461275,66.489747l-4.131715,1.503865v-9.411606l4.131715-1.926673v9.834413ZM211.461275,45.984295l-4.131715,2.385438v-11.298634l4.131715-2.89314v11.806336ZM219.724705,119.868374l-4.131513-.728449v-8.904257l4.131513.361447v9.271259ZM219.724705,101.466707h-4.131513v-8.769062l4.131513-.361447v9.130509ZM219.724705,83.064939l-4.131513.728499v-9.183385l4.131513-1.107016v9.561902ZM219.724705,63.482118l-4.131513,1.503815v-10.257322l4.131513-1.926622v10.680129ZM227.988338,121.325524l-4.131715-.728449v-9.638413l4.131715.361447v10.005415ZM227.988338,101.466707h-4.131715v-9.492006l4.131715-.361447v9.853453ZM227.988338,81.607839l-4.131715.728449v-9.940418l4.131715-1.107016v10.318985ZM227.988338,60.474387l-4.131715,1.503916v-11.102937l4.131715-1.926673v11.525693Z"/>
    <path class="cls-1" d="M36.485067,135.087067c.028079-.144235.070502-.28236.123226-.414777l-.003838-.554771-.026463-3.923594-.353316-52.034956c-.216151-.074037-.447655-.146811-.689259-.218626.017373.005151.036968.01005.054139.015252-.017171-.005202-.036766-.010101-.054139-.015302-.057977-.017171-.119792-.034089-.180799-.051008-.019999-.005555-.039796-.011161-.059391-.016767-.001818-.000455-.003434-.000909-.00505-.001414-.142013-.040402-.288067-.0804-.43715-.120146-.027877-.007424-.053331-.01505-.081612-.022423-.000808-.000202-.001414-.000455-.002222-.000606l-.006666-.001667c-.098177-.025554-.201202-.050705-.302611-.075905-.001414-.000303-.002626-.000657-.00404-.00096-.172315-.042877-.347256-.08545-.529065-.127367-.000606-.000152-.001414-.000303-.002222-.000505-.08848-.020403-.179385-.040503-.270088-.060553-.027271-.00606-.053937-.012222-.08141-.018282-.034746-.007676-.071714-.01505-.106661-.022676-.089087-.019342-.179789-.038432-.270694-.057522-.061411-.012929-.1206-.02611-.183021-.038937-.127064-.026059-.254735-.051967-.385436-.077622-.198576-.038937-.40301-.077168-.610071-.115045-.129893-.023787-.258169-.047775-.391294-.071158-.00101-.000152-.002424-.000404-.003434-.000606-.228474-.040049-.464624-.079037-.702188-.117822-.004242-.000707-.008282-.001414-.012727-.002121-.024039-.003939-.048078-.007878-.071916-.011818-.090097-.014898-.178981-.029999-.2713-.044594-.001212-.000152-.002222-.000354-.003232-.000505s-.00202-.000354-.002828-.000455c-.171507-.027019-.351498-.052725-.527651-.078986-.182415-.027372-.360588-.055452-.548054-.082067-.002828-.000404-.005858-.000808-.008686-.001212-.012121-.001869-.024039-.003687-.036564-.005454-.013535-.001919-.027675-.003788-.041816-.005606l-.008484-.001212c-.369275-.051917-.74764-.102318-1.134085-.151306-.134943-.01712-.275138-.033231-.412101-.049998-.061411-.007525-.124842-.014646-.186455-.02212-.210697-.025504-.420989-.051109-.63714-.075653-.001414-.000202-.00303-.000354-.004646-.000505-.001414-.000152-.00303-.000354-.004646-.000556-.162618-.018433-.328671-.036059-.493915-.053987-.003636-.000404-.007272-.000758-.010909-.001162-.167668-.018181-.330893-.03717-.501187-.054795.168477.017474.330085.036261.495935.05424-.258371-.028029-.518358-.055654-.782992-.08237.094743.009545.193122.018383.287057.02813-.094541-.009797-.193324-.018686-.288673-.028332-.104237-.010505-.209889-.020656-.315136-.030908-.073936-.007222-.147467-.014595-.221807-.021767-.003636-.000354-.006868-.000657-.010505-.00101-.00202-.000202-.004242-.000404-.006464-.000606-.105045-.010101-.212515-.019595-.318368-.029493-.162012-.015151-.323014-.030554-.487249-.0452-.187061-.016767-.374729-.033281-.564821-.049392-.095955-.008131-.194738-.015656-.291501-.023585-.186051-.015201-.371497-.030605-.55977-.045351-.002828-.000202-.005656-.000404-.008484-.000657-.005454-.000455-.010909-.000909-.016565-.001313-.08545-.006666-.171305-.013181-.256553-.019848-.093935-.007373-.187465-.014848-.282814-.021918-.068683-.005101-.134741-.010757-.203626-.015757.068481.005.134337.010606.202414.015706-.320186-.023736-.645625-.046008-.972275-.067976-.131105-.008787-.257967-.018736-.390082-.027271-.029898-.001919-.060805-.003485-.090703-.005404-.516944-.033079-1.041363-.063936-1.573256-.092521-1.049443-.056411-2.125552-.104237-3.226709-.142266-2.082321-.071966-4.249487-.109944-6.475236-.109944-2.536238,0-4.994905.049897-7.339032.142771-.781578.030958-1.550226.066663-2.304735.106964v64.657565c2.14151.285238,4.437761.496693,6.860671.590021.916924.035352,1.848596.056108,2.79764.056108,2.241505,0,4.403015-.099591,6.460691-.274077,1.323369-.112217,2.602094-.256098,3.832538-.424373,9.196314-1.257463,15.620845-3.902232,16.533527-5.300294ZM9.628817,136.2159c-1.960307-.000859-3.843245-.085046-5.630833-.229635v-55.744116c1.750419-.057371,3.62568-.090299,5.630833-.090703v56.064454ZM19.779629,135.481593c-1.160953.169941-2.386953.315085-3.660627.432857-.645221.059694-1.298926.114489-1.970408.157568v-55.862241c.676532.017322,1.329025.039442,1.970408.063633,1.291047.048735,2.516845.109641,3.660627.18292v55.025263ZM29.930441,132.617845v.442604c-1.381952.50851-3.260243,1.067624-5.527606,1.572902-.034948.007777-.068077.015858-.103227.023585v-53.82315c2.334026.244634,4.215751.527297,5.630833.801829v50.98223Z"/>
    <polygon class="cls-1" points="47.059696 20.061333 48.222467 21.445961 48.222467 21.446012 49.38544 22.830691 54.25227 28.625708 62.842351 38.854142 62.842351 29.375065 56.766086 20.67807 55.765529 19.245969 54.765174 17.813918 42.319324 0 42.16317 9.657604 42.090649 14.144504 42.364979 14.471407 47.059696 20.061333"/>
    <polygon class="cls-1" points="42.364979 28.712471 42.364979 29.232597 42.364979 32.863226 42.364979 37.737682 42.364979 128.083827 54.25227 123.749394 62.842351 120.617226 62.842351 48.995661 54.917692 41.146049 54.25227 40.486991 42.364979 28.712471"/>
    <polygon class="cls-1" points="175.609914 29.433698 181.200951 22.789986 181.542146 22.384602 182.365742 21.405862 182.365742 21.405812 182.775419 20.918916 183.530533 20.021739 187.263076 15.586453 187.263076 7.525184 178.667743 18.603475 177.577292 20.009163 176.486638 21.414902 175.56123 22.607621 175.56123 34.423199 175.56123 35.408555 175.56931 34.425775 175.609914 29.433698"/>
    <polygon class="cls-1" points="181.542146 45.761074 187.263076 40.739402 187.263076 35.349568 181.542146 40.527241 177.251449 44.410433 175.56123 45.940257 175.56123 51.011016 177.251449 49.527403 181.542146 45.761074"/>
    <polygon class="cls-1" points="177.251449 39.357097 181.542146 35.048522 187.263076 29.303603 187.263076 24.55803 187.263076 22.834226 187.263076 22.737615 187.192776 22.813722 185.938697 24.171736 181.542146 28.932309 176.266851 34.644602 175.56123 35.408555 175.56123 45.940257 175.609914 41.00545 177.251449 39.357097"/>
    <path class="cls-1" d="M150.620643,40.32215l-4.964199,8.673511v63.625393l4.964199,1.82789,5.177522,1.906421,1.560327.574517V28.550004l-6.732799,11.763409-.00505.008737ZM148.533271,98.475087l-.861372.061462v-2.837486l.861372-.151962v2.927987ZM148.533271,94.411398l-.861372.181254v-1.853949l.861372-.230797v1.903492ZM148.533271,91.323672l-.861372.261654v-1.948894l.861372-.31352v2.00076ZM148.533271,88.067772l-.861372.346044v-2.083887l.861372-.401596v2.13944ZM148.533271,84.574308l-.861372.436797v-2.268726l.861372-.4974v2.329329ZM148.533271,80.75677l-.861372.535883v-2.166509l.861372-.63113v2.261757ZM151.184656,98.285753l-.564013.040301-1.047221.074744v-3.037173l1.047221-.184637.564013-.09949v3.206256ZM151.184656,93.852941l-.564013.118883-1.047221.220494v-1.963034l1.047221-.280643.564013-.151154v2.055454ZM151.184656,90.518712l-.564013.171204-1.047221.317914v-2.063383l1.047221-.381294.564013-.205394v2.160954ZM151.184656,87.002269l-.564013.226605-1.047221.420787v-2.206204l1.047221-.488461.564013-.262967v2.310239ZM151.184656,83.22988l-.564013.285945-1.047221.531085v-2.402407l1.047221-.604617.564013-.325539v2.515532ZM151.184656,79.106952l-.564013.350841-1.047221.651584v-2.376297l1.047221-.767336.564013-.413212v2.554419ZM154.107744,98.076773l-1.627394.116358v-3.342007l1.627394-.286956v3.512604ZM154.107744,93.237618l-1.627394.342609v-2.129895l1.627394-.43609v2.223375ZM154.107744,89.631129l-1.627394.494117v-2.23898l1.627394-.592294v2.337157ZM154.107744,85.827933l-1.627394.653857v-2.394124l1.627394-.758851v2.499119ZM154.107744,81.747529l-1.627394.825313v-2.60674l1.627394-.93955v2.720977ZM154.107744,77.288153l-1.627394,1.012627v-2.697493l1.627394-1.192214v2.87708ZM153.514035,46.779256l.593708-.838039v23.050629l-3.487101,2.926623-2.948743,2.474979v-19.369852l2.948743-4.161461.00505-.00702,2.886726-4.073637.001616-.002222Z"/>
    <polygon class="cls-1" points="187.263076 127.941005 187.263076 123.95802 187.263076 52.701286 187.263076 51.401048 181.542146 55.548772 177.251449 58.659427 175.56123 59.884922 175.56123 123.632329 177.251449 124.254672 187.263076 127.941005"/>
    <path class="cls-1" d="M205.364,138.163026h-36.251139l-14.819066-9.326307h25.759334l-3.476394-1.280947h-24.318193l-11.36853-7.154697h16.269298l-1.361145-.501541-2.115249-.779406h-14.828359l-8.878955-5.587906h8.542204l-3.476394-1.280947h-7.101265l-5.783351-3.639719,2.980459.002475-2.110401-.784153h.015353l-1.84799-.680875-5.948999-2.210345-10.043746,3.658658h.022221l2.943693.002475-5.802138,3.651486h-7.218229l-3.532351,1.280947h8.715327l-8.878955,5.587906h-15.24652l-3.532553,1.280947h16.743618l-11.368328,7.154697h-25.106235l-3.532553,1.280947h26.603333l-14.819066,9.326307h-23.418844c-.59896.465179-1.277109.890259-2.016264,1.280947h23.399653l-12.698161,7.991525-9.781537,6.155908,1.643353.479269,9.502359-5.98026,13.738716-8.646442h31.471577l-9.539731,15.396411h-42.533859l4.391904,1.280947h37.348257l-3.519624,5.680477-2.196861,3.545532,1.275695.372052,2.123532-3.427356,3.823448-6.170705h30.30618v20.171933l.850665.248069.430484-.125549v-20.294452h30.305574l5.745171,9.272219.266249.429726,1.275493-.372052-.262007-.42306-5.518717-8.906833h37.769044l4.391904-1.280947h-42.954647l-9.539529-15.396411h31.471173l22.273446,14.017591,1.100956.692946,1.643353-.479269-1.168629-.735519-21.444194-13.495748h37.692078l-3.476394-1.280947ZM149.853812,127.555772h-19.947702l-4.433114-7.154697h13.012287l11.36853,7.154697ZM115.793676,120.401075h8.173132l4.433114,7.154697h-12.606246v-7.154697ZM115.793676,119.120128v-5.587906h3.91718l3.462253,5.587906h-7.379434ZM115.793676,112.251275v-3.645073l.865412.000707,2.25807,3.644365h-3.123482ZM114.512527,108.605142v3.646133h-3.124088l2.259686-3.646891.864402.000758ZM114.512527,113.532222v5.587906h-7.38004l3.462253-5.587906h3.917786ZM114.512527,120.401075v7.154697h-12.606852l4.433114-7.154697h8.173738ZM114.512527,128.836719v9.326307h-19.179053l5.778503-9.326307h13.40055ZM115.793676,128.836719h13.399944l5.778503,9.326307h-19.178447v-9.326307ZM136.45003,119.120128h-11.770732l-3.462253-5.587906h6.35403l8.878955,5.587906ZM125.535619,112.251275h-5.112273l-2.257262-3.643103,1.582952.001364,5.786583,3.641739ZM110.568883,108.601809l1.57366.001313-2.260292,3.648153h-5.112273l5.798906-3.649466ZM102.734523,113.532222h6.35403l-3.462253,5.587906h-11.77053l8.878753-5.587906ZM91.820314,120.401075h13.012287l-4.433114,7.154697h-19.9475l11.368328-7.154697ZM63.597466,138.163026l14.819066-9.326307h21.189257l-5.778705,9.326307h-30.229618ZM85.000045,154.840384l9.539731-15.396411h19.972751v15.396411h-29.512482ZM145.305552,154.840384h-29.511876v-15.396411h19.972145l9.539731,15.396411ZM136.478311,138.163026l-5.778503-9.326307h21.189257l14.819066,9.326307h-30.22982Z"/>
    <path class="cls-1" d="M22.472628,54.402566c-.077168-.041008-.15474-.080501-.232312-.120802-.131913-.068633-.268472-.127519-.401192-.194283-.374123-.188122-.74764-.377254-1.130449-.547498-.034544-.015353-.069492-.029948-.104237-.044594-.023433-.009797-.046462-.019595-.069492-.029696-.259785-.113277-.526035-.212161-.78986-.316197-.203222-.080047-.403212-.166759-.607647-.243271,7.870318,3.947027,13.278536,12.077686,13.295505,21.477929,0,0,0,.000051.000202.000051.133125.025504.258371.051967.386244.078127.097167.019898.197162.039392.293521.059391.122418.025453.24524.050907.364022.076713.093733.020403.182415.041311.273926.061916.105651.023787.213525.04727.316146.071411.000202.000051.000404.000051.000606.000101.134539.031615.263623.063785.393112.095955,0,.000051.000202.000101.000404.000101.169285.042119.340387.084036.500581.127014.000606.000152.00101.000303.001616.000455.262815.070552.514116.142215.751478.21509.103833.031968.19696.064795.295743.097167.159992.05222.316146.104692.462603.158022.091309.03318.177365.066714.263219.100298h.000202c.146255.057169.283824.114944.414525.173274.046058.020555.091713.041109.136963.061714.019393.008787.039998.017474.058583.026362,0,.000051.000202.000101.000404.000152.181001.086864.34968.174537.495531.263623.000606.000303.001212.000606.001616.000909.001616.000909.003636.001768.00505.002677h.000404c-.000202-.000253-.000404-.000505-.000404-.000758,0-.000404-.000202-.000758-.000404-.001162-.120802-.670775-.263017-1.333267-.424221-1.98768-.004848-.020454-.009696-.041059-.014949-.061664-.160396-.647241-.340185-1.286048-.538155-1.915713-.00606-.019039-.012121-.037927-.018181-.056967-.127266-.401041-.272512-.792739-.416747-1.18484-.084642-.234382-.158578-.474371-.248271-.705975-.034746-.089339-.075148-.175294-.111712-.263472-.701177-1.762842-1.544368-3.44483-2.526946-5.020055-.003636-.005757-.007272-.011515-.010707-.017272-.010707-.017272-.021211-.034695-.031716-.051866-.329277-.524974-.67431-1.037424-1.032272-1.538611-.029493-.041463-.058987-.082673-.088884-.123883-.151104-.209232-.314126-.407404-.469876-.612293-.209485-.27534-.413717-.555629-.631484-.822838-.017373-.020959-.034746-.041766-.052119-.062573-.017171-.020807-.034342-.041614-.051715-.062522-.192718-.233625-.39796-.454574-.596738-.682037-.19898-.227464-.391496-.461492-.596738-.682037-.024241-.025958-.04929-.051008-.073532-.076915-.283218-.301753-.580981-.587446-.875512-.87632-.147063-.144235-.287259-.296602-.43715-.437504-.000202-.000253-.000404-.000354-.000606-.000606-.014545-.013636-.030302-.025857-.044846-.039493-.092117-.086309-.190496-.165042-.28342-.25019-.346044-.320641-.697137-.63512-1.059746-.935105-.016161-.013484-.032524-.027271-.048482-.041059-.012121-.010353-.024241-.020706-.036362-.030807-.451291-.370335-.914298-.724005-1.38579-1.065604-.055553-.039897-.110298-.08035-.165648-.120045-.006262-.004596-.012727-.009343-.018989-.013939-.458563-.326499-.926823-.637898-1.403163-.936166-.076764-.047977-.153528-.095702-.230696-.142872-.254129-.155548-.516338-.296349-.774911-.443867-.225443-.128731-.446645-.265138-.675926-.387405Z"/>
  </g>
</svg>