<?xml version="1.0" encoding="UTF-8"?>
<svg id="Layer_1" data-name="Layer 1" xmlns="http://www.w3.org/2000/svg" viewBox="0 0 1521.6422 186.519431">
  <defs>
    <style>
      .cls-1 {
        fill: #fff;
      }
    </style>
  </defs>
  <path class="cls-1" d="M633.493,28.400692h-29.924738c-1.926164,0-3.487654-1.56149-3.487654-3.487654s1.56149-3.487654,3.487654-3.487654h29.924738c1.926164,0,3.487654,1.56149,3.487654,3.487654s-1.56149,3.487654-3.487654,3.487654Z"/>
  <path class="cls-1" d="M826.643687,93.20488c0-24.895957-9.695086-48.301583-27.299051-65.905829C782.500651,10.455347,760.344106.858699,736.65426.060804c-.206706-.038196-.418888-.060804-.636687-.060804h-112.756681c-1.92621,0-3.487737,1.561527-3.487737,3.487597,0,1.92621,1.561527,3.487737,3.487737,3.487737h74.672565c-11.234144,4.62532-21.550751,11.474131-30.400479,20.323717-16.600768,16.601049-26.164276,38.362017-27.200753,61.666116h-25.025008c-1.92621,0-3.487597,1.561527-3.487597,3.487597,0,1.92621,1.561386,3.487737,3.487597,3.487737h24.973612c.611832,21.341237,8.369473,41.458109,22.116664,57.595474h-19.656698c-1.92621,0-3.487597,1.561527-3.487597,3.487597,0,1.92621,1.561386,3.487737,3.487597,3.487737h26.232523c8.595277,8.242108,18.499877,14.65195,29.237619,19.03279h-115.677241c-1.92607,0-3.487597,1.561386-3.487597,3.487597s1.561527,3.487737,3.487597,3.487737h153.251754c24.066466-.593015,46.613112-10.422207,63.659168-27.52022,17.472387-17.525467,27.129698-40.806115,27.19289-65.5528.00014-.020642-.002528-.041004-.002809-.061647.002949-.059961.008987-.119221.008987-.179884ZM819.517115,88.10071h-162.295689c.727963-1.168196,1.469969-2.322069,2.227001-3.460073h159.796966c.112621,1.148817.204599,2.301988.271722,3.460073ZM817.782445,75.153661h-151.435497c1.978449-2.496477,4.02051-4.901115,6.113826-7.209984h143.467358c.722487,2.369392,1.338391,4.775435,1.854313,7.209984ZM807.18246,48.456051c2.145835,3.521579,4.026407,7.183443,5.634836,10.960596h-131.946887c4.365955-4.063761,8.865735-7.726186,13.399218-10.960596h112.912833ZM746.73748,36.010459c.621943-1.162439,1.251749-2.320664,1.868074-3.486052.149553-.283097.340812-.424786.674321-.480815,2.174622-.365526,4.34447-.760121,6.516424-1.142639.039179-.007021.083693.014464.197578.036932-1.251187,1.268319-2.433566,2.532004-3.687421,3.72014-1.360578,1.289383-2.968586,2.090086-4.890864,2.12758-.068247.001264-.136493.012919-.204318.011234-.649747-.017132-.775427-.222995-.473794-.78638ZM727.321049,28.821118c.448939-.174267.897737-.308935,1.396948-.218642.544007.098438,1.053469.281412,1.555769.502441.562402.247429,1.130422.481658,1.69802.717432,1.102758.458347,2.252277.520275,3.42609.417062,2.076746-.182131,4.084543-.69047,6.077315-1.268038,1.181677-.342637,2.350575-.726419,3.502341-1.160473.102791-.038617.230016-.037634.320029-.230859-2.532987-1.409165-11.118013-6.202715-12.884139-7.196363-.236757-.133123-.557207-.261191-.500756-.576726.05631-.314833.363841-.42282.674181-.490224,2.089384-.453432,4.152369-.39965,6.211702.210357,2.230511.66084,4.396427,1.501144,6.592816,2.257614,2.045993.704793,4.11656,1.350046,6.267451,1.670637,1.715292.255574,3.440133.343901,5.176067.284782,3.04919-.103634,6.09866-.219906,9.15136-.155029,1.329544.028085,2.633531.225101,3.914489.570547.510445.137617.977358.377603,1.366617.7465.569002.539653.565773,1.257647-.029349,1.779326-.290539.254731-.62433.45245-.982975.61127-1.305251.577849-33.298852,5.413386-36.844724,6.017635-2.25972.384905-3.590809.464666-3.89174-.067685-.302335-.5353-1.856419-3.118419-2.179256-3.642205-.059821-.097034-.128208-.188731-.184097-.287871-.12568-.222574-.080323-.395999.165842-.491488ZM651.372021,66.628316c2.558404-2.594212,5.158374-4.990847,7.775335-7.211669h-5.084229c1.608007-3.777434,3.489422-7.438877,5.634696-10.960596h14.628218c23.970696-14.611367,45.449691-16.262906,45.449691-16.262906-23.484124,4.10322-50.020526,18.095453-70.003713,40.046135.470143-1.890964,1.003758-3.761987,1.600003-5.610964ZM647.623234,84.752696c2.227703-3.419912,4.534746-6.609807,6.89487-9.599035h-4.339274c2.141342-2.499847,4.366236-4.904907,6.664713-7.209984h3.824897c2.86116-3.103394,5.770908-5.94012,8.695119-8.52703h-3.165883c4.902098-4.063058,10.020872-7.725063,15.257603-10.960596h2.432162c22.137728-14.129849,41.503887-15.875754,41.503887-15.875754-22.705748,4.415385-52.550845,25.16782-71.686286,56.38487h-6.388638c.067966-1.41085.17174-2.814961.306829-4.212471ZM672.54208,154.25144c-15.446194-15.411087-24.334819-35.652656-25.248705-57.32642h32.040784c.004213.190557.011655.380131.01657.570547.008987.346429.018957.692436.030051,1.038162.012919.398948.027383.797193.04311,1.195298.013481.340812.027664.681342.043251,1.021311.018396.402037.038757.803091.060102,1.203864.017834.335335.035949.67067.055889,1.005163.024013.404003.050413.807163.077374,1.210043.022187.329718.044093.659576.068247.988452.02977.407373.062349.813623.095208,1.219872.026119.321854.051536.643989.079481.965282.036089.413411.075127.825699.114306,1.237847.02963.312305.058417.625032.089872.936495.042408.420433.088327.83904.134106,1.257928.032859.301212.064455.603126.099.903495.049851.433352.103634.864878.156995,1.296544.034966.283378.068387.567598.104898.850274.059821.462841.123855.923295.187748,1.384029.034404.248552.066842.498228.10251.746078.077093.537407.159102,1.072286.241672,1.606743.026259.169353.050413.339969.077234.509181l.832018,4.742435c.098298.511849.197016,1.023418.300369,1.531897.049008.240689.100966.479271.150957.719257.09254.443041.184659.886363.280991,1.326736.058557.267229.119923.532351.179744.798597.09254.411165.184659.822329.280429,1.231106.065298.278182.133263.554398.200106.831316.094646.39305.189293.78624.287169,1.176902.071476.285063.14534.568019.218361.851818.097876.37999.195893.75998.296718,1.137864.076672.28745.155591.573075.234089.859261.101387.369739.203055.739197.30739,1.10669.082289.289837.166404.57813.250378.866703.105178.360752.210778.720942.318624,1.079447.086923.288714.175391.576024.263999.863193.109532.354714.219906.708444.332105,1.060771.091698.287731.184519.574198.277901.860384.113463.347131.22805.692998.344041,1.037882.096332.286327.193646.571811.291944.856452.117817.341654.237178.682044.357663,1.021311.100404.282676.20151.56479.303739.84578.122591.33688.246867.671934.371986,1.006286.104757.279727.209795.559173.316237.837074.126944.331122.255995.660138.385467.988733.108829.276076.217518.552292.328173.826542.13228.327892.266948.653398.401896.978763.111778.269616.223135.539794.336739.807584.138319.326067.279165.649045.420011.972303.114587.263016.228472.526594.344743.787785.144638.324241.292084.645394.43925.966826.116834.255152.232544.511428.351063.764614.152923.32719.309216.650449.464947.97455.116412.242093.23142.48573.349378.725998.165982.338003.335475.671653.504407,1.006145.112059.221731.222293.445709.335756.665755.189153.367492.382237.729789.575041,1.092788.097034.182412.191961.367352.289837.548781.292505.54176.588802,1.078745.889593,1.609973.288995.510726.581781,1.012886.876533,1.510552.090012.15194.180867.301773.271442.45259.212463.353731.42619.704372.641462,1.051503.098298.158399.196595.316799.295454.473794.238863.379569.479692.754363.722066,1.125647.06614.101246.131438.204599.197859.305284.305705.463684.614079.920205.92498,1.370689.082851.120063.166825.237459.249957.35668.233948.334773.468879.666176.705636.993507.107425.14871.215412.296297.323399.443462.229174.311884.459752.619836.691453.924839.096612.127225.192804.255854.289978.381816.321573.417343.644972.82935.97146,1.233213.05294.065578.106723.12877.159804.194067.27748.340812.556785.676989.837635,1.008252.112059.13214.22468.262174.337301.392769.232544.269616.466071.536143.700861.799299.114166.127927.228191.256416.342918.382799.282535.311322.566615.61773.85224.919644.059259.06263.117957.127366.177357.189574.340952.357101.684432.706198,1.029596,1.049818.106161.1056.213025.208391.319607.312727.249254.244059.499492.485169.750853.722346.122029.114868.244059.229314.366509.342637.084957.078498.168931.159804.254029.237459-13.207959-4.07345-25.312739-11.323736-35.373351-21.361459ZM723.393642,177.435335c-.079621-.032157-.159102-.066561-.238582-.099421-.254591-.105319-.508479-.214148-.761806-.32719-.100685-.044796-.20137-.090153-.301914-.136353-.26442-.121327-.528139-.247008-.791155-.37676-.065157-.032157-.130455-.062489-.195472-.095208-.324101-.162612-.646938-.332105-.968933-.507496-.078217-.042689-.156153-.087485-.234229-.130736-.250518-.139161-.500334-.281833-.749308-.428577-.09577-.056451-.191399-.113042-.286888-.170476-.268071-.161629-.5353-.327471-.801827-.497807-.053923-.034545-.108127-.067404-.162051-.102229-.318624-.206144-.635845-.419309-.951941-.638091-.076391-.05294-.152502-.107846-.228893-.161629-.245042-.172161-.489241-.347973-.732738-.527858-.091417-.067544-.182974-.13537-.27425-.204038-.268493-.201931-.536002-.408216-.802529-.619415-.045217-.035949-.090855-.070353-.136072-.106442-.31048-.248271-.619555-.503564-.927367-.764334-.07611-.064596-.15194-.131017-.22805-.196314-.237178-.203757-.473513-.411024-.709006-.622223-.087625-.078638-.17525-.157136-.262735-.236757-.268071-.244199-.535019-.492751-.800844-.7465-.036089-.034545-.0726-.067825-.108829-.10251-.30079-.289135-.599755-.585292-.897456-.886644-.077234-.078076-.154046-.158259-.23114-.237178-.226506-.232263-.452169-.468037-.676849-.707321-.085378-.091136-.170897-.181991-.256135-.27411-.26428-.285765-.527577-.575602-.789189-.871057-.028928-.032719-.058136-.064174-.087064-.096893-.289416-.328454-.576866-.664351-.862912-1.004601-.077795-.092681-.15517-.187046-.232825-.280569-.215131-.259365-.429279-.521819-.642304-.787785-.083132-.103774-.166404-.207267-.249114-.312024-.259786-.328595-.518168-.661121-.774865-.999686-.021625-.028647-.043532-.05631-.065157-.084957-.277059-.36665-.55187-.740742-.825138-1.119047-.077374-.107285-.154327-.216114-.231561-.324382-.203757-.285625-.406531-.574479-.60804-.866563-.080183-.115991-.160225-.231561-.239986-.348535-.256557-.37662-.511849-.757031-.764895-1.144183-.011796-.017974-.023732-.035387-.035387-.053362-.26414-.404705-.525611-.816853-.785678-1.232932-.07583-.121327-.151097-.24434-.226646-.36665-.192804-.312305-.384343-.6277-.5749-.946184-.075689-.126663-.151659-.252906-.226927-.380411-.254731-.431386-.508198-.866563-.758717-1.309323-.282535-.499211-.561138-1.004039-.83595-1.513501-.091698-.169914-.180587-.343339-.271442-.514237-.18157-.342075-.36356-.683589-.541619-1.030018-.10588-.205863-.208812-.415096-.313569-.622364-.159523-.316097-.319467-.631632-.476181-.951239-.109251-.222995-.215974-.44922-.323961-.67404-.148289-.308795-.296999-.617449-.44276-.929473-.10897-.233527-.215693-.470003-.323258-.705074-.140565-.307671-.281271-.615062-.419309-.925542-.107285-.241531-.212604-.485449-.318344-.728666-.134527-.309497-.269054-.619134-.401194-.931439-.104617-.247289-.207267-.496683-.310339-.745657-.129051-.312165-.25782-.624611-.384484-.939584-.101668-.252765-.20165-.507215-.301773-.761665-.124276-.316097-.24785-.633036-.369599-.951801-.097876-.256276-.194489-.513815-.29082-.771636-.119923-.321293-.238863-.643568-.356258-.967669-.094085-.259505-.187187-.519854-.279727-.781044-.11571-.32691-.230157-.655083-.343339-.98452-.089591-.26105-.178761-.522662-.266808-.785397-.112059-.334212-.222714-.670108-.332105-1.006848-.085098-.261752-.169914-.523785-.253467-.787082-.108549-.342075-.215131-.685836-.320871-1.030299-.080464-.261612-.160787-.523083-.239565-.785959-.105319-.351624-.208391-.705215-.310901-1.059226-.075127-.259365-.150676-.518309-.224259-.778938-.102229-.361735-.20165-.725436-.300931-1.089558-.070072-.256978-.140846-.513534-.209514-.771776-.099842-.375918-.196735-.754083-.293488-1.132388-.063613-.248693-.128208-.496543-.190557-.746219-.09914-.397824-.19491-.798316-.29068-1.198668-.05603-.234089-.113323-.467054-.168229-.701844-.100966-.433071-.19814-.86895-.295173-1.30497-.045638-.20488-.092961-.408356-.137617-.613938-.111638-.512832-.218923-1.028894-.325084-1.545799-.026962-.131017-.055468-.26091-.082008-.392207-.264842-1.310025-.51199-2.632127-.741163-3.965463-.024013-.140004-.046059-.281271-.069651-.421556-.087906-.521117-.174829-1.042937-.257259-1.567424-.034264-.218361-.065859-.438126-.099281-.657049-.068387-.448658-.136774-.897456-.201089-1.348502-.035949-.251361-.069089-.504266-.103774-.756329-.057855-.421416-.115851-.842831-.170195-1.266353-.034685-.269616-.066842-.540496-.099983-.810955-.050132-.407513-.100123-.815167-.146885-1.224506-.032438-.283518-.06263-.568441-.093523-.852801-.043251-.398105-.086081-.79635-.126242-1.19586-.02963-.294471-.057153-.589926-.084957-.885099-.037072-.391926-.073583-.784133-.107706-1.177464-.025979-.301633-.050413-.604109-.074847-.906444-.031315-.389258-.061927-.779078-.090434-1.1696-.022468-.308373-.043532-.617309-.064174-.926384-.025698-.385186-.050413-.770653-.073302-1.156822-.018677-.315676-.03623-.631772-.053081-.94829-.020362-.382658-.039319-.766019-.056872-1.1498-.014745-.319607-.028506-.639355-.041285-.959524-.015166-.38308-.028506-.76658-.041004-1.150502-.010391-.322837-.020502-.645955-.028928-.969495-.003932-.150114-.006319-.30079-.00997-.451045h27.089256c.173706,22.720211,1.935759,43.999521,5.003345,60.245014,1.59902,8.468052,3.483524,15.185144,5.601274,19.964089.097736.220467.196033.437003.295173.649606-.30402-.110936-.607479-.226365-.909954-.348395ZM733.861627,179.409992c-1.22577-.359909-5.310735-5.518143-8.791731-24.564273-2.880118-15.759061-4.531938-36.302403-4.69118-58.153243h26.992924c-.159242,21.851402-1.811202,42.393761-4.691741,58.150715-3.505571,19.175462-7.624378,24.271908-8.818272,24.566801ZM758.240398,166.355518c-.226646.259365-.454275.515079-.683027.766861-.070774.078076-.141408.156995-.212463.234369-.291382.31722-.584168.629806-.87878.93509-.026259.027242-.0528.053362-.079059.080464-.267931.276356-.537266.546956-.807865.813482-.07934.078357-.158961.155731-.238723.233246-.243497.236476-.487977.46916-.73344.697632-.058979.055047-.117817.111217-.176936.165702-.30079.277059-.602845.548079-.906444.812921-.05954.051957-.119502.102089-.179182.153625-.248412.214429-.497666.424645-.748044.63093-.082991.068387-.166123.136774-.249395.204318-.276076.224118-.553134.443884-.831457.657891-.031455.024294-.06277.04971-.094366.073723-.309778.237037-.62124.466492-.933686.691032-.077795.05603-.156153.110515-.234229.165842-.244059.172723-.4891.341514-.734704.506794-.083412.05603-.166685.112621-.250237.167808-.314552.207829-.630087.411165-.947027.606636-.016991.010391-.034123.020081-.051255.030613-.298825.183536-.598913.36019-.899844.532492-.090995.052098-.182131.103212-.273267.154187-.247991.139161-.496683.27425-.745938.405688-.078919.041706-.157557.084536-.236616.1254-.317641.164157-.636125.322556-.955733.474496-.067123.031876-.134668.061647-.201931.092961-.258382.120625-.517466.237037-.777112.349518-.099702.043251-.199404.0858-.299246.127787-.078217.032859-.156855.06277-.235212.094927.058417-.130034.116834-.261331.17511-.394173,2.102444-4.805064,3.973046-11.52679,5.559709-19.978974,3.044415-16.217829,4.793409-37.424539,4.966694-60.043785h26.216655c-.003511.148289-.005898.296999-.00983.445288-.008004.309356-.017694.618291-.027664.927086-.012638.392488-.026119.784695-.041706,1.17606-.012077.305986-.025417.611411-.039319.916695-.017834.39319-.037072.785819-.057855,1.177885-.016008.302195-.032859.604109-.050693.905742-.02317.393892-.048025.787223-.074285,1.179992-.0198.297561-.040021.594981-.061506.891699-.028647.395999-.0594.791014-.090995,1.185749-.023451.291663-.046902.583466-.071898.874567-.034404.39979-.071196.798457-.108689,1.196843-.026681.283659-.053081.567317-.081306.850274-.040442.405548-.083693.809831-.127366,1.213975-.029489.273688-.058417.547939-.089451.821065-.047183.414956-.097455.828508-.147868,1.241779-.031736.259505-.062349.519713-.095489.778516-.054906.430262-.113323.858699-.17174,1.286996-.032859.240267-.064315.481377-.098298.721083-.064596.455679-.133123.909252-.201791,1.362685-.031876.210076-.061927.420994-.094646.630508-.080885.518028-.165982,1.033388-.252203,1.548186-.023872.142531-.046059.286046-.070353.428296-.226225,1.326455-.470283,2.641957-.731895,3.945523-.017834.088889-.037072.176795-.055047.265544-.112621.5551-.227208,1.108656-.346148,1.659122-.040302.186906-.083272.371986-.124276.55847-.099281.450484-.198982.900686-.302476,1.348221-.051957.223978-.106302.44599-.159242.669266-.096472.406671-.192804.813482-.292786,1.217485-.060102.242935-.122591.484045-.183957.725998-.096753.381535-.193646.762929-.293488,1.141937-.066421.252484-.135089.503143-.203055.754363-.098859.365526-.197859.731053-.299527,1.094192-.072038.257118-.146042.512692-.219484.768546-.101668.353871-.203757.707321-.308093,1.058805-.077093.259505-.155731.517607-.234369.775708-.105038.344603-.210638.688785-.318344,1.031001-.081727.260067-.164859.519011-.248271.777674-.108268.336318-.217659.671653-.328595,1.005443-.086361.259927-.173565.51873-.261612.776972-.11234.329999-.225803.658874-.340671.986346-.090293.257399-.181289.514096-.273267.770091-.116272.32382-.233948.645955-.352748.967248-.094506.255574-.189433.510866-.285484.764895-.120625.318624-.242935.635423-.365948.95152-.098017.251642-.196033.503143-.295595.75324-.125259.314833-.252765.627279-.380552.939444-.101106.246727-.201931.494015-.304582.739057-.130595.311884-.263578.6211-.396701.930176-.103774.24125-.206987.483062-.312446.722627-.136072.309076-.274671.615202-.413271.921469-.106302.234931-.211621.470986-.319327.704091-.143234.310059-.289416.616606-.435318.923435-.106442.224259-.211901.450062-.319888.672776-.154187.317922-.311603.631913-.468598.946465-.103493.207127-.205301.41622-.309918.621802-.175391.345024-.354573.685274-.533475,1.025945-.089451.170336-.177216.343199-.26751.512411-.27088.507917-.545411,1.011201-.823874,1.509008-.246446.440513-.4957.873444-.746219,1.302864-.071055.121889-.142531.242514-.214008.36342-.19477.329718-.390662.656206-.587819.979465-.065157.106723-.129893.214289-.195191.32031-.255012.413552-.511849.82247-.770793,1.225068-.042689.066421-.086081.131157-.12891.197297-.220186.339829-.441777.675585-.664772,1.00755-.076532.113885-.153204.227067-.230016.340109-.218221.320731-.437705.637951-.658593.951099-.050272.071476-.100123.144217-.150536.215131-.269195.378726-.540356.751414-.813201,1.118907-.062349.083974-.125259.166263-.187889.249535-.21808.29082-.437424.57813-.657891.861648-.07583.097455-.151519.19505-.227489.291663-.265403.337161-.532071.670389-.800704.997018-.012919.015728-.025557.031876-.038476.047604-.283518.344041-.569143.680781-.856172,1.013167-.073021.084536-.146323.167668-.219484.251361ZM794.504746,154.074645c-10.091365,10.121838-22.267341,17.43391-35.560818,21.530671.237459-.216535.472952-.438969.708585-.661683.060944-.057715.122731-.113323.183536-.171459.351905-.335756.701142-.679236,1.048694-1.028754.097595-.098298.194348-.199404.291663-.298825.252906-.258101.504968-.519292.755487-.784695.118238-.125259.235914-.251782.35345-.378586.238161-.256837.475198-.517466.711253-.781044.10897-.121749.218361-.242514.32691-.365667.298263-.338565.5947-.682185.889312-1.031282.039319-.046621.0792-.091698.118519-.138459.333509-.397543.66421-.803231.992946-1.214536.093523-.116834.185923-.236335.279025-.354433.236616-.300229.47239-.603126.706478-.910376.110515-.1452.220748-.291382.330701-.438126.225523-.30065.449501-.605092.672355-.912342.099983-.137757.200387-.274391.299807-.413411.296578-.414816.591189-.834546.883133-1.261017.019379-.028366.039319-.055889.058698-.084395.311463-.456241.619696-.920767.925822-1.390208.090995-.139582.181008-.281833.271582-.422679.216535-.336599.431947-.675866.645534-1.019065.103915-.166685.207408-.334352.31048-.502722.209514-.341795.417484-.687381.624189-1.035635.091276-.153906.183255-.306407.27411-.461718.292365-.499492.582764-1.003758.869512-1.51631.296156-.529402.5881-1.064422.876112-1.604216.097876-.183114.192804-.37002.289697-.554398.18845-.358926.377463-.717291.562402-1.080571.113604-.223276.224259-.450062.336599-.675023.164157-.328735.329156-.656768.490364-.989154.117817-.242514.232825-.488539.349097-.733019.15208-.319748.304582-.638794.453994-.961631.117957-.254731.233246-.512551.349518-.769248.143374-.316518.287029-.632615.427875-.952082.116693-.264561.230859-.531649.345867-.798176.136634-.316939.273408-.633879.407654-.953486.113885-.271301.225663-.544709.337722-.817976.130595-.318344.26105-.636968.389258-.957839.111357-.278603.220748-.559032.330139-.839601.125119-.32059.249816-.641742.372407-.964861.107706-.283659.213867-.568862.319748-.854346.120063-.324101.239425-.648764.357101-.975112.103915-.288152.206565-.577428.308514-.867546.11557-.328454.230016-.657891.343199-.988873.099842-.291944.198701-.58487.296718-.87864.110655-.331965.219906-.665053.328173-.999265.09591-.296437.191259-.593296.285344-.891278.106161-.336599.210638-.674742.314412-1.013588.091417-.298544.182693-.597509.272144-.897737.102089-.342637.202212-.686959.301914-1.031703.086783-.300088.173565-.600317.258382-.902091.098017-.348816.193646-.699457.289135-1.050239.082149-.301633.164719-.602845.244901-.906022.093804-.354995.18494-.711955.276216-1.068915.077234-.301914.15517-.603266.230578-.906584.090574-.364965.178199-.732176.266105-1.099107.071476-.298684.144076-.596385.213867-.896193.088047-.378726.172582-.75998.25768-1.140813.065017-.291101.131578-.581079.19505-.873303.087204-.401896.170336-.806601.25431-1.210885.057013-.27411.115851-.546956.171319-.822189.090715-.449781.176936-.902512.263578-1.354961.044655-.232684.091417-.463824.134948-.69721.127646-.684853.25108-1.372234.369739-2.062563.016289-.094927.030894-.190557.047042-.285625.101527-.59807.200808-1.197264.295454-1.799407.039319-.250518.075268-.503003.113463-.754083.068106-.448377.136774-.896333.201089-1.346817.041425-.290539.079481-.582904.119361-.874427.056451-.41285.113744-.825278.166965-1.239953.039881-.310901.076672-.623347.114727-.935231.048727-.397965.098017-.795508.143655-1.195017.036791-.321573.070634-.644691.105459-.967107.042268-.391926.085098-.783572.124557-1.176762.033-.328454.063191-.658032.094225-.987188.036651-.38996.073442-.77978.107285-1.171004.028928-.333931.055468-.668704.082289-1.003337.031174-.387854.062068-.775708.090293-1.164685.024715-.338986.047464-.678815.070072-1.018643.025698-.386871.050834-.774023.073864-1.162017.020221-.343058.038898-.686678.057013-1.030579.020502-.386169.040021-.772759.057574-1.159911.015868-.346569.030332-.693559.043953-1.04083.015166-.38645.029208-.77304.041566-1.160332.011374-.349658.021485-.699878.030613-1.050239.004634-.180025.011515-.359207.015587-.539232h32.040503c-.912061,21.58333-9.740443,41.764235-25.079352,57.149625Z"/>
  <path class="cls-1" d="M195.66399,45.839206h.000038c11.760071,0,22.583564,6.415133,28.229077,16.731501l41.700083,76.200944h-30.931279l-9.195786-16.579558h-59.911937l-8.917125,16.579558h-32.04592l43.022543-76.523225c5.698614-10.135996,16.42221-16.40922,28.050306-16.40922ZM215.572965,102.82449l-15.442689-28.526078c-1.979848-3.65722-7.233338-3.641898-9.19182.026808l-15.213896,28.49927h39.848404Z"/>
  <path class="cls-1" d="M416.530427,45.839206h22.67671v92.932445h-28.284729V51.447225c0-3.097223,2.510796-5.608019,5.608019-5.608019Z"/>
  <path class="cls-1" d="M463.45346,51.447225c0-3.097223,2.510796-5.608019,5.608019-5.608019h74.64611c19.64482,0,28.840606,2.229281,35.24979,8.637021,5.155935,5.015883,7.245164,10.869191,8.221197,22.711526.27866,4.319955.55732,10.727695.55732,15.186257,0,8.359805-.55732,17.974303-1.393301,23.268846-1.533353,11.146407-9.335838,19.784872-19.506212,21.735493-5.294543,1.114641-9.474446,1.393301-19.367604,1.393301h-84.01532V51.447225ZM539.108974,116.61889c7.663877,0,8.221197,0,11.565119-1.114641,6.826452-2.090673,8.638465-6.967948,8.638465-22.990186,0-19.506212-3.343922-23.547506-19.646264-23.547506h-47.929549v47.652333h47.372229Z"/>
  <path class="cls-1" d="M378.037833,49.321968c-5.852005-2.925352-10.449311-3.482561-28.423559-3.482561h-65.450228c-3.097223,0-5.608019,2.510796-5.608019,5.608019v87.324294h28.144629v-70.362711h41.103012c12.121266,0,14.907641,2.509397,14.907641,13.655546,0,8.777357-3.34391,11.285452-14.907641,11.285452h-26.758114v22.571554h31.076815c16.162339,0,22.432903-.975117,27.866024-4.318376,7.663913-4.738887,10.867544-13.932849,10.867544-31.628818,0-17.555364-3.482236-26.055418-12.818104-30.652399Z"/>
  <path class="cls-1" d="M101.43181,111.602964c7.664998-4.738787,10.868489-13.932819,10.868489-31.628556,0-17.555532-3.483205-26.055498-12.818137-30.652688-5.851728-2.925168-10.449614-3.482509-28.423674-3.482509H21.411193c-11.825075,0-21.411193,9.586118-21.411193,21.411193v71.521347h28.14396v-70.362682h41.104042c12.12094,0,14.906947,2.509076,14.906947,13.65554,0,8.777244-3.344043,11.285277-14.906947,11.285277h-26.660236c-1.426452,0-2.222664,1.646856-1.336726,2.764836l33.803063,42.656682h32.065227l-18.541837-23.398563c5.924092-.596654,9.561766-1.743342,12.854319-3.769877Z"/>
  <path class="cls-1" d="M1108.929161,45.839206v21.038121h-75.099638v16.022238h54.799334v18.391571h-54.799334v16.442394h76.074227v21.038121h-103.940244V49.659615c0-2.109953,1.710455-3.820409,3.820409-3.820409h99.145246Z"/>
  <path class="cls-1" d="M1195.751105,45.839206h.000038c11.760207,0,22.583803,6.415282,28.229258,16.731837l41.698716,76.200608h-30.931279l-9.195786-16.579558h-59.911937l-8.917125,16.579558h-32.04592l43.023919-76.523559c5.698667-10.135809,16.422157-16.408886,28.050116-16.408886ZM1215.660338,102.82449l-15.442689-28.526078c-1.979848-3.65722-7.233338-3.641898-9.19182.026808l-15.213896,28.49927h39.848404Z"/>
  <path class="cls-1" d="M1394.288727,103.800522c-.140052,13.514296-.55732,18.111467-2.507942,22.292814-3.622582,7.941093-11.146407,11.703727-25.636736,12.678316-5.711812.55732-16.858218.697372-35.389842.697372-26.751376,0-35.389842-1.254693-42.913666-6.130524-9.195786-5.853307-11.843779-15.60497-11.843779-43.19377,0-24.522095,2.786602-33.299169,12.541152-38.872372,8.359805-4.875831,17.276931-6.130524,43.330935-6.130524,34.693913,0,42.216294.697372,50.158831,4.598615,7.523825,3.76119,11.006355,11.980944,11.006355,25.636736v3.063818h-27.028593c-.55732-10.170374-2.647994-11.006355-27.170089-11.006355-23.128794,0-27.308697.55732-30.791227,3.622582-3.343922,3.065262-4.041294,6.826452-4.041294,21.874101,0,22.292814,2.089229,23.964775,29.259318,23.964775,21.039565,0,24.103383-.138608,28.004625-1.810569,4.041294-1.671961,5.573203-4.597171,5.573203-11.285015h27.448749Z"/>
  <path class="cls-1" d="M1451.977157,68.827949h-41.380313v-19.168334c0-2.109953,1.710455-3.820409,3.820409-3.820409h107.224948v22.988742h-41.380313v69.943703h-28.284729v-69.943703Z"/>
  <path class="cls-1" d="M967.642339,111.602964c7.664998-4.738787,10.868489-13.932819,10.868489-31.628556,0-17.555532-3.483205-26.055498-12.818137-30.652688-5.851728-2.925168-10.449614-3.482509-28.423674-3.482509h-49.647295c-11.825075,0-21.411193,9.586118-21.411193,21.411193v71.521347h28.14396v-70.362682h41.104042c12.12094,0,14.906947,2.509076,14.906947,13.65554,0,8.777244-3.344043,11.285277-14.906947,11.285277h-26.660236c-1.426452,0-2.222664,1.646856-1.336726,2.764836l33.803063,42.656682h32.065227l-18.541837-23.398563c5.924092-.596654,9.561766-1.743342,12.854319-3.769877Z"/>
</svg>