<?xml version="1.0" encoding="UTF-8"?>
<svg id="Layer_2" data-name="Layer 2" xmlns="http://www.w3.org/2000/svg" viewBox="0 0 562.154082 141.473904">
  <defs>
    <style>
      .cls-1 {
        fill: #fff;
      }
    </style>
  </defs>
  <g id="Layer_1-2" data-name="Layer 1">
    <g>
      <path class="cls-1" d="M139.903512,22.010681c0,5.592306-2.055824,11.807087-6.165812,18.641021-11.806257,19.932447-29.467089,34.582995-52.983327,43.949984,22.278257,12.126006,19.702458,43.555484,19.253465,46.722063l-32.762987,2.678505c0-8.268115.435523-31.792127-19.25585-36.351853l-16.536113,40.33419-31.452888,3.489313S44.809819,43.664476,52.219334,28.464491c-4.014957.383444-12.569644,1.565994-16.488325,2.473976l11.039188-26.851718C59.292299,1.362803,74.731729,0,93.085997,0c31.211261,0,46.817514,7.338553,46.817514,22.010681ZM104.342402,35.849522c0-5.879474-5.520929-8.819212-16.561958-8.819212-1.100119,0-7.622803.505265-7.622803.505265l-18.116082,38.855011c8.26853-1.002598,16.250306-3.655167,23.946575-7.957708,9.080651-4.827078,14.864679-10.658415,17.350425-17.494009.668537-1.719688,1.003843-3.416137,1.003843-5.089347Z"/>
      <path class="cls-1" d="M550.574324,33.018011h-29.491682c-8.316668,17.733039-36.020895,89.487965-44.540796,106.81213,0,0-8.000365-1.473525-14.495001-2.092062-6.276186-.597732-12.701805-.896598-12.701805-.896598l43.663714-103.82347h-30.037958l10.58239-25.585511,88.600897.377539-11.579758,25.207972Z"/>
      <g>
        <path class="cls-1" d="M256.684548,77.301178c10.614836-6.916079,15.391977-14.576405,19.167484-23.833764l.038763-.10621c1.896282-5.802808,1.384611-10.956725-1.480743-14.904339-4.107318-5.664037-12.599497-5.620754-24.55708-5.620754-.724091,0-106.860044-.046384-106.860044-.046384l-8.506133,21.862282,6.608485.288596-29.169962,75.774123c36.013354-2.241495,56.769323-2.356593,56.769323-2.356593l11.165269-24.964865s-25.126471,1.589279-33.265132,2.29709c1.35205-3.821248,4.001883-10.647397,5.357034-13.646095,5.161669-.634161,20.021819-1.138079,20.021819-1.138079l10.78293-23.401617-21.580727.058592c.14885-.418639,4.9539-13.646095,4.9539-13.646095l44.570798-.160333c-8.182851,18.023203-33.921292,73.819903-33.921292,73.819903,9.563712,1.195464,42.140107,4.781856,63.001575-6.329944,10.354579-5.515336,17.402997-12.859984,20.962983-21.79716,1.393914-3.46618,2.10095-6.66412,2.10095-9.503891,0-4.93762-2.069939-9.182934-6.160202-12.644462ZM251.294953,56.180818c0,.460503-.096132.8993-.333361,1.441205-2.425008,6.626907-10.666003,10.767562-24.509014,12.32428l8.416203-17.350279c1.429576-.125592,3.656118-.302351,4.59418-.302351,4.418972,0,11.831991.504693,11.831991,3.887145ZM227.796876,104.746095c-5.04228,2.091647-10.202398,3.1522-15.336158,3.1522-.4512,0-1.128776-.017056-2.034278-.052718-.39073-.013955-.832627-.032561-1.324141-.053493l7.822356-17.813108c3.454551-.357394,5.904367-.538029,7.292079-.538029,8.349531,0,12.583992,1.904034,12.583992,5.659385,0,3.916605-2.949082,7.073456-9.003849,9.645763Z"/>
        <path class="cls-1" d="M365.400051,32.836111h-25.665106l-20.882439,50.70357c-2.22034,5.476424-5.363236,10.253565-9.33721,14.188001-4.608135,4.499599-9.490711,6.781184-14.509733,6.782734h-.003101c-2.61107,0-5.606668-.804718-5.608218-7.065704,0-4.190271,1.900933-11.335051,5.634577-21.194009l1.043498-2.541296c4.259269-10.374506,18.221653-40.873296,18.221653-40.873296h-25.290358s-6.475056,13.799728-7.23636,15.553362c-11.762218,25.809122-17.725504,45.191353-17.723954,57.610214.003101,13.848438,6.707534,20.73118,21.738241,22.316583,1.393914.147299,2.775424.218623,4.147632.218623,28.960856,0,45.230116-22.768559,54.568876-45.056458,4.806601-11.469945,20.902003-50.642325,20.902003-50.642325Z"/>
        <path class="cls-1" d="M377.916064,108.89751c4.665504-12.559959,18.352777-47.68604,22.246124-56.316215l13.468364-.020027,8.684609-19.48603-50.677561-.239127-9.244442,20.640607s14.617205-.442343,15.074607-.467151l-23.759847,54.094747-14.345568.149433-9.115413,20.621754s54.774273,3.116386,54.991345,3.138093l6.873918-20.92062-14.196135-1.195464Z"/>
        <path class="cls-1" d="M456.99732,32.785675l-27.042558-.151175-37.543697,98.976826c.293048.008528,24.208146,1.344897,48.715159,4.184124l8.28409-20.064253c-8.667114-2.689794-20.980723-3.125971-25.618318-3.546161,1.995515-4.541463,33.205324-79.399361,33.205324-79.399361Z"/>
      </g>
    </g>
  </g>
</svg>