<?xml version="1.0" encoding="UTF-8"?>
<svg id="Layer_1" data-name="Layer 1" xmlns="http://www.w3.org/2000/svg" viewBox="0 0 998.397988 185.394318">
  <defs>
    <style>
      .cls-1 {
        fill: #fff;
      }
    </style>
  </defs>
  <path class="cls-1" d="M993.262194,146.616692h-60.855991c-1.416957,0-2.565734-1.148777-2.565734-2.565734v-30.815127c0-1.416957,1.148777-2.565374,2.565734-2.565374h47.491679c2.824543,0,5.135794-2.311252,5.135794-5.136155v-25.678972c0-2.824903-2.311252-5.136155-5.135794-5.136155h-47.491679c-1.416957,0-2.565734-1.148417-2.565734-2.565374v-30.815127c0-1.416957,1.148777-2.565734,2.565734-2.565734h59.829769c2.824543,0,5.135794-2.311252,5.135794-5.135794V7.957814c0-2.824543-2.311252-5.135794-5.135794-5.135794h-93.21063c-2.824543,0-5.135794,2.311252-5.135794,5.135794v18.721427c-1.986119-3.201941-4.316836-6.200945-7.077938-8.962769-10.014943-10.015304-22.856952-14.894452-39.029586-14.894452h-56.494459c-2.824543,0-5.135794,2.311252-5.135794,5.135794v145.518378L746.854365,6.674947c-.769576-2.57006-2.309089-3.852927-4.879149-3.852927h-34.407083c-2.313775,0-4.109573,1.282867-4.879149,3.852927l-31.77142,118.009365c-.763448-1.885191-2.600699-3.229336-4.748663-3.229336h-26.192263c-3.147152,0-5.586005,2.591687-5.655934,5.737758-.288726,13.025842-9.968805,21.994018-24.128285,21.994018-11.298171,0-18.74738-4.109573-22.600667-12.324032-2.309089-5.39244-3.591956-20.030247-3.591956-44.165741,0-24.139819,1.282867-38.77294,3.591956-44.16538,3.853288-8.219145,11.302496-12.328718,22.600667-12.328718,14.15948,0,23.839559,8.968175,24.128285,21.993657.069929,3.146431,2.508782,5.738118,5.655934,5.738118h26.170635c2.790299,0,5.153096-2.217172,5.157422-5.007472.027034-18.033314-5.62133-32.45809-17.203541-43.00651-11.558781-10.528595-26.192263-15.920674-43.908735-15.920674-26.705554,0-46.479155,13.350254-55.724883,34.150077-1.177974,2.544467-2.198789,5.638993-3.080828,9.232391-4.408752-26.139997-25.115217-43.382467-56.868974-43.382467-17.716472,0-32.097994,4.879149-43.139159,14.376475-3.503644,3.096327-6.373244,6.451824-8.747215,10.013501V7.957814c0-2.824543-2.311252-5.135794-5.135794-5.135794h-89.87532c-2.824543,0-5.135794,2.311252-5.135794,5.135794v169.474004c0,2.824543,2.311252,5.135794,5.135794,5.135794h25.679332c2.824543,0,5.135794-2.311252,5.135794-5.135794v-64.195987c0-1.416957,1.148777-2.565374,2.565734-2.565374h42.105728c2.824903,0,5.135794-2.311252,5.135794-5.136155v-25.678972c0-2.824903-2.310891-5.136155-5.135794-5.136155h-42.105728c-1.416957,0-2.565734-1.148417-2.565734-2.565374v-30.815127c0-1.416957,1.148777-2.565734,2.565734-2.565734h55.341356c-.897899,3.753441-1.397853,7.675215-1.397853,11.811101,0,28.245067,15.407743,46.474469,45.966224,54.437329,15.659343,4.109573,25.931292,7.957814,30.810441,11.554456,4.622864,3.596282,6.931592,8.732436,6.931592,15.151098,0,11.041165-10.010257,18.486048-25.418001,18.486048-14.637807,0-24.909396-8.471105-24.909396-21.056468v-5.135794c0-2.824543-2.311252-5.135794-5.135794-5.135794h-27.218845c-2.824543,0-5.135794,2.311252-5.135794,5.135794v5.135794c0,16.690611,5.905731,30.04555,17.464512,40.573785,11.554816,10.528234,26.444583,15.664029,44.935317,15.664029,18.743054,0,33.893792-5.135794,45.448608-15.407383,6.944929-6.173911,11.714499-13.578784,14.448206-22.165235.427863,1.201043.85969,2.388389,1.335854,3.417495,9.245727,20.800183,29.019329,34.155123,55.724883,34.155123,17.716472,0,32.349953-5.39244,43.908735-16.17732,2.626291-2.392715,4.906544-5.010716,6.925825-7.795969l-3.273312,12.157501c-.769576,2.57042-1.030908,4.366218-1.030908,5.136155,0,2.57006,1.800484,3.852927,5.135794,3.852927h26.962199c2.57006,0,4.109573-1.282867,4.879149-3.852927l10.181474-44.187368h42.214225l9.491199,44.187368c.769576,2.57006,2.565734,3.852927,4.874823,3.852927h26.961839c.910875,0,1.681533-.114986,2.35739-.306028.484815.152834.973234.306028,1.506711.306028h25.679332c2.824903,0,5.135794-2.311252,5.135794-5.135794v-64.195987c0-1.416957,1.148777-2.565374,2.565734-2.565374h23.113598c16.172634,0,29.014643-4.879509,39.029586-14.894452,2.761102-2.761823,5.091819-5.761188,7.077938-8.963129v90.618943c0,2.824543,2.311252,5.135794,5.135794,5.135794h94.236852c2.824543,0,5.135794-2.311252,5.135794-5.135794v-25.679332c0-2.824543-2.311252-5.135794-5.135794-5.135794ZM547.338776,98.2801c-7.471197-10.647185-20.104501-18.267251-38.952809-23.30428-28.506038-7.188238-36.207566-13.093969-36.207566-23.108912,0-11.041525,7.958174-16.946896,22.339336-16.946896,12.580678,0,21.56976,7.9625,21.56976,19.260671v1.282507c0,2.82238,2.309089,5.136155,5.135794,5.136155h25.935617c.539604,0,1.034873-.153915,1.524374-.310714-.924212,9.083522-1.403981,19.816135-1.403981,32.408347,0,1.937458.037848,3.72893.059475,5.583122ZM711.512977,101.406706l11.674503-50.668068c.604845-2.625066,4.35286-2.597188,4.918589.036585l10.87555,50.631483h-27.468642ZM846.494471,74.719175h-21.826045c-1.795798,0-2.565734-.769576-2.565734-2.565374v-30.815127c0-1.796158.769937-2.565734,2.565734-2.565734h21.826045c10.528595,0,17.977803,7.444883,17.977803,17.973117s-7.449209,17.973117-17.977803,17.973117Z"/>
  <path class="cls-1" d="M216.929638,143.980308c-30.3213,5.663504-61.177158,2.723254-89.64679-9.932398-2.088489-.928177-4.432903.53636-4.432903,2.821659v28.287961c0,1.229159.715147,2.368204,1.828599,2.889425,29.481795,13.791093,61.644311,17.020069,93.195852,10.938435,1.263042-.243309,2.184371-1.3719,2.184371-2.658372v-29.779533c0-1.657743-1.499142-2.871763-3.129129-2.567176Z"/>
  <path class="cls-1" d="M285.893033,130.010788c-16.807038.514012-32.497741,4.659991-48.474286,9.005663-1.158509.31504-1.966294,1.369016-1.966294,2.569699v29.675361c0,1.751822,1.667836,3.021713,3.35874,2.563211,15.498218-4.204373,30.759977-8.121822,47.08184-8.628264,13.215082-.4102,30.537214-1.16716,40.925591,8.055858,2.012433,1.786426,5.177247.365504,5.176526-2.32567l.208344-25.035916c-.136613-.54429-.271424-1.082813-.408038-1.627104-8.828678-15.718097-30.24272-14.732247-45.902424-14.252839Z"/>
  <path class="cls-1" d="M216.929998,81.577955c-30.321661,5.663504-61.177879,2.723254-89.64715-9.932038-2.088489-.928177-4.432903.536-4.432903,2.821299v28.287961c0,1.229159.715147,2.368204,1.828599,2.889065,29.481795,13.791453,61.644311,17.020429,93.195852,10.939155,1.263042-.243669,2.184371-1.3719,2.184371-2.658372v-29.779893c0-1.657743-1.499142-2.871402-3.128769-2.567176Z"/>
  <path class="cls-1" d="M285.893033,67.608436c-16.807038.514372-32.497741,4.659991-48.474286,9.006023-1.158509.31504-1.966294,1.368656-1.966294,2.569339v29.675361c0,1.751822,1.667836,3.021713,3.35874,2.563211,15.498218-4.204373,30.759977-8.121822,47.08184-8.628264,13.215082-.4102,30.537214-1.16716,40.925591,8.055858,2.012433,1.786786,5.177247.365143,5.176526-2.32567l.208344-25.035916c-.136613-.54429-.271424-1.082453-.407677-1.626743-8.828678-15.718458-30.243081-14.732607-45.902784-14.253199Z"/>
  <path class="cls-1" d="M216.929638,19.175603c-30.3213,5.663504-61.177158,2.723615-89.64679-9.932038-2.088489-.928538-4.432903.536-4.432903,2.821299v28.287961c0,1.229159.715147,2.368564,1.828599,2.889425,29.481795,13.791093,61.644311,17.020069,93.195852,10.938435,1.263042-.243309,2.184371-1.3719,2.184371-2.658372v-29.779533c0-1.657743-1.499142-2.871402-3.129129-2.567176Z"/>
  <path class="cls-1" d="M285.893033,5.206084c-16.807038.514012-32.497741,4.659991-48.474286,9.005663-1.158509.3154-1.966294,1.369016-1.966294,2.569699v29.675361c0,1.751822,1.667836,3.021713,3.35874,2.563211,15.498218-4.204373,30.759977-8.121822,47.08184-8.627904,13.215082-.410561,30.537214-1.167521,40.925591,8.055498,2.012433,1.786426,5.177247.365504,5.176526-2.32567l.208344-25.035916c-.136613-.54429-.271424-1.082813-.408038-1.627104-8.828678-15.718097-30.24272-14.731886-45.902424-14.252839Z"/>
  <path class="cls-1" d="M88.844412,102.194666c17.721158-10.271949,26.705554-25.418361,26.705554-45.448608,0-16.176959-4.879509-29.014643-14.889766-39.029586-10.015304-10.015304-22.857313-14.894452-39.029946-14.894452H5.136155C2.31127,2.82202,0,5.133289,0,7.958174v169.473644c0,2.824687,2.311107,5.135794,5.135794,5.135794h25.679332c2.824687,0,5.135794-2.311107,5.135794-5.135794V41.338675c0-1.417016,1.148719-2.565734,2.565734-2.565734l21.336183.000004c9.70837.000002,18.127833,7.506958,18.455062,17.209812.368615,10.930044-7.183806,18.736419-17.96484,18.736419h-13.601305c-3.493383,0-5.931376,3.462132-4.75409,6.751163l34.532354,96.474411c1.282867,3.083351,3.596642,4.622864,6.418662,4.622864h25.679332c3.852927,0,6.418662-2.565734,6.418662-5.905731,0-1.026222-.512931-2.57006-1.282867-4.879149l-26.448908-61.112276c-.769576-2.052804-1.282867-3.596642-1.282867-4.879509s1.026582-2.565734,2.82238-3.596282Z"/>
</svg>