<?xml version="1.0" encoding="UTF-8"?>
<svg id="Layer_2" data-name="Layer 2" xmlns="http://www.w3.org/2000/svg" viewBox="0 0 123.874997 74.1328">
  <defs>
    <style>
      .cls-1 {
        fill: none;
      }

      .cls-2 {
        fill: #ffffff22;
      }

      .cls-3 {
        fill: #e1251b33;
      }

      .cls-4 {
        fill: #98989a22;
      }

      .cls-5 {
        fill: #0033a133;
      }
    </style>
  </defs>
  <path class="cls-4" d="M59.582998,23.5586c2.1797,0,4.2969.1992,6.3183.5679l4.8077-5.0093c-3.3623-1.1645-7.13679-1.8174-11.126-1.8174-6.7837,0-12.9419,1.8911-17.50879,4.9707l4.18989,3.9688c3.87411-1.6973,8.4327-2.6807,13.3189-2.6807Z"/>
  <path class="cls-2" d="M59.582998,17.2998c3.98921,0,7.7637.6529,11.126,1.8174l5.2275-5.4424c-4.8779-1.9228-10.4414-3.0151-16.3535-3.0151-8.813,0-16.854,2.4253-22.991199,6.4155l5.482409,5.1953c4.56689-3.0796,10.72509-4.9707,17.50879-4.9707Z"/>
  <path class="cls-4" d="M34.482399,38.5938c.4395-1.7969,1.251-3.5,2.3706-5.0752l-2.1059-2.1304c-.417,1.3091-.648,2.6724-.648,4.0757,0,1.0669.1333,2.1113.3833,3.1299Z"/>
  <path class="cls-4" d="M18.9214,50.3692l-.8838,4.583,8.7969-3.7871c-.5552-1.168-.6641-2.6905-.9849-3.9287l-6.9282,3.1328Z"/>
  <polygon class="cls-4" points="12.7314 .5244 0 70.2422 6.0215 70.7325 18.6279 .001 12.7314 .5244"/>
  <path class="cls-3" d="M55.543899,40.6436v-5.6382l-9.2475-8.7661-4.188-3.9688-5.4844-5.1953L18.6069,0,5.9961,70.7325l26.683599-11.7305c-2.6568-2.3467-4.5396-4.8486-5.938491-7.7969l-8.686,3.7256.871091-4.5596,5.6284-29.3354.4702-2.4624,4.647,4.6792,5.9799,6.0215,2.566409,2.5888,10.55469,9.0923-10.2451,4.6953c2.6611,2.6572,5.813,4.999,10.0625,6.3213l12.7827-5.7392-5.8291-5.5889Z"/>
  <path class="cls-1" d="M87.497998,21.0069c4.3467,4.2954,6.92,9.6308,6.92,15.4101,0,1.0601-.095789,2.1045-.2647,3.1299.168911,1.0264.2647,2.0723.2647,3.1309,0,4.4209-1.5079,8.582-4.1612,12.2129l17.3789-18.0967-18.3662-17.6333-1.7715,1.8462Z"/>
  <path class="cls-1" d="M78.938498,29.919l-7.1885,7.4878,8.7607,8.4145c2.0723-2.124,3.5244-4.5781,4.1709-7.2275-.7978-3.2754-2.833-6.2495-5.7431-8.6748Z"/>
  <path class="cls-4" d="M84.681598,38.5938c.2481-1.0186.3848-2.063.3848-3.1299,0-3.1484-1.1514-6.1211-3.1328-8.7017l-3.0352,3.1421c2.9151,2.4253,4.9854,5.4141,5.7832,8.6895Z"/>
  <path class="cls-4" d="M90.386698,68.4326l-7.1924-6.9101c-1.1504.7851-2.3799,1.5137-3.667,2.1826l10.8594,10.4277,33.488299-34.8798-.0371-5.648-33.451199,34.8276Z"/>
  <path class="cls-4" d="M65.984398,45.0069l-5.9239-5.6885-4.5327-4.3276-.0161,5.6528,6.373,6.1211,6.0918,5.8515c1.5479-.3867,3.0284-.872,4.4209-1.4511l-6.413-6.1582Z"/>
  <polygon class="cls-4" points="89.269498 13.4639 84.501898 18.4273 79.244098 23.9068 75.658208 27.6377 68.865208 34.7119 71.710898 37.4434 78.938498 29.919 81.960898 26.7715 87.497998 21.0069 89.269498 19.1607 107.683597 36.813 110.532208 33.8555 89.269498 13.4639"/>
  <path class="cls-2" d="M87.497998,21.0069l-5.5371,5.7646c1.9815,2.5811,3.1055,5.544,3.1055,8.6924,0,1.0669-.1367,2.1113-.3848,3.1299-.6465,2.6494-2.0986,5.1035-4.1709,7.2275-2.1201,2.1738-4.8906,4.0039-8.1133,5.3438-1.3925.5791-2.873,1.0644-4.4209,1.4511-2.6269.6514-5.4521,1.0108-8.3935,1.0108-3.624,0-7.0664-.5391-10.186-1.5108-4.2505-1.3252-7.8951-3.4492-10.5582-6.1084-.971591-.9687-1.8105-2.0117-2.5039-3.1123-.853-1.3535-1.4834-2.7939-1.8525-4.3017-.25-1.0186-.3833-2.063-.3833-3.1299,0-1.4033.231-2.7666.648-4.0757l-6.3584-6.437c-2.3291,3.4536-3.6431,7.3447-3.6431,11.4658,0,1.0601.0981,2.1045.266609,3.1299.407191,2.4922,1.300791,4.8691,2.600091,7.0879.6514,1.1152,1.4082,2.1895,2.2602,3.2158,2.2373,2.6983,5.1216,5.0694,8.503,6.9912,5.8706,3.3389,13.2221,5.3311,21.207499,5.3311,5.5869,0,10.8603-.9736,15.5381-2.7012,1.4199-.5224,2.7812-1.1162,4.084-1.7734,3.0156-1.5274,5.6914-3.3916,7.9238-5.5244,3.7471-3.5791,6.25-7.9053,7.0244-12.627.168911-1.0254.2647-2.0698.2647-3.1299,0-5.7793-2.5733-11.1147-6.92-15.4101Z"/>
  <path class="cls-5" d="M65.954098,45.0489l6.3916,6.1386c3.2187-1.3427,6.0127-3.1494,8.1367-5.3242l-8.7637-8.415-2.8457-2.73,6.7569-7.0371,3.582-3.7324,5.2598-5.4795,4.768511-4.9629,21.211889,20.3647-2.8466,2.9678-17.379,18.0937c-1.83,2.5088-4.2041,4.7354-7.0117,6.6573l7.1416,6.8877,33.488299-34.876L88.967798.1138l-13.0625,13.6035-5.2276,5.4434-4.81049,5.0093-10.33941,10.8208,10.4263,10.0581Z"/>
  <path class="cls-4" d="M36.479499,43.0694s.167.2754.186.3056c.511709.8135,1.2144,1.5576,1.8799,2.3008l10.4184-4.8144-23.942299-22.2959-.6529,3.4487,18.7837,18.5972-6.6728,2.458Z"/>
  <path class="cls-4" d="M94.417998,36.417c0,1.0601-.095789,2.1045-.2647,3.1299-.7744,4.7217-3.2773,9.0479-7.0244,12.627-2.2324,2.1328-4.9082,3.997-7.9238,5.5244-1.3028.6572-2.6641,1.251-4.084,1.7734-4.6778,1.7276-9.9512,2.7012-15.5381,2.7012-7.9854,0-15.3369-1.9922-21.207499-5.3311-3.3814-1.9218-6.2657-4.2929-8.503-6.9912-.852-1.0263-1.6088-2.1006-2.2602-3.2158-1.2993-2.2188-2.1929-4.5957-2.600091-7.0879-.168509-1.0254-.266609-2.0698-.266609-3.1299,0-.334.0259-.6626.042-.9912-.003391-.0176-.0098-.0434-.0113-.0596-.1699,1.0269-.0307,6.253-.0307,7.3116,0,1.6806.224609,3.3203.6401,4.9111.3242,1.2422.7686,2.4482,1.3233,3.6162,1.3989,2.9483,3.497,5.6504,6.1548,7.999,6.394,5.6387,15.9892,9.2285,26.719199,9.2285,7.4453,0,14.3389-1.7324,20.000999-4.6728,1.2861-.6689,2.5097-1.3984,3.65821-2.1836,2.807589-1.9209,5.184489-4.1768,7.014589-6.6855,2.6533-3.6309,4.1612-7.792,4.1612-12.2129,0-.9317.08-5.3516-.009789-7.106-.015611-.2407.009789.5405.009789.8452Z"/>
</svg>