<?xml version="1.0" encoding="UTF-8"?>
<svg id="Layer_1" xmlns="http://www.w3.org/2000/svg" version="1.1" viewBox="0 0 54.1 91.2">
  <!-- Generator: Adobe Illustrator 29.2.1, SVG Export Plug-In . SVG Version: 2.1.0 Build 116)  -->
  <defs>
    <style>
      .st0 {
        fill: #58595b;
      }

      .st1 {
        fill: #d1d3d4;
      }

      .st2 {
        fill: #3c3c3c;
      }

      .st3 {
        fill: #fff;
      }

      .st4 {
        fill: #939598;
      }

      .st5 {
        fill: #a7a9ac;
      }
    </style>
  </defs>
  <g>
    <rect class="st3" x="1.7" y="11.8" width="0" height="0"/>
    <path class="st3" d="M1.7,11.8h0,0M1.7,11.8h0s0,0,0,0"/>
  </g>
  <g>
    <polygon class="st0" points="27.6 91 27.6 91 27.6 91 27.6 91"/>
    <path class="st0" d="M51.2,71.4c3.1-8.4,2.6-19.5,2.2-31.2-.2-4-.3-8.1-.3-12.3-2.7-.6-14.3-2.8-25.2-2.8v18.4h-3.3v3.4h3.5v3.5h-3.5v3.4h3.3v36.9c8.1-.2,19-7.4,23.4-19.4ZM37,41.8l2.1-6.3v-.4c.1,0,2.3,6.7,2.3,6.7h7.1-.1c0,0-.1.2-.1.2l-5.4,3.9h0s2.2,6.7,2.2,6.7h-.1c0,0-.2-.2-.2-.2l-5.4-3.9-5.7,4.2v-.2s0-.2,0-.2l2.1-6.4h0s-5.4-3.9-5.4-3.9h-.2c0,0,0-.1,0-.1h-.1c0-.1,7.1-.1,7.1-.1ZM34.7,59.4l4.2,3.5,4.1-3.7,3.6,12.7-4.6,4-3.1-10.9-3,11.1-4.8-3.7,3.5-12.9Z"/>
    <polygon class="st2" points="16.5 46.9 17.6 46.9 17.6 46.9 21 46.9 21 46.9 17.6 46.9 17.6 46.9 16.5 46.9 16.5 46.9"/>
    <rect class="st2" x="16.3" y="43.4" width="1.2" height="0"/>
    <rect class="st2" x="10.7" y="43.4" width="1.6" height="0"/>
    <rect class="st2" x="7.2" y="43.4" width="0" height="0"/>
    <rect class="st2" x="21" y="43.4" width="3.4" height="0"/>
    <path class="st2" d="M40.7,86.2c3.4-2.6,8.1-7.2,10.9-14.6,3.1-8.5,2.7-19.6,2.2-31.4-.2-4-.3-8.2-.3-12.4h0v-.2s0,0-.1,0c-2.3-.5-14.4-2.9-25.6-2.9h0c-12.7,0-26.8,3-26.9,3h-.2s0,.2,0,.2h0c0,4.1-.1,8.2-.3,12.1-.4,12-.7,23.3,2.6,31.8,4.7,12.1,16.3,19.4,24.8,19.4v-.2h0s0,.2,0,.2c4.1,0,8.9-1.9,13.1-5ZM.4,50.4h3.3s0-3.5,0-3.5h3.5v3.5h-3.4s3.4,0,3.4,0v3.4h-3.5s-3.3,0-3.3,0v-3.5ZM24.5,46.9v3.5h-6.9s-.8,0-.8,0h0s.8,0,.8,0v3.4h-.7c.2,4.2.5,8.3.7,12.4.4,0,.6-.1.9-.3.2-.2.4-.4.6-.6.1-.2.2-.5.6-.6,0,0,0,.1,0,.1v.5h0c-.2.6-.7,1.1-1.1,1.6-.4.4-1,1-1.4,1.2-.2.1-.6.2-.9.4-.1,0-.2.3-.4.5-.2.2-.4.3-.5.5,0,.2,0,.7,0,1,0,1,0,1.9,0,3,.1.2.3.3.4.5.4.8.2,1.7-.2,2.2.2.3.5.6.6,1.1.1,1-.4,1.9-1.4,1.9-.2.5-.5,1.1-1.1,1-.4,0-.7-.5-.7-1-1.2-.2-1.6-2.1-.8-3-.4-.5-.8-1.8-.2-2.3.1-.1.3-.2.3-.3.2-.4,0-1.2,0-1.8v-1.9c-.1-.2-.3-.3-.5-.4-.2-.2-.2-.4-.4-.5-.3-.2-.7-.4-1-.6-.8-.5-1.6-1.1-1.8-2.1,0-.1-.1-.3-.1-.4h0c0,0,0-.2.1-.2.3.1.3.4.5.6.2.2.4.3.9.3.3-2.5.5-5,.8-7.6.2-1.7.3-3.5.5-5.3h-.7v-3.4h0v-3.5h-3.5s-3.5,0-3.5,0v3.5H.4v-3.5h0v-3.5c0,0,3.3,0,3.3,0v3.5h0v-3.5h0s-3.2,0-3.2,0v-3.5c0,0,3.2,0,3.2,0h0s3.5,0,3.5,0h0s3.5,0,3.5,0h0s1.9,0,1.9,0c.1-1.3.1-2.6.3-3.8.1-1.2.5-2.4.7-3.5.2-1.2.4-2.5.6-3.6h.3c.3.6.4,1.3.5,2,.1.7.3,1.4.4,2.1.1.7.3,1.4.4,2.1,0,.8,0,1.6.1,2.4,0,.7,0,1.5.1,2.2h1.5s3.5,0,3.5,0v3.5h0v-3.5h6.7v3.5h-3.3v3.4h-3.4s3.4,0,3.4,0ZM10.7,50.4v3.4h-3.5v-3.4h3.5ZM7.2,50.4v-3.4h3.4v3.4h-3.4ZM24.3,34.1c0,0-.1-.1-.2-.2-.5-.5-1.2-.9-2.1-1,0,.9.5,1.6,1,2.1,0,0,.2.1.2.2-.4.2-.9.4-1.5.4s-1.1-.2-1.5-.4c0,0,.1-.1.2-.2.5-.5.9-1.2,1-2.1-.9,0-1.6.5-2.1,1,0,0-.1.2-.2.2-.2-.4-.4-.9-.4-1.5s.2-1.1.4-1.5c0,0,.1.1.2.2.5.5,1.2.9,2.1,1,0-.9-.5-1.6-1-2.1,0,0-.2-.1-.2-.2.4-.2.9-.4,1.4-.4.6,0,1.2.2,1.6.4,0,0-.1.1-.2.2-.5.5-.9,1.2-1,2.1.9,0,1.6-.5,2.1-1,0,0,.1-.2.2-.2.2.4.4.9.4,1.5s-.2,1.1-.4,1.5ZM9.3,34.2c0,0-.1-.1-.2-.2-.5-.5-1.2-.9-2.1-1,0,.9.5,1.6,1,2.1,0,0,.2.1.2.2-.4.2-.9.4-1.5.4s-1.1-.2-1.5-.4c0,0,.1-.1.2-.2.5-.5.9-1.2,1-2.1-.9,0-1.6.5-2.1,1,0,0-.1.2-.2.2-.2-.4-.4-.9-.4-1.5s.2-1.1.4-1.5c0,0,.1.1.2.2.5.5,1.2.9,2.1,1,0-.9-.5-1.6-1-2.1,0,0-.2-.1-.2-.2.4-.2.9-.4,1.4-.4.6,0,1.2.2,1.6.4,0,0-.1.1-.2.2-.5.5-.9,1.2-1,2.1.9,0,1.6-.5,2.1-1,0,0,.1-.2.2-.2.2.4.4.9.4,1.5s-.2,1.1-.4,1.5ZM27.8,53.9h-6.7s-3.4,0-3.4,0v-3.4h3.4s3.4,0,3.4,0h0s0,0,0,0v-3.5h0v-3.4h3.3v-18.4c10.9,0,22.6,2.3,25.2,2.8,0,4.1.2,8.3.3,12.3.5,11.8.9,22.9-2.2,31.2-4.4,12-15.3,19.2-23.4,19.4v-36.9Z"/>
    <polygon class="st0" points="3.8 39.9 3.8 39.9 .7 39.9 .6 43.4 3.8 43.4 3.8 39.9 3.8 39.9"/>
    <path class="st0" d="M12.2,43.8c0-.1,0-.2,0-.3h-1.6s0,0,0,0v-3.5h0s-3.5,0-3.5,0h0s0,0,0,0v3.5h0s3.5,0,3.5,0v3.4h0s1.3,0,1.3,0c0-1,.2-2.1.3-3.1Z"/>
    <path class="st0" d="M16.5,46.9c0,1.1.1,2.3.2,3.4h.8v-3.4s-1,0-1,0Z"/>
    <polygon class="st0" points="7.2 43.4 7.2 43.4 7.2 43.4 3.8 43.4 3.8 43.4 3.7 43.4 3.7 46.9 3.7 46.9 .5 46.9 .5 46.9 .5 46.9 .4 50.4 3.7 50.4 3.7 46.9 7.2 46.9 7.2 46.9 7.2 46.9 7.2 43.4"/>
    <path class="st0" d="M21,43.4h0s3.4,0,3.4,0v-3.5h-3.4v3.5h0s-3.5,0-3.5,0v-3.5h0s-1.5,0-1.5,0c0,1.2.1,2.3.2,3.5h1.2s0,0,0,0v3.4h0s3.5,0,3.5,0h0s0,0,0,0v3.5h3.4v-3.5h-3.4s0-3.5,0-3.5Z"/>
    <rect class="st0" x="7.2" y="46.9" width="3.4" height="3.4"/>
    <polygon class="st0" points="21 50.4 17.6 50.4 17.6 53.9 21 53.9 21 53.9 21 53.9 21 50.4"/>
    <path class="st0" d="M10.7,50.4v3.4h.7c.1-1.1.2-2.3.3-3.4h-1Z"/>
    <polygon class="st0" points="3.8 53.8 3.8 53.9 7.2 53.9 7.2 50.4 3.8 50.4 3.8 53.8 3.8 53.8"/>
    <polygon class="st1" points="7.2 43.4 7.2 43.4 7.2 43.4 7.2 39.9 7.2 39.9 3.8 39.9 3.8 39.9 3.8 43.4 3.8 43.4 3.8 43.4 7.2 43.4"/>
    <path class="st1" d="M10.7,43.4h1.6c0-1.1.2-2.3.3-3.4h0c0,0-1.9,0-1.9,0,0,0,0,3.5,0,3.5Z"/>
    <polygon class="st1" points="17.6 43.4 21 43.4 21 43.4 21 39.9 17.6 39.9 17.6 39.9 17.6 43.4"/>
    <polygon class="st1" points="24.5 43.4 27.8 43.4 27.8 39.9 24.5 39.9 24.5 39.9 24.5 43.4 24.5 43.4"/>
    <rect class="st1" x="21" y="43.4" width="3.4" height="3.4"/>
    <polygon class="st1" points="27.9 50.4 27.9 50.4 27.9 46.9 27.8 46.9 24.5 46.9 24.5 46.9 24.5 50.4 27.9 50.4"/>
    <polygon class="st1" points="24.5 50.4 21 50.4 21 50.4 21 53.9 21 53.9 24.4 53.9 24.5 53.9 24.5 50.4 24.5 50.4"/>
    <polygon class="st1" points="3.7 46.9 3.7 46.9 3.7 43.4 .6 43.4 .5 46.9 .5 46.9 3.7 46.9"/>
    <polygon class="st1" points="10.7 43.4 7.2 43.4 7.2 43.4 7.2 43.4 7.2 46.9 7.2 46.9 10.7 46.9 10.7 46.9 10.7 43.4"/>
    <path class="st1" d="M12,46.9h-1.3v3.5h1c.1-1.2.2-2.3.3-3.5Z"/>
    <path class="st1" d="M16.5,46.9h1v-3.4h-1.2c0,1.1.1,2.3.2,3.4Z"/>
    <polygon class="st1" points="21 46.9 17.6 46.9 17.6 46.9 17.6 50.4 17.6 50.4 21 50.4 21 50.4 21 46.9 21 46.9"/>
    <path class="st1" d="M17.6,53.8v-3.4h-.8c0,1.1.1,2.3.2,3.4,0,0,.7,0,.7,0Z"/>
    <rect class="st1" x="7.2" y="50.4" width="3.5" height="3.4"/>
    <polygon class="st1" points="3.8 53.8 3.8 53.8 3.8 50.4 3.8 50.4 7.2 50.4 7.2 46.9 3.8 46.9 3.8 50.4 .4 50.4 .5 53.8 3.8 53.8"/>
    <polygon class="st5" points="39.3 44.9 42.6 45.9 42.6 45.9 47.9 42.1 39.3 44.9"/>
    <polygon class="st1" points="48 41.9 41.3 41.9 39.3 44.8 48 41.9"/>
    <polygon class="st1" points="48.1 41.9 48.1 41.9 48.1 41.9 48.1 41.9"/>
    <polygon class="st1" points="44.6 52.4 44.6 52.4 44.7 52.4 44.7 52.4 44.6 52.4"/>
    <polygon class="st1" points="42.6 46 42.6 46.1 39.4 45 44.6 52.3 42.6 46"/>
    <polygon class="st5" points="39.2 45 39.2 45 39.2 48.4 44.5 52.3 39.2 45"/>
    <polygon class="st5" points="39.2 35.5 39.2 44.7 41.3 41.9 39.2 35.5 39.2 35.5 39.2 35.5"/>
    <polygon class="st5" points="39.1 44.8 39.1 44.8 37 41.9 30.3 41.9 30.3 42 39.1 44.8"/>
    <path class="st1" d="M39.1,35.5h0s0,0,0,0Z"/>
    <polygon class="st1" points="37.1 41.9 39.1 44.6 39.1 35.8 37.1 41.9"/>
    <polygon class="st1" points="39 44.9 30.6 42.2 35.8 45.9 39 44.9"/>
    <polygon class="st5" points="39 45 35.7 46.1 33.8 52.1 39 45"/>
    <polygon class="st1" points="39.1 48.5 39.1 45 33.7 52.4 39.1 48.5"/>
    <path class="st2" d="M30,42h.2c0,0,5.4,4,5.4,4h0s-2.1,6.4-2.1,6.4v.2s0,.2,0,.2l5.7-4.2,5.4,3.9h.2c0,.1.1.2.1.2l-2.2-6.7h0s5.4-4,5.4-4h.1c0-.1.1-.2.1-.2h-7.1l-2.2-6.7v.4c-.1,0-2.2,6.3-2.2,6.3h-7.1.1c0,.1,0,.2,0,.2ZM37,41.9l2.1,2.9h0s-8.8-2.9-8.8-2.9h0s6.7,0,6.7,0ZM48,41.9l-8.7,2.9,2.1-2.9h6.6ZM39.2,48.4v-3.5s0,0,0,0l5.3,7.3-5.3-3.8ZM35.7,46.1l3.2-1.1-5.2,7.1,2-6.1ZM42.6,46.1h0s2,6.2,2,6.2l-5.3-7.3,3.2,1ZM42.6,45.9l-3.3-1.1,8.6-2.8-5.3,3.9s0,0,0,0ZM39,44.9l-3.2,1-5.2-3.8,8.4,2.7ZM39.1,45v3.4s-5.4,3.9-5.4,3.9c0,0,5.4-7.4,5.4-7.4ZM44.6,52.4h0s0,0,0,0h0c0,0,0,0,0,0ZM48.1,41.9h0s0,0,0,0h0ZM41.3,41.9l-2.1,2.8v-9.2s0,0,0,0h0c0,0,2.1,6.4,2.1,6.4ZM39.1,44.6l-2-2.8,2-6.1s0,8.8,0,8.8ZM39.1,35.5h0s0,0,0,0Z"/>
    <polygon class="st1" points="36 76 39 64.9 42.1 75.9 46.7 71.9 43.1 59.2 39 62.9 34.7 59.4 31.2 72.3 36 76"/>
    <path class="st4" d="M16.5,46.9c0-1.2-.1-2.3-.2-3.4h0c0-1.2-.1-2.4-.2-3.5,0-.7,0-1.5-.1-2.2,0-.8,0-1.6-.1-2.4,0-.7-.3-1.4-.4-2.1-.1-.7-.3-1.4-.4-2.1-.1-.7-.2-1.4-.5-2h-.3c-.2,1.1-.4,2.4-.6,3.6-.2,1.2-.5,2.4-.7,3.5-.2,1.2-.2,2.5-.3,3.8h0c0,1.2-.2,2.4-.3,3.5h0c0,.1,0,.2,0,.3,0,1-.2,2.1-.3,3.1,0,1.2-.2,2.3-.3,3.5-.1,1.1-.2,2.3-.3,3.4-.2,1.8-.3,3.5-.5,5.3-.2,2.6-.4,5.1-.8,7.6-.4,0-.7,0-.9-.3-.2-.2-.2-.5-.5-.6,0,0-.1.2-.1.2h0c0,.1,0,.3.1.4.3.9,1.1,1.6,1.8,2.1.3.2.7.3,1,.6.2.1.2.4.4.5.2.2.4.2.5.4v1.9c0,.7.1,1.4,0,1.8,0,.2-.2.2-.3.3-.6.6-.2,1.9.2,2.3-.8.9-.4,2.8.8,3,0,.6.3,1,.7,1,.6,0,.9-.6,1.1-1,1,0,1.6-.9,1.4-1.9,0-.4-.4-.7-.6-1.1.4-.5.6-1.4.2-2.2-.1-.2-.3-.3-.4-.5,0-1,0-1.9,0-3s0-.7,0-1c0-.2.3-.3.5-.5.2-.2.3-.4.4-.5.2-.2.6-.2.9-.4.5-.3,1-.8,1.4-1.2.4-.5.9-1,1.1-1.5h0v-.6c0,0,0,0,0-.1-.3,0-.4.4-.6.6-.2.2-.4.4-.6.6-.3.1-.5.3-.9.3-.3-4.1-.5-8.2-.7-12.4,0-1.1-.1-2.3-.2-3.4h0c0-1.2-.1-2.3-.2-3.5,0,0,0,0,0,0ZM13,39c.1-1.4.2-2.9.4-4.2.2-1.3.5-2.6.8-3.9,0,4.9-.1,9.9-.1,15s-.1,5-.1,7.5,0,2.6,0,3.8c0,1.3,0,2.5,0,3.7,0,.7-.3,1.3-.4,2-.2.6-.4,1.2-.6,1.8,0,0,0,.1,0,.1h-2.1c.8-8.5,1.4-17.2,2.3-25.8ZM12.4,65.5c-.3,0-.8,0-1.2,0-.2,0-.5,0-.5-.2,0-.2.3,0,.4,0,.4,0,1,0,1.4,0,0,.2,0,.2,0,.3ZM10.6,65.8c.5,0,1,0,1.4,0-.4.4-.8.7-1.5.9-.1-.3,0-.6,0-.9ZM15.9,74.8c.1.7-.3,1.1-.7,1.5.1.4.6.5.8.9.3.8-.4,1.8-1.3,1.8-.1.5-.4,1.2-1.1.9,0-.3,0-.5-.1-.7-.1-.2-.4-.2-.7-.3-.3-.5-.7-1.2-.3-1.8.1-.2.5-.3.5-.5,0-.2-.2-.2-.3-.4-.3-.4-.5-1.1-.1-1.7.2,0,.5-.2.6-.4,0-.2-.2-.2-.2-.3v-3.6c.3,0,.6,0,.9,0v3c.8.6.7-.8.7-1.8,0-.5,0-.9,0-1.2.3,0,.5,0,.7-.2.1.8.1,1.6.1,2.7s0,1,0,1.3c0,.3.6.6.7,1ZM14.1,72.7c-.1-.3-.1-1.1-.1-1.7,0-.2,0-.5,0-.6.2,0,0,.3,0,.5,0,.5,0,1.2,0,1.8ZM12.3,69.1c1.2.1,2.5.1,3.4-.2-.5.9-2.7,1-3.4.2ZM13.9,68.8c-.8,0-1.5-.1-2.1-.3.4-.2.9-.1,1.3-.3.4-.1.7-.5,1-.6.7.4,1.4.6,2.5.6-.7.3-1.6.6-2.6.6ZM18.5,66.6c.2,0-.1.2-.3.3-.6.5-1.3,1.1-2.5,1-.8,0-1.2-.3-1.7-.7-.5.2-.9.7-1.5.8-1.1.2-2.1-.3-2.7-.9,1.7,0,2.6-1.1,3.2-2.2.5-.9.7-2.1.9-3.1.7,2.3,1.3,5.2,4.5,4.7ZM17.3,66.3h0c-.2,0-.4-.2-.6-.3-.2,0-.4-.1-.5-.3,0-.2.3,0,.5,0,.2,0,.4,0,.6,0,0,.3,0,.4,0,.7ZM16.1,65.4c-.2,0-.4,0-.5-.2.5,0,1.2-.1,1.7,0,0,.2-.8.3-1.2.3ZM17.2,64.6s0,.1,0,.1c-.7,0-1.2,0-1.9,0-.4-1.4-1.2-2.5-1.2-4.2,0-2.4.1-4.9.1-7.4s0-4.9,0-7.4,0-5,0-7.5c0-2.5,0-4.9.2-7.3.2,0,0,.3.1.4.2.9.5,2,.7,3,0,.6,0,1.3.1,1.9.5,9.3,1.2,19.1,1.7,28.4Z"/>
    <path class="st0" d="M14,61.8c-.3,1-.4,2.2-.9,3.1-.6,1.1-1.5,2.2-3.2,2.2.6.6,1.6,1.1,2.7.9.6-.1,1-.6,1.5-.8.5.4.9.6,1.7.7,1.2,0,2-.5,2.5-1,.1,0,.4-.2.3-.3-3.2.5-3.7-2.4-4.5-4.7Z"/>
    <path class="st1" d="M10.5,66.7c.7-.1,1.1-.5,1.5-.9-.5,0-.9,0-1.4,0,0,.3-.2.7,0,.9Z"/>
    <path class="st0" d="M11.1,65.1c-.1,0-.4,0-.4,0,0,.3.3.2.5.2.4,0,1,0,1.2,0,0-.1.1-.2,0-.3-.4,0-.9,0-1.4,0Z"/>
    <path class="st1" d="M12.8,64.8s0,0,0-.1c.2-.6.4-1.2.6-1.8.2-.6.4-1.3.4-2,.1-1.2,0-2.5,0-3.7,0-1.3,0-2.6,0-3.8,0-2.5.1-5,.1-7.5,0-5.1.2-10.1.1-15-.3,1.3-.6,2.5-.8,3.9-.2,1.4-.3,2.8-.4,4.2-.8,8.6-1.5,17.3-2.3,25.8,0,0,2.1,0,2.1,0Z"/>
    <path class="st0" d="M15.2,72.4c0-1,0-1.8-.1-2.7-.2.1-.4.2-.7.2,0,.3,0,.7,0,1.2,0,1,.2,2.4-.7,1.8v-3c-.3,0-.6,0-.9,0v3.6c0,.2.2.1.2.3-.1.2-.4.3-.6.4-.4.6-.2,1.3.1,1.7.2.2.4.2.3.4,0,.2-.4.3-.5.5-.4.6,0,1.3.3,1.8.2,0,.6,0,.7.3,0,.2,0,.5.1.7.8.3,1-.3,1.1-.9,1,0,1.6-.9,1.3-1.8-.1-.4-.7-.5-.8-.9.4-.4.8-.8.7-1.5,0-.4-.6-.7-.7-1,0-.4,0-.9,0-1.3Z"/>
    <path class="st1" d="M14.1,67.7c-.3.1-.6.5-1,.6-.4.1-.9,0-1.3.3.6.2,1.4.3,2.1.3,1,0,1.9-.3,2.6-.6-1.1,0-1.8-.2-2.5-.6Z"/>
    <path class="st0" d="M12.3,69.1c.7.7,3,.7,3.4-.2-1,.3-2.2.3-3.4.2Z"/>
    <path class="st1" d="M14.1,70.5c-.2.1,0,.4,0,.6,0,.6,0,1.4.1,1.7,0-.6,0-1.2,0-1.8,0-.2.1-.4,0-.5Z"/>
    <path class="st1" d="M15.5,36.2c0-.6,0-1.3-.1-1.9-.1-1-.5-2.1-.7-3,0-.1,0-.4-.1-.4-.1,2.4-.1,4.8-.2,7.3,0,2.5,0,5,0,7.5s0,5,0,7.4-.2,5-.1,7.4c0,1.6.8,2.8,1.2,4.2.6,0,1.2,0,1.9,0,0,0,0,0,0-.1-.5-9.3-1.2-19.1-1.7-28.4Z"/>
    <path class="st0" d="M15.6,65.1c0,.2.3.2.5.2.4,0,1.2,0,1.2-.3-.5-.1-1.2,0-1.7,0Z"/>
    <path class="st1" d="M16.7,65.7c-.2,0-.5,0-.5,0,.1.2.3.2.5.3.2,0,.4.2.6.3h0c0-.2,0-.4,0-.6-.2,0-.4,0-.6,0Z"/>
    <path class="st1" d="M24.1,31.3c-.5.5-1.2.9-2.1,1,.1-.9.5-1.6,1-2.1,0,0,.2-.1.2-.2-.4-.2-1-.4-1.6-.4-.6,0-1.1.2-1.4.4,0,0,.1.1.2.2.5.5.9,1.2,1,2.1-.9-.1-1.6-.5-2.1-1,0,0-.1-.2-.2-.2-.2.4-.4.9-.4,1.5s.2,1.1.4,1.5c0,0,.1-.1.2-.2.5-.5,1.2-.9,2.1-1-.1.9-.5,1.6-1,2.1,0,0-.2.1-.2.2.4.2.9.4,1.5.4s1.1-.2,1.5-.4c0,0-.1-.1-.2-.2-.5-.5-.9-1.2-1-2.1.9.1,1.6.5,2.1,1,0,0,.1.2.2.2.2-.4.4-.9.4-1.5s-.2-1.1-.4-1.5c0,0-.1.1-.2.2Z"/>
    <path class="st1" d="M9.1,31.3c-.5.5-1.2.9-2.1,1,.1-.9.5-1.6,1-2.1,0,0,.2-.1.2-.2-.4-.2-1-.4-1.6-.4-.6,0-1.1.2-1.4.4,0,0,.1.1.2.2.5.5.9,1.2,1,2.1-.9-.1-1.6-.5-2.1-1,0,0-.1-.2-.2-.2-.2.4-.4.9-.4,1.5s.2,1.1.4,1.5c0,0,.1-.1.2-.2.5-.5,1.2-.9,2.1-1-.1.9-.5,1.6-1,2.1,0,0-.2.1-.2.2.4.2.9.4,1.5.4s1.1-.2,1.5-.4c0,0-.1-.1-.2-.2-.5-.5-.9-1.2-1-2.1.9.1,1.6.5,2.1,1,0,0,.1.2.2.2.2-.4.4-.9.4-1.5s-.2-1.1-.4-1.5c0,0-.1.1-.2.2Z"/>
    <path class="st0" d="M24.9,13.4v1.7h1.6c-.5,2.3-2,5.7-5.9,9.3,0,0,7-.8,14,0-3.8-3.7-5.3-7.1-5.8-9.3h1.7v-1.7c2.3.5,5.7,2,9.4,5.9V5.3c-3.7,3.8-7.1,5.3-9.4,5.8v-1.7h-1.7c.5-2.3,2-5.7,5.9-9.4h-14c3.9,3.7,5.3,7.1,5.8,9.4h-1.7v1.7c-2.3-.5-5.7-2-9.4-5.9v14c3.7-3.8,7.1-5.3,9.4-5.8ZM25.4,14.6v-1.3c.6-.1,1.1-.2,1.5-.2,0,.4,0,.9-.2,1.5h-1.3ZM30.2,14.6h-1.3c-.1-.6-.2-1.1-.2-1.5.4,0,.9,0,1.5.2,0,0,0,1.3,0,1.3ZM30.2,9.9v1.3c-.6.1-1.1.2-1.5.2,0-.4,0-.9.2-1.5h1.3ZM25.4,9.9h1.3c.1.6.2,1.1.2,1.5-.4,0-.9,0-1.5-.2v-1.3Z"/>
  </g>
</svg>