<?xml version="1.0" encoding="UTF-8"?>
<svg id="Layer_1" data-name="Layer 1" xmlns="http://www.w3.org/2000/svg" viewBox="0 0 91.698907 91.224">
  <defs>
    <style>
      .cls-1 {
        fill: #58595b;
      }

      .cls-2 {
        fill: #d1d3d4;
      }

      .cls-3 {
        fill: #231f20;
      }

      .cls-4 {
        stroke: #fff;
        stroke-linecap: round;
        stroke-linejoin: round;
      }

      .cls-4, .cls-5 {
        fill: #fff;
      }

      .cls-6 {
        fill: #939598;
      }

      .cls-7 {
        fill: #a7a9ac;
      }
    </style>
  </defs>
  <polyline class="cls-4" points="79.941398 15.2618 79.941907 15.2618 79.941398 15.2618"/>
  <g>
    <rect class="cls-5" x="20.499249" y="11.761675" width=".00075" height=".00075"/>
    <path class="cls-5" d="M20.499999,11.7618h-.0005.0005M20.499499,11.7618v.001-.001"/>
  </g>
  <g>
    <path class="cls-1" d="M35.669599,78.2689c.0444-.067.0792-.164.1027-.244l.1313-.4437c.0164-.0553.0291-.1188.0342-.1774.0109-.265-.1033-.4795-.34-.5495-.3155-.0936-.6546.1414-.816893.6896-.133.4498-.034.861.320893.9659.2255.0668.4476-.0417.5678-.2409Z"/>
    <path class="cls-1" d="M16.0568,31.487c-.3685-.1757-.6831-.014-.8847.409-.1066.2236-.155.3563-.1685.4315l1.1181.5329.1729-.3626c.2188-.4595.1188-.8407-.2378-1.0108Z"/>
    <path class="cls-1" d="M17.5434,27.7596l-.0073.0111c.1861.204.4336.4485.6105.6541l.6499.7521.551-.8313-.953-.2948c-.2675-.0808-.5909-.199-.8511-.2912Z"/>
    <path class="cls-1" d="M47.606699,77.9516c-.374792.0326-.4944.4235-.4955.6816l1.0541-.0915c-.0205-.2369-.1487-.6257-.5586-.5901Z"/>
    <path class="cls-1" d="M41.603399,15.8888c.6833-.093.9863-.7964.8679-1.6655-.1102-.8094-.5823-1.4481-1.279-1.3531-.6901.0938-.9996.7984-.8812,1.6676.1202.8822.6155,1.4433,1.2923,1.351Z"/>
    <path class="cls-1" d="M44.559199,77.0248c-.1762-.0004-.2996.012-.364292.0313l-.004,1.2786c.076292.0193.164492.0262.299792.0266.4761.0015.7707-.2614.7719-.6982.001308-.3984-.250692-.637-.7034-.6383Z"/>
    <path class="cls-1" d="M77.858798,43.5059c-.8892.0499-1.4875.4992-1.4494,1.181.0386.6885.7158,1.0463,1.5914.9972.8155-.0457,1.4894-.4657,1.45-1.1675-.0388-.6952-.7164-1.0597-1.592-1.0107Z"/>
    <path class="cls-1" d="M76.994298,38.4276c-.87.1891-1.3903.727-1.2452,1.3943.1463.6736.8713.9204,1.7282.7341.7979-.1734,1.3974-.694,1.2479-1.3809-.1475-.6803-.874-.9335-1.7309-.7475Z"/>
    <path class="cls-1" d="M28.685299,19.333l.8529-.517-.7367-.6728c-.207593-.1875-.4499-.4322-.6459-.6265l-.0115.0071c.0816.2637.2014.5904.273807.8519l.267393.9573Z"/>
    <path class="cls-1" d="M71.854098,66.0816l-.2727-.2038c-.281492.377-.4018.7421-.1033.9648.2007.1502.3899.1006.5095-.0595.130308-.1743.1141-.4212-.0101-.5875-.0343-.0401-.0771-.0794-.1234-.114Z"/>
    <path class="cls-1" d="M66.329198,71.8986l-.2128-.2657c-.367.2937-.5754.6167-.3427.9079.1565.1956.3523.1954.508208.0706.169692-.136.216392-.379.137792-.5713-.022792-.0473-.0543-.0963-.0905-.1415Z"/>
    <path class="cls-1" d="M27.882399,73.3517c-.2028-.1301-.4984-.0834-.7007.1227-.0411.0423-.0774.0878-.1121.1418l-.2501.3891c-.0348.054-.061.1059-.0788.1556-.0896.248-.0277.5319.19.6718.3214.2065.693.0634.9987-.4123.264-.4107.3042-.8429-.047-1.0687Z"/>
    <path class="cls-1" d="M20.678299,65.8363c.3308-.2223.387-.5647.1345-.9401-.0984-.1464-.177893-.2415-.23-.2845l-1.0613.7131c.0266.0741.070407.1508.1458.2631.2657.395.6484.4922,1.011.2484Z"/>
    <path class="cls-1" d="M58.323399,88.9746c1.0254-.9799,2.0902-2.1701,3.093-3.1057.6701-.6238,1.3096-1.1366,1.9171-1.4005.4307-.1856.9657-.301,1.5681-.3821.6021-.0807,1.271308-.1253,1.964308-.1603,1.385092-.0695,2.867492-.1005,4.072392-.2888.8029-.1242,1.48-.3226,1.9109-.6232.321708-.2219.657708-.6186.9851-1.1276.3279-.5086.649608-1.1278.9611-1.7929.6234-1.3306,1.206-2.8431,1.7449-4.0452.361-.8025.6961-1.4638,1.0372-1.8633.2591-.3008.6491-.591,1.124409-.8922.475291-.3004,1.036091-.6087,1.632291-.9277,1.1921-.6375,2.526709-1.3191,3.5793-2.0431.7017-.4818,1.2755-.9843,1.5973-1.4843.232-.3578.3856-.8482.4769-1.4255.0916-.5769.1224-1.2389.1224-1.9381.0002-1.3128-.1081-2.7548-.1083-4.036.0018-1.0846.0737-2.0526.3797-2.7575.3888-.8823,1.1769-1.8616,2.0112-2.8889.834209-1.0252,1.715209-2.0943,2.2846-3.1099.380609-.6768.6188-1.327.6292-1.9125.000409-.0199.0005-.0398.0005-.0597.0006-.5983-.1722-1.2824-.4425-2.025-.2698-.7428-.6351-1.544-1.008591-2.3832-.746309-1.6791-1.529209-3.5104-1.629309-5.3755-.0098-.1834-.0144-.3653-.0144-.5458.0002-1.4605.301-2.8268.5974-4.0753.2974-1.2479.5878-2.3798.5867-3.3562,0-.3883-.045-.7512-.15-1.0903-.1208-.3922-.3896-.8296-.7601-1.2856-.37-.4564-.8394-.9322-1.3529-1.413-1.0278-.9625-2.2311-1.944-3.1809-2.8644-.6332-.6148-1.1554-1.1993-1.4416-1.7574l-.0002-.0001c-.4175-.8244-.6472-1.9979-.8848-3.2689-.235891-1.2698-.474891-2.6344-.8796-3.8114-.2694-.7848-.612291-1.4842-1.0669-2.0182l-.0002-.0001c-.6701-.7928-1.7897-1.2885-3.0409-1.6584-1.2502-.3714-2.6222-.6202-3.7897-.9623-.778592-.2291-1.4688-.4975-1.9787-.892-.38-.2959-.736892-.714-1.0941-1.2044-.3567-.4904-.712792-1.0538-1.0807-1.6404-.7354-1.1731-1.5205-2.4395-2.4269-3.3865-.604192-.6319-1.259-1.1188-1.9813-1.3551-.6295-.206-1.3224-.2852-2.0453-.2851-1.0809-.0002-2.2269.177-3.3212.3566-1.0948.1792-2.1369.3614-3.027392.3619-.404508-.0001-.779-.0377-1.114808-.1357-.4257-.1249-.8978-.3539-1.4094-.6421-.5115-.2883-1.0614-.6365-1.6329-1.0015-1.1426-.7299-2.3735-1.5272-3.5315-2.0426-.7715-.3442-1.5091-.5605-2.1551-.5597-.4846-.0004-1.0414.1212-1.6365.3276-.5951.2062-1.2283.4961-1.8701.8252-1.2842.6584-2.601,1.473-3.742692,2.0864-.762508.4088-1.443608.7299-2.009708.8551-.2872.0632-.6128.0875-.9702.0877-.8445-.0004-1.8699-.1376-2.9482-.273-1.0776-.1356-2.206893-.2699-3.2433-.2698-.9662-.0006-1.8493.1182-2.5301.4445-.9263.44-1.8792,1.3985-2.770493,2.488-.893,1.0893-1.729,2.3053-2.460707,3.2607-.4896.6375-.927293,1.1586-1.3311,1.4615h.0001l-.0002.0001.0001-.0001c-.305193.2274-.7467.4416-1.2815.6633-.5344.221-1.1605.4464-1.823.6803-1.3244.467-2.7955.9687-3.9451,1.5208-.7662.3662-1.3877.7601-1.718,1.1517-.2514.2945-.482.7346-.6878,1.2673-.2064.5327-.3899,1.1574-.56,1.8233-.3406,1.3322-.627793,2.8278-.9573,4.1042-.220493.8516-.4576,1.6049-.7534,2.1598-.3934.7331-1.1696,1.5589-2.0573,2.4188-.8875.858-1.8867,1.7433-2.7159,2.5575-.5526.5421-1.0298,1.0538-1.344,1.495-.1797.2517-.3051.4805-.3642.6687l.0009-.0027-.001.0029c-.0688.215-.1025.5202-.1021.8869-.0009,1.0335.2592,2.5446.522,4.1031.2623,1.5606.527,3.1708.527507,4.4452,0,.2125-.007407.416-.023707.6089-.1207,1.394-.849,2.8574-1.5338,4.3076-.6878,1.4479-1.329493,2.8811-1.3266,4.1478,0,.137.0073.2719.0226.4051.0742.65.3424,1.3206.723507,2.0034.380693.6827.872493,1.3759,1.382793,2.0739,1.0194,1.3978,2.1166,2.807,2.5331,4.2498.3076,1.0763.3433,2.3451.3586,3.6525.0144,1.3071.006507,2.6528.207,3.8669.1333.8094.358507,1.5587.737507,2.2026.561093.959,1.63,1.7902,2.829493,2.5248,1.199.7361,2.5226,1.378,3.5897,1.9936.7117.4119,1.3102.808,1.691807,1.237.281393.3184.551493.7497.824193,1.2547.2722.5047.5456,1.0832.8241,1.6914.556707,1.2162,1.1352,2.5531,1.7516,3.6449.41.7277.8389,1.3454,1.274,1.7407.3118.2847.785.5101,1.3637.6806.5785.1713,1.2598.2893,1.9836.3764,1.4486.1745,3.0652.2252,4.4004.3551.8915.0879,1.655.2057,2.1863.4386.3865.1707.8455.4473,1.356.7902.51.3427,1.0698.7514,1.6474,1.1843,1.154707.8658,2.3818,1.8288,3.4099,2.5475.6837.479,1.2845.849,1.6914,1.0034.131408.0507.3058.0775.5143.0773.363108.0004.826-.0805,1.3416-.2164.516-.1356,1.0859-.3251,1.6726-.5363,1.1741-.4227,2.4136-.9324,3.4471-1.2755.691-.2281,1.2843-.3858,1.7383-.3875.3443.001.7832.0957,1.3042.2434.5199.1483,1.1177.3517,1.7562.5767,1.2762.4504,2.7159.9885,3.9929,1.3446.8504.2376,1.6301.393,2.2248.3922.1293,0,.2497-.007.3595-.0218.3852-.0507.8297-.2596,1.3031-.5849.4737-.3243.975808-.761,1.4883-1.2508ZM45.421499,85.5522c-21.679899,0-39.317799-17.6379-39.317799-39.3178S23.741599,6.9165,45.421499,6.9165s39.317899,17.638,39.317899,39.3179-17.6379,39.3178-39.317899,39.3178Z"/>
    <path class="cls-1" d="M83.955598,46.2344c0-21.2478-17.2864-38.5342-38.534099-38.5342S6.8874,24.9866,6.8874,46.2344s17.2863,38.534,38.534099,38.534,38.534099-17.2862,38.534099-38.534ZM34.952999,69.2053c-.0699.1579-.258.2803-.4413.3337-.4035.1179-.8547.0006-1.1623-.1079-.3134-.1104-.5947-.253-.8716-.3764-.6096-.2719-1.234-.4864-1.872893-.6136-.746707-.1485-1.606-.1575-2.077.1936-.237707.1768-.371407.4508-.419907.8291-.0218.1697-.0115.3536.0108.5698.0134.1324.103107.4736-.0108.5276-.099093.0476-.2555-.1372-.3338-.2149-.3026-.3031-.5977-.6315-.7532-.9797,0-.1098-.0743-.1831-.0743-.2931,0-.098.0743-.2333.0743-.3313.0807-.255.259907-.4898.3441-.7424.0862-.2585.1254-.5713.0862-.9255-.0322-.2947-.1069-.5983-.1719-.8612-.0708-.2863-.2322-.6983-.1079-1.0008.0451-.109.1437-.1986.226407-.2585.165393-.12.391593-.2036.602593-.2902.0868-.036.1766-.0722.2676-.1062-4.8949-4.5854-7.9591-11.1026-7.9591-18.323,0-13.847,11.2654-25.1125,25.112499-25.1125s25.112499,11.2655,25.112499,25.1125c0,7.1881-3.0365,13.6794-7.893,18.2613.2775.0835.5345.1864.769.2966.2195.1035.4373.212.5276.42.0945.2174.0277.4977-.0431.7853-.061.2491-.1343.5409-.172.7428-.1048.5587-.031592,1.1605.1615,1.5606.111908.2327.2164.4175.2476.6676.0352.2851-.0589.504-.194.6997-.188692.2729-.4191.5052-.6561.721-.0795.0718-.1449.1977-.280592.1828-.103908-.1684-.022108-.3556,0-.5165.088292-.6295-.049908-1.1568-.408508-1.4209-.3693-.2713-.9626-.3471-1.5391-.2688-.1872.0252-.3778.0377-.5595.0752-.6271.1293-1.2975.3769-1.8731.6239-.2732.1179-.5417.2629-.8716.377-.3059.1054-.7378.1931-1.087.1075-.1594-.0386-.3526-.1421-.4309-.2472-.0614-.083-.0825-.2166-.0978-.3582-3.2509,1.5398-6.8822,2.4027-10.7119,2.4027-3.717,0-7.2474-.8126-10.4245-2.2682-.0123.0446-.0265.0873-.044.1267ZM22.766299,66.842c-.2098.1695-.4945.1653-.6829-.0677-.1774-.2193-.1221-.4983.0878-.668.2148-.1738.498-.1609.6791.0631.1812.2239.1271.4943-.084.6726ZM68.388798,66.6013c-.1854.2126-.4697.2065-.6731.0291-.2082-.1816-.2444-.4629-.0551-.6801.1894-.2171.4649-.2106.6771-.0336.203208.1773.248208.4584.0511.6846ZM59.631998,77.2875c-.0165-.035-.0412-.0731-.1007-.13l-2.1886-2.1482.8976-.4253,1.0509,1.2156c.1196.1423.2744.332.3779.4678l.0212-.0099c-.0425-.1721-.0991-.4011-.1416-.5873l-.3362-1.5468.8605-.4077.2803,2.1564c.1648,1.3084.1269,1.8738-.0306,2.2967-.1496.3978-.4003.6376-.5911.7564l-.5275-.6602c.0899-.0711.1927-.1835.279-.317.0893-.1274.1586-.3381.167-.5126.0044-.0593-.0015-.1133-.0181-.1479ZM57.312907,77.4277c-.059208-.1561-.168808-.1972-.519908-.1951-.6383.0072-.9774-.2425-1.1037-.5932-.2087-.553.0635-1.1295.729-1.3806.313608-.1182.6204-.1377.8194-.1098l.0953.685c-.148092-.0266-.421-.0335-.6466.0515-.2034.0769-.2847.2107-.2304.3547.0546.1443.1862.177.563908.1788.584-.0006.902.2091,1.068692.6337.2087.553-.0295,1.1029-.799692,1.3934-.352.1328-.699508.1611-.948308.1174l-.0966-.7049c.1927.044.5547.0379.8021-.0555.253-.0954.3234-.225.266808-.3754ZM53.559299,77.6656l.4923,1.7437-.8601.2428-.5813-2.0591c-.1066-.3773-.2068-.6894-.295-.9582l.747-.2109.1584.4093.0168-.0046c.0574-.23.2526-.5987.7164-.7298.5658-.1597,1.107108.1349,1.3586,1.0255l.5043,1.7869-.8599.2426-.4731-1.6758c-.1099-.3893-.3095-.6201-.6206-.5323-.2378.067-.3285.2863-.3419.4771-.0052.0683.0136.1563.0381.2428ZM50.314099,78.3651l.313,1.7851-.88.1544-.3695-2.1079c-.0679-.3859-.136-.7068-.1965-.9831l.7644-.1341.116.423.017408-.0028c.080192-.2229.311692-.5702.786392-.6535.579-.1016,1.0878.2463,1.247608,1.1575l.320892,1.8292-.8802.1546-.3008-1.7154c-.07-.3987-.2451-.6484-.5635-.5926-.2432.0427-.3557.2518-.388392.4401-.011908.0674-.002308.1569.013192.2455ZM48.034399,79.8237c.3046-.0266.5467-.0928.7792-.2034l.1741.6493c-.2811.1601-.633.2548-1.0195.2885-.972.0844-1.5817-.4818-1.6666-1.4611-.068692-.7939.306308-1.71,1.3019-1.7967.9253-.08,1.3448.6768,1.4119,1.4511.0144.1667.0098.3154.004.3869l-1.8447.1602c.0584.4012.4439.5612.8597.5252ZM46.150199,77.6336c-.0011.424-.1257.7899-.367292,1.0268-.306608.3078-.759708.4542-1.288608.4527-.117392-.0002-.2233-.0071-.3055-.0266l-.0046,1.555-.8875-.0024.0125-4.2733c.2765-.0505.6645-.0881,1.2112-.0863.5524.0015.9458.1184,1.2096.3503.2582.2193.4216.5798.4202,1.0038ZM38.781599,77.6748c-.2313-.0435-.4063.0939-.5029.2588-.0336.0525-.054792.1334-.0677.2029l-.3417,1.8315-.8785-.1642.8366-4.4837.8784.1643-.33,1.7681.0116.0021c.118508-.1215.2541-.2075.4069-.2572.1471-.0509.3171-.0651.4789-.0346.5606.1046.9093.6079.7348,1.5424l-.3358,1.8-.8784-.1642.317108-1.699c.075392-.4043,0-.7058-.329308-.7672ZM35.497299,78.9552c-.236393.1981-.5432.2616-.8587.168-.6819-.2017-.9881-.9488-.7328-1.8114.2879-.9736,1.0394-1.4211,1.7213-1.2195.3775.1116.5614.3603.6275.6548l.0114.0033.1356-.3554.744.2203c-.0698.194-.155692.4429-.288692.893l-.495707,1.6756c-.1715.579-.4189,1.0218-.8238,1.2305-.3826.1948-.8194.1596-1.2251.0394-.366393-.1083-.7202-.3-.9245-.5212l.3806-.6649c.1418.1626.406.3681.7328.465.405707.1199.7849-.0224.9508-.5833l.0565-.1909-.0112-.0033ZM40.633199,79.3383l.9129.0369c-.2654.6297-.6031,1.2709-.9391,1.7374l-.6023-.0088c.250208-.5474.482-1.1936.6285-1.7655ZM32.649999,75.1017l.7115.2786-.1779.5513.0218.0086c.3054-.3773.6986-.4301.9613-.3274.0767.0301.1127.0509.1681.0865l-.3346.8555c-.061-.0375-.1221-.0754-.2151-.1117-.3065-.1202-.5846-.022-.7496.2378-.0342.0555-.0678.1251-.0958.1969l-.5805,1.4839-.8319-.3259.767607-1.9622c.168593-.4307.273093-.7141.355093-.9719ZM61.787998,76.3218l-2.2347-3.9779.7788-.4376,2.2349,3.9779-.779.4376ZM63.869298,75.0924l-2.6025-2.048.810108-.5333,1.126492,1.0046c.2074.1864.3811.3643.5581.5478l.0148-.0097c-.1022-.2404-.1937-.4646-.288-.7256l-.4929-1.4213.7857-.5172.8344,3.2115-.7462.4912ZM67.126098,72.7256l-.238-.2127-.0138.0111c.009608.3132-.135392.6023-.4016.8151-.4543.3635-1.0141.2191-1.3272-.1722-.5095-.6372-.2273-1.3572.5668-1.9925l-.0241-.03c-.108292-.1353-.3211-.2696-.665292.0057-.229408.1837-.404308.4636-.470908.6816l-.5218-.389c.0798-.2201.2868-.5917.6951-.9185.7482-.5987,1.3674-.3044,1.8331.2777l.6862.8581c.1844.2306.3744.4491.510308.5626l-.628808.503ZM69.611498,70.4668l-1.2181-1.2443c-.2832-.2891-.5689-.3961-.8-.1699-.1764.1726-.1512.4083-.0716.5821.0282.0625.087108.1308.1499.1951l1.2674,1.2947-.6385.6245-1.4969-1.5286c-.274-.2802-.5116-.5059-.7179-.6998l.5547-.5424.335.2833.0127-.0124c-.0599-.2288-.065292-.6462.2791-.9831.4202-.4108,1.036608-.4116,1.6839.2493l1.2988,1.3268-.6385.6247ZM70.757098,69.2522l-2.3675-2.0652.5872-.6739,2.3675,2.0655-.5872.6736ZM72.833498,66.6813l-.2837-.1462-.0107.0143c.0882.3006.0204.6169-.1837.8902-.3481.4661-.9263.4672-1.3278.1672-.6538-.4883-.5616-1.256.0471-2.0707l-.030792-.023c-.138908-.1041-.378708-.1804-.642508.173-.1759.2355-.2748.5505-.2846.778l-.6027-.2449c.021808-.2331.128808-.645.441808-1.0641.573492-.7679,1.246792-.6389,1.844-.1927l.880192.6575c.2367.1768.4755.3406.6354.4162l-.482.6452ZM80.138298,48.949l-3.6438-.2979-.1463,1.7885-.8544-.07.2294-2.8028,4.4981.3681-.083,1.0141ZM80.260907,44.4913c.077291,1.3837-.916309,2.197-2.166409,2.2669-1.484.0834-2.4228-.7559-2.497-2.0796-.0744-1.3303.8907-2.1756,2.1808-2.2476,1.3503-.0759,2.4084.7368,2.482609,2.0603ZM79.521198,39.0228c.2943,1.354-.5591,2.3134-1.7824,2.5793-1.4523.3154-2.5112-.3656-2.7926-1.6606-.2828-1.3017.5373-2.2885,1.7996-2.5628,1.3214-.287,2.4939.3489,2.7754,1.6441ZM77.578698,33.0488l-1.6169.628.6085,1.5667,1.6167-.6277.3683.9488-4.2073,1.6338-.3685-.9488,1.7606-.6836-.6085-1.5668-1.7604.6836-.3685-.949,4.2075-1.6336.3685.9486ZM76.169098,29.9423c.2602.4603.3706.8593.3723,1.0661l-.805.209c-.0229-.2177-.0949-.5076-.2761-.8284-.3955-.6993-1.1306-1.0063-2.0049-.512-.7866.4448-1.018492,1.1911-.5734,1.978.154908.2739.3721.5355.5501.6735l-.6269.5235c-.1647-.1144-.469-.4346-.7359-.9068-.7678-1.3579-.312392-2.5382.8065-3.1709,1.3404-.7581,2.6209-.2209,3.2933.968ZM71.127907,27.0792c-.234408-.761-.198608-1.4063.327-1.7993.616692-.4611,1.472192-.2897,2.105792.5579.3086.4129.4487.768.507,1.0588l-.7906.3068c-.0345-.1917-.129-.5308-.3896-.8794-.264592-.354-.5591-.4014-.7415-.2651-.2307.1724-.1842.4473-.0084,1.0515.2411.8147.129,1.3579-.3804,1.7391-.6061.4529-1.4659.3766-2.207292-.6156-.308808-.4132-.500908-.905-.540708-1.1928l.7948-.335c.0476.2987.1915.7261.4523,1.0749.2805.3753.5844.4574.8203.2811.2254-.1683.2258-.4362.051308-.9829ZM68.556398,20.4667l-1.1777,1.2725,1.233,1.1414,1.1778-1.2724.7468.6913-3.065,3.311-.7468-.6912,1.282408-1.3854-1.233-1.1413-1.282408,1.3853-.746592-.6912,3.064892-3.3111.7466.6911ZM65.504698,18.0168c.4824.326.79.6715.9169.8783l-.6385.5623c-.1414-.2331-.346-.4683-.7564-.7456-.7041-.4762-1.5082-.446-2.0592.3691-.5249.7763-.340592,1.5554.3526,2.024.1887.1272.359.2103.4441.2275l.5323-.7876-.5767-.3898.446108-.6599,1.391792.9408-1.3306,1.9688c-.3205-.0875-.8967-.299-1.3903-.6328-.682-.4613-1.0593-.9667-1.182-1.5262-.116892-.5558.0243-1.1713.3956-1.7201.8449-1.2386,2.2287-1.3372,3.4543-.5088ZM62.307698,16.086l-2.1132,3.9867-.8991-.4768,2.1132-3.9864.8991.4765ZM56.727907,13.5852l.945592.3764-.6413,1.6113,1.5613.6214.641408-1.6111.945592.3764-1.6689,4.1926-.9456-.3763.6982-1.7543-1.561292-.6215-.698308,1.7544-.9456-.3765,1.668908-4.1928ZM50.054199,14.3986c.2909-1.5124,1.5296-2.1403,2.8713-1.8826.5193.0999.895.2745,1.0536.4071l-.362.7488c-.1809-.1235-.4486-.2569-.810192-.3263-.789108-.1515-1.499408.2096-1.689,1.1962-.170508.8875.248,1.5476,1.135592,1.7182.3093.0594.6495.0635.8697.0172l-.0069.8168c-.194.0516-.6351.0759-1.1678-.0267-1.5322-.2943-2.1369-1.406-1.8943-2.6687ZM48.358799,11.9295l1.0133.0923-.4099,4.4935-1.0132-.0923.4098-4.4935ZM44.536299,11.8311l1.0177.0014-.0053,3.6557,1.7943.0026-.0013.857-2.812-.0042.0066-4.5125ZM41.102907,12.0645c1.373292-.1869,2.263092.7395,2.432,1.9799.200792,1.4731-.561608,2.4758-1.875208,2.6546-1.3204.1798-2.239792-.7154-2.4141-1.9961-.1825-1.3399.5436-2.4594,1.857308-2.6384ZM35.001199,13.5274l.496,1.6618,1.6104-.4807-.496-1.6617.9752-.2911,1.2908,4.3244-.9752.2912-.54-1.8095-1.6106.4808.540107,1.8093-.975207.2909-1.290793-4.3243.975293-.2911ZM32.925099,14.2406l.3561.7794-1.1207.5119,1.519,3.3253-.9257.423-1.519-3.3256-1.1084.5065-.3562-.7797,3.1549-1.4408ZM28.360907,16.4996l3.541893,3.13-.9447.5726-.898193-.8101-1.105.6701.325793,1.157-.8989.545-1.165893-4.5702,1.145-.6944ZM24.328099,19.1599c.4087-.3356.782807-.5129.9862-.55l.3441.7568c-.2104.0601-.4839.1807-.7683.4144-.6208.5097-.797,1.2864-.1599,2.0623.5734.6986,1.3482.7983,2.0466.2251.2432-.1997.4636-.4587.5687-.6574l.6235.5272c-.0846.182-.3477.5366-.7666.8807-1.2054.9895-2.4461.744-3.2617-.2493-.9769-1.1898-.667793-2.5433.3874-3.4098ZM19.503907,23.8912l2.759093,2.3973,1.1767-1.3545.6469.5621-1.8439,2.1226-3.4061-2.9594.667307-.7681ZM17.295907,26.7521l4.537,1.3222-.610407.9205-1.1575-.3499-.714,1.0766.7875.9078-.5809.8759-3.0016-3.6374.739907-1.1157ZM14.4343,31.6705c.288-.6045.5802-.9843.9482-1.1648.3115-.1556.6648-.1505,1.0396.0282.5137.2447.6946.7834.6544,1.1946l.0182.0084c.2501-.2292.591-.2597,1.0146-.1839.5259.0949,1.1152.2274,1.3099.2239l-.4494.9427c-.1496.0028-.525-.0499-1.0813-.1743-.5684-.1299-.785-.018-.9724.3598l-.1296.272,1.6015.7635-.435.9124-4.019-1.9152c.092907-.3192.2641-.7718.5003-1.2673ZM11.278,43.4648l.8362.0344-.0724,1.7594.9366.0387.0683-1.659.8295.0339-.068293,1.6591,1.070393.0441.0764-1.8532.8361.0347-.118,2.87-4.5092-.1858.1144-2.7763ZM13.7791,50.8026c-1.534.1309-2.4743-.8907-2.5905-2.2512-.0449-.5269.0209-.9356.1056-1.1243l.8186.1452c-.0696.2074-.1252.5012-.093893.8678.068393.8004.608593,1.3857,1.609193,1.3003.9002-.0769,1.421807-.6588,1.344807-1.559-.026707-.3136-.115307-.642-.219607-.8414l.7879-.2149c.1021.1728.2452.5905.2913,1.1305.1326,1.5541-.7728,2.4375-2.0534,2.547ZM16.3197,40.236l-1.8842.6386c-.5218.1777-1.1485.3704-1.7069.487l-.0048.0264c.5987.0743,1.2269.1743,1.9514.3056l1.3371.2418-.1667.9222-4.4396-.8033.2121-1.1724,1.793807-.6279c.515193-.1786,1.115093-.3354,1.652593-.4491l.002407-.0132c-.597-.0468-1.199907-.1356-1.871707-.2572l-1.2911-.2336.166807-.9219,4.439593.803-.1908,1.054ZM13.5634,36.351l-.3808,1.1574-.8139-.2676,1.0835-3.294.814.2676-.3849,1.1701,3.472,1.1421-.3179.9665-3.472-1.1421ZM18.8973,65.7443l-1.2907.8667-.4954-.7361,3.547-2.3831c.1969.2007.4453.5011.7503.9546.308407.4584.4322.8499.3878,1.1984-.0371.3363-.2439.6737-.596.91-.352.2365-.7249.3383-1.0567.2709-.4266-.0815-.8018-.3746-1.097-.8137-.065693-.0976-.1194-.1889-.1493-.2677ZM19.0628,68.6494l2.4436-1.9756.5618.6946-2.4436,1.9756-.5618-.6946ZM21.239907,71.1132c-.108807-.0513-.284707-.185-.452507-.3662-.1956-.2113-.2791-.4625-.2609-.6793.025-.2476.1907-.513.5162-.814l.9433-.8727-.2596-.2805.5282-.4887.2595.2805.4292-.397.7881.464-.622493.5757.435.4705-.528107.4889-.4351-.4705-.834793.7723c-.278307.2575-.345707.4399-.166.6341.083793.0907.128293.1293.198493.1768l-.538493.5061ZM22.372699,72.3032c-.2107-.1962-.3126-.4405-.310793-.6583.006593-.2485.152093-.5258.454093-.8503l.8756-.9408-.279693-.2605.490393-.5267.2795.2606.3984-.4281.8203.4042-.5778.6207.4688.4366-.4903.5272-.4688-.4369-.7748.8328c-.2583.2772-.3119.4644-.1184.6446.0903.0842.1378.1196.2111.1617l-.4991.5449c-.112293-.0432-.2979-.1634-.4785-.3317ZM23.847299,73.5687c-.2949-.2338-.4976-.5174-.5883-.7531l.5556-.4453c.0611.1879.2524.4954.4598.6596.2119.1678.3593.1617.4592.0359.1037-.131.0824-.2462-.099693-.5464-.334207-.5433-.294407-.9625-.058307-1.251.3672-.4631,1.0021-.5259,1.5596-.0842.2626.2082.4371.4609.5154.6461l-.539.4338c-.0533-.1408-.1876-.3783-.3766-.5279-.1704-.1349-.327-.136-.4229-.0155-.0958.1209-.0561.2507.1364.5756.3009.5003.284407.8809.0056,1.242-.367193.4632-.9618.5413-1.6068.0304ZM26.691907,75.5956c-.282-.1812-.486-.4726-.452607-.894l-.01-.0063-.2658.3485-.6382-.4101c.1211-.1666.3359-.4791.527-.7763l1.9591-3.0483.7518.483-.9691,1.508.0099.0063c.2892-.1347.6354-.1186.9717.0974.5788.3718.6623,1.1662.1364,1.9735-.6113.9514-1.466193,1.0744-2.020193.7183ZM29.241099,77.0475c-.5265-.2614-.7284-.8063-.2966-1.6752l.8207-1.6511.8002.3974-.752,1.5132c-.2029.4083-.2049.716.079507.857.221093.11.435693.0084.551593-.1062.0468-.0413.0889-.0993.126-.1741l.8321-1.6741.8002.3974-.9493,1.91c-.183.368-.321.6726-.4277.9137l-.6951-.3452.1604-.4152-.0157-.008c-.1858.123-.571.2906-1.0343.0604Z"/>
    <path class="cls-7" d="M91.232798,48.5507c-.4166-1.1458-1.0377-2.3903-1.57-3.6845-.5327-1.2937-.9751-2.635-1.0447-3.9612-.0096-.1762-.014-.3512-.014-.5249-.000191-1.4062.2911-2.7411.5867-3.9847.2948-1.2439.5964-2.3945.5974-3.4468,0-.4183-.0485-.8217-.1677-1.2062-.1944-.6227-.6557-1.2526-1.247-1.8972-.887591-.965-2.077591-1.9582-3.1424-2.905-.5321-.473-1.0329-.9341-1.4466-1.37-.414-.4355-.7403-.8477-.9247-1.2104l.0002.0002c-.2518-.4934-.4426-1.1726-.6089-1.9446-.2508-1.1589-.4506-2.5266-.769-3.8224-.3195-1.2956-.7543-2.5237-1.5043-3.4076-.5063-.5954-1.2065-1.0186-1.9927-1.3479-1.18-.4934-2.5623-.7789-3.8217-1.0811-1.2589-.2993-2.394492-.624-3.0533-1.1394-.4431-.343-.8984-.9273-1.3658-1.626-.7032-1.0483-1.4395-2.3505-2.2938-3.4924-.855-1.1403-1.8297-2.1315-3.0418-2.531-.6824-.223-1.416-.3044-2.1672-.3045-1.1232.0002-2.2875.1821-3.3845.3618-1.0962.1802-2.1266.3573-2.964092.3568-.38.0001-.719308-.0364-1.004908-.1201-.5017-.1459-1.138-.4828-1.8402-.9079-1.0553-.6376-2.264892-1.4706-3.475892-2.1477-1.212408-.6756-2.424408-1.2033-3.522708-1.206-.732292.0009-1.5451.2375-2.3938.5902-1.2721.5299-2.6251,1.3275-3.8579,2.0337-.616.353-1.201592.6831-1.728.9448-.5259.2619-.9943.4544-1.3634.5349-.2468.0544-.547.0785-.8861.0784-.8028.0003-1.8202-.1338-2.8993-.2698-1.0797-.1357-2.2226-.2728-3.2922-.2729-.997.0006-1.9327.1176-2.699.4827-.6841.3273-1.342.88-1.975593,1.5385-.949207.9882-1.842507,2.2189-2.638,3.3042-.397607.5425-.770507,1.0485-1.110607,1.4674-.339393.4186-.6489.7504-.9037.9397l-.0016.0012.0014-.0011c-.337493.2544-.9749.54-1.7491.8336-1.1633.443-2.6415.9174-3.9709,1.4446-.6649.2638-1.2931.5406-1.8294.8364-.5362.2964-.9818.6093-1.282093.9616-.394807.4663-.696107,1.1539-.960807,1.9609-.395,1.2101-.6981,2.6912-1.009,4.066-.1553.6872-.3124,1.3474-.4821,1.9309-.1694.5833-.3526,1.0902-.5536,1.4659-.2648.4976-.7678,1.0941-1.381,1.7226-.9199.9446-2.0857,1.9677-3.0771,2.9216-.4958.4773-.9483.9373-1.3068,1.3659-.3582.4297-.6253.8241-.7445,1.1964-.0876.2779-.120093.6154-.1205,1.0053.0008,1.0935.2655,2.6084.527407,4.1682.262593,1.5576.522693,3.1581.522093,4.3801,0,.2034-.0072.396-.0224.5758-.1062,1.2809-.8083,2.7217-1.4973,4.1729-.686,1.4535-1.3615,2.919-1.3643,4.3156,0,.151.008.301.025.4499.0837.7253.3755,1.4404.7707,2.1495.5935,1.0631,1.423207,2.117,2.174207,3.1625.751793,1.0442,1.422193,2.0801,1.707093,3.0782.3863,1.34.3268,3.1005.3592,4.8659.0168.883.0581,1.7686.1966,2.6093.1386.8404.3745,1.6372.7863,2.3375.414807.7051,1.051807,1.3184,1.7904,1.8719,1.1082.8297,2.4502,1.5271,3.6431,2.1664.5962.3194,1.155.624,1.626.92.471.2952.8538.584,1.0959.8584.3307.3721.6819.9777,1.0396,1.6972.538,1.0799,1.0974,2.417,1.6971,3.6458.6018,1.2294,1.2371,2.3511,1.9669,3.0187.5087.4594,1.2696.7353,2.1552.928,1.3284.2866,2.9477.3745,4.4174.4742.7344.0495,1.431.1018,2.0303.1812.5988.0786,1.1018.1873,1.4367.336.465207.2045,1.1031.6113,1.8131,1.1145,1.0667.7553,2.3033,1.7275,3.4396,2.5755.5684.4241,1.1118.8173,1.5989,1.1378.4879.3207.916607.569,1.2713.7051.1938.0738.413308.1029.6542.1031.5584-.0008,1.2409-.1575,1.989108-.3859,1.120492-.3437,2.383492-.8546,3.517192-1.2778.5665-.2117,1.1005-.4015,1.5641-.5369.4629-.1361.8584-.2159,1.1292-.2151.1801-.0004.4289.0365.7227.1048,1.0325.2383,2.6136.8492,4.2056,1.4013.7967.2761,1.5979.5376,2.3418.7311.7445.193,1.4305.3193,2.008.3197.1439,0,.2811-.0078.411408-.0252l-.025908-.1943.0261.1943c.6414-.0886,1.2981-.4847,1.9783-1.027,1.0183-.8155,2.0868-1.9777,3.1141-3.0253.5132-.5237,1.0155-1.0184,1.4911-1.4246.4752-.4064.925-.7233,1.321308-.8938.500692-.2173,1.233392-.3442,2.071792-.4213,1.2589-.1169,2.7567-.1291,4.1247-.2357.6842-.0536,1.336508-.1307,1.9144-.2589.5778-.1288,1.0828-.3067,1.4727-.5762.5207-.3639.9833-1.0108,1.429-1.8005.6657-1.1846,1.2801-2.6966,1.8468-4.0485.2832-.6756.5542-1.3107.811-1.8415.256-.5302.5013-.9572.715609-1.2052.281591-.3309.837091-.7132,1.525791-1.1117,1.034-.6009,2.3684-1.2526,3.579209-1.9583.605591-.3532,1.180791-.7198,1.674491-1.104.4937-.3844.907-.7853,1.1856-1.2158.275909-.4282.4376-.968.5346-1.5769.0966-.609.1272-1.2889.1274-1.9995-.0002-1.3331-.1085-2.776-.1083-4.036-.0015-1.0645.0813-1.9996.3467-2.6004.2338-.5342.6548-1.1471,1.1567-1.7971.7529-.9762,1.6857-2.038,2.44-3.1025.3772-.5325.7103-1.0661.9535-1.5944.243-.5283.3974-1.0528.4077-1.5669.0004-.0224.000609-.0448.000609-.0672-.000609-.673-.188809-1.3945-.466109-2.1589ZM55.531999,90.8103c-.1098.0148-.2302.0218-.3595.0218-.5947.0008-1.3744-.1546-2.2248-.3922-1.277-.3561-2.7167-.8942-3.9929-1.3446-.6385-.225-1.2363-.4284-1.7562-.5767-.521-.1477-.9599-.2424-1.3042-.2434-.454.0017-1.0473.1594-1.7383.3875-1.0335.3431-2.273.8528-3.4471,1.2755-.5867.2112-1.1566.4007-1.6726.5363-.5156.1359-.978492.2168-1.3416.2164-.2085.0002-.382892-.0266-.5143-.0773-.4069-.1544-1.0077-.5244-1.6914-1.0034-1.0281-.7187-2.255193-1.6817-3.4099-2.5475-.5776-.4329-1.1374-.8416-1.6474-1.1843-.5105-.3429-.9695-.6195-1.356-.7902-.5313-.2329-1.2948-.3507-2.1863-.4386-1.3352-.1299-2.9518-.1806-4.4004-.3551-.7238-.0871-1.4051-.2051-1.9836-.3764-.5787-.1705-1.0519-.3959-1.3637-.6806-.4351-.3953-.864-1.013-1.274-1.7407-.6164-1.0918-1.194893-2.4287-1.7516-3.6449-.2785-.6082-.5519-1.1867-.8241-1.6914-.2727-.505-.5428-.9363-.824193-1.2547-.381607-.429-.980107-.8251-1.691807-1.237-1.0671-.6156-2.3907-1.2575-3.5897-1.9936-1.199493-.7346-2.2684-1.5658-2.829493-2.5248-.379-.6439-.604207-1.3932-.737507-2.2026-.200493-1.2141-.1926-2.5598-.207-3.8669-.0153-1.3074-.051-2.5762-.3586-3.6525-.4165-1.4428-1.5137-2.852-2.5331-4.2498-.5103-.698-1.0021-1.3912-1.382793-2.0739-.381107-.6828-.649307-1.3534-.723507-2.0034-.0153-.1332-.0226-.2681-.0226-.4051-.002893-1.2667.6388-2.6999,1.3266-4.1478.6848-1.4502,1.4131-2.9136,1.5338-4.3076.0163-.1929.023707-.3964.023707-.6089-.000507-1.2744-.265207-2.8846-.527507-4.4452-.2628-1.5585-.5229-3.0696-.522-4.1031-.0004-.3667.0333-.6719.1021-.8869l.001-.0029-.0009.0027c.0591-.1882.1845-.417.3642-.6687.3142-.4412.7914-.9529,1.344-1.495.8292-.8142,1.8284-1.6995,2.7159-2.5575.8877-.8599,1.6639-1.6857,2.0573-2.4188.2958-.5549.532907-1.3082.7534-2.1598.329507-1.2764.6167-2.772.9573-4.1042.1701-.6659.3536-1.2906.56-1.8233.2058-.5327.4364-.9728.6878-1.2673.3303-.3916.9518-.7855,1.718-1.1517,1.1496-.5521,2.6207-1.0538,3.9451-1.5208.6625-.2339,1.2886-.4593,1.823-.6803.5348-.2217.976307-.4359,1.2815-.6633.403807-.3029.8415-.824,1.3311-1.4615.731707-.9554,1.567707-2.1714,2.460707-3.2607.891293-1.0895,1.844193-2.048,2.770493-2.488.6808-.3263,1.5639-.4451,2.5301-.4445,1.036407-.0001,2.1657.1342,3.2433.2698,1.0783.1354,2.1037.2726,2.9482.273.3574-.0002.683-.0245.9702-.0877.5661-.1252,1.2472-.4463,2.009708-.8551,1.141692-.6134,2.458492-1.428,3.742692-2.0864.6418-.3291,1.275-.619,1.8701-.8252.5951-.2064,1.1519-.328,1.6365-.3276.646-.0008,1.3836.2155,2.1551.5597,1.158.5154,2.3889,1.3127,3.5315,2.0426.5715.365,1.1214.7132,1.6329,1.0015.5116.2882.9837.5172,1.4094.6421.335808.098.7103.1356,1.114808.1357.890492-.0005,1.932592-.1827,3.027392-.3619,1.0943-.1796,2.2403-.3568,3.3212-.3566.7229-.0001,1.4158.0791,2.0453.2851.7223.2363,1.377108.7232,1.9813,1.3551.9064.947,1.6915,2.2134,2.4269,3.3865.367908.5866.724,1.15,1.0807,1.6404.357208.4904.7141.9085,1.0941,1.2044.5099.3945,1.200108.6629,1.9787.892,1.1675.3421,2.5395.5909,3.7897.9623,1.2512.3699,2.3708.8656,3.0409,1.6584l.0002.0001c.454609.534.7975,1.2334,1.0669,2.0182.404709,1.177.643709,2.5416.8796,3.8114.2376,1.271.4673,2.4445.8848,3.2689l.0002.0001c.2862.5581.8084,1.1426,1.4416,1.7574.9498.9204,2.1531,1.9019,3.1809,2.8644.5135.4808.9829.9566,1.3529,1.413.3705.456.6393.8934.7601,1.2856.105.3391.15.702.15,1.0903.0011.9764-.2893,2.1083-.5867,3.3562-.2964,1.2485-.5972,2.6148-.5974,4.0753,0,.1805.0046.3624.0144.5458.1001,1.8651.883,3.6964,1.629309,5.3755.373491.8392.738791,1.6404,1.008591,2.3832.2703.7426.4431,1.4267.4425,2.025,0,.0199-.000091.0398-.0005.0597-.0104.5855-.248591,1.2357-.6292,1.9125-.569391,1.0156-1.450391,2.0847-2.2846,3.1099-.8343,1.0273-1.6224,2.0066-2.0112,2.8889-.306.7049-.3779,1.6729-.3797,2.7575.0002,1.2812.1085,2.7232.1083,4.036,0,.6992-.0308,1.3612-.1224,1.9381-.0913.5773-.2449,1.0677-.4769,1.4255-.3218.5-.8956,1.0025-1.5973,1.4843-1.052591.724-2.3872,1.4056-3.5793,2.0431-.5962.319-1.157.6273-1.632291.9277-.475309.3012-.865309.5914-1.124409.8922-.3411.3995-.6762,1.0608-1.0372,1.8633-.5389,1.2021-1.1215,2.7146-1.7449,4.0452-.311492.6651-.6332,1.2843-.9611,1.7929-.327392.509-.663392.9057-.9851,1.1276-.4309.3006-1.108.499-1.9109.6232-1.2049.1883-2.6873.2193-4.072392.2888-.693.035-1.362208.0796-1.964308.1603-.6024.0811-1.1374.1965-1.5681.3821-.6075.2639-1.247.7767-1.9171,1.4005-1.0028.9356-2.0676,2.1258-3.093,3.1057-.512492.4898-1.0146.9265-1.4883,1.2508-.4734.3253-.9179.5342-1.3031.5849Z"/>
    <polygon class="cls-7" points="79.977798 15.1854 79.977798 15.1854 79.977907 15.1855 79.977798 15.1854"/>
    <polygon class="cls-7" points="1.954907 32.0784 1.955 32.0783 1.955 32.0782 1.954907 32.0784"/>
    <polygon class="cls-7" points="20.536199 11.6858 20.536099 11.6858 20.535999 11.6859 20.536199 11.6858"/>
    <path class="cls-7" d="M45.421499,71.3468c3.8297,0,7.461-.8629,10.7119-2.4027-.0069-.0633-.0132-.1276-.020492-.191-.017608-.1509-.035-.2891-.052608-.4242-3.2197,1.5568-6.8292,2.4301-10.6388,2.4301-3.6929,0-7.197-.822-10.3413-2.2904-.0065.0702-.013.1405-.019293.2092-.012707.1371-.029807.277-.063907.4008,3.1771,1.4556,6.7075,2.2682,10.4245,2.2682Z"/>
    <path class="cls-7" d="M28.656699,64.4372c.0929-.0203.1899-.0373.2881-.0528-4.9411-4.4897-8.048-10.9638-8.048-18.15,0-13.5229,11.0018-24.5247,24.524699-24.5247,13.523,0,24.524699,11.0018,24.524699,24.5247,0,7.1642-3.088292,13.6203-8.003,18.1083.2443.0356.4782.087.6978.153,4.8565-4.5819,7.893-11.0732,7.893-18.2613,0-13.847-11.2654-25.1125-25.112499-25.1125s-25.112499,11.2655-25.112499,25.1125c0,7.2204,3.0642,13.7376,7.9591,18.323.1272-.0479.2573-.0913.3886-.1202Z"/>
    <path class="cls-7" d="M84.739398,46.2344c0-21.6799-17.6379-39.3179-39.317899-39.3179S6.1037,24.5545,6.1037,46.2344s17.6379,39.3178,39.317799,39.3178,39.317899-17.6379,39.317899-39.3178ZM6.8874,46.2344C6.8874,24.9866,24.173699,7.7002,45.421499,7.7002s38.534099,17.2864,38.534099,38.5342-17.2864,38.534-38.534099,38.534S6.8874,67.4822,6.8874,46.2344Z"/>
    <path class="cls-7" d="M20.143599,66.8257c.3318.0674.7047-.0344,1.0567-.2709.3521-.2363.5589-.5737.596-.91.0444-.3485-.079393-.74-.3878-1.1984-.305-.4535-.5534-.7539-.7503-.9546l-3.547,2.3831.4954.7361,1.2907-.8667c.0299.0788.083607.1701.1493.2677.2952.4391.6704.7322,1.097.8137ZM20.582799,64.6117c.052107.043.1316.1381.23.2845.2525.3754.1963.7178-.1345.9401-.3626.2438-.7453.1466-1.011-.2484-.075393-.1123-.1192-.189-.1458-.2631l1.0613-.7131Z"/>
    <path class="cls-7" d="M22.171199,66.1063c-.2099.1697-.2652.4487-.0878.668.1884.233.4731.2372.6829.0677.2111-.1783.2652-.4487.084-.6726-.1811-.224-.4643-.2369-.6791-.0631Z"/>
    <rect class="cls-7" x="18.994339" y="67.562221" width="3.14232" height=".893358" transform="translate(-38.184795 28.052009) rotate(-38.954822)"/>
    <path class="cls-7" d="M21.579907,70.4303c-.179707-.1942-.112307-.3766.166-.6341l.834793-.7723.4351.4705.528107-.4889-.435-.4705.622493-.5757-.7881-.464-.4292.397-.2595-.2805-.5282.4887.2596.2805-.9433.8727c-.3255.301-.4912.5664-.5162.814-.0182.2168.0653.468.2609.6793.1678.1812.3437.3149.452507.3662l.538493-.5061c-.0702-.0475-.1147-.0861-.198493-.1768Z"/>
    <path class="cls-7" d="M23.139199,71.9283c-.1935-.1802-.1399-.3674.1184-.6446l.7748-.8328.4688.4369.4903-.5272-.4688-.4366.5778-.6207-.8203-.4042-.3984.4281-.2795-.2606-.490393.5267.279693.2605-.8756.9408c-.302.3245-.4475.6018-.454093.8503-.001807.2178.100093.4621.310793.6583.1806.1683.366207.2885.4785.3317l.4991-.5449c-.0733-.0421-.1208-.0775-.2111-.1617Z"/>
    <path class="cls-7" d="M25.454099,73.5383c.278807-.3611.2953-.7417-.0056-1.242-.1925-.3249-.2322-.4547-.1364-.5756.0959-.1205.2525-.1194.4229.0155.189.1496.3233.3871.3766.5279l.539-.4338c-.0783-.1852-.2528-.4379-.5154-.6461-.5575-.4417-1.1924-.3789-1.5596.0842-.2361.2885-.2759.7077.058307,1.251.182093.3002.203393.4154.099693.5464-.0999.1258-.2473.1319-.4592-.0359-.2074-.1642-.3987-.4717-.4598-.6596l-.5556.4453c.0907.2357.2934.5193.5883.7531.645.5109,1.239607.4328,1.6068-.0304Z"/>
    <path class="cls-7" d="M28.575699,72.9038c-.3363-.216-.6825-.2321-.9717-.0974l-.0099-.0063.9691-1.508-.7518-.483-1.9591,3.0483c-.1911.2972-.4059.6097-.527.7763l.6382.4101.2658-.3485.01.0063c-.033393.4214.170607.7128.452607.894.554.3561,1.408893.2331,2.020193-.7183.5259-.8073.4424-1.6017-.1364-1.9735ZM27.929399,74.4204c-.3057.4757-.6773.6188-.9987.4123-.2177-.1399-.2796-.4238-.19-.6718.0178-.0497.044-.1016.0788-.1556l.2501-.3891c.0347-.054.071-.0995.1121-.1418.2023-.2061.4979-.2528.7007-.1227.3512.2258.311.658.047,1.0687Z"/>
    <path class="cls-7" d="M30.291099,76.9951l-.1604.4152.6951.3452c.1067-.2411.2447-.5457.4277-.9137l.9493-1.91-.8002-.3974-.8321,1.6741c-.0371.0748-.0792.1328-.126.1741-.1159.1146-.3305.2162-.551593.1062-.284407-.141-.282407-.4487-.079507-.857l.752-1.5132-.8002-.3974-.8207,1.6511c-.4318.8689-.2299,1.4138.2966,1.6752.4633.2302.8485.0626,1.0343-.0604l.0157.008Z"/>
    <path class="cls-7" d="M32.359199,78.3617l.5805-1.4839c.028-.0718.0616-.1414.0958-.1969.165-.2598.4431-.358.7496-.2378.093.0363.1541.0742.2151.1117l.3346-.8555c-.0554-.0356-.0914-.0564-.1681-.0865-.2627-.1027-.6559-.0499-.9613.3274l-.0218-.0086.1779-.5513-.7115-.2786c-.082.2578-.1865.5412-.355093.9719l-.767607,1.9622.8319.3259Z"/>
    <path class="cls-7" d="M34.501199,79.7327c-.3268-.0969-.591-.3024-.7328-.465l-.3806.6649c.2043.2212.558107.4129.9245.5212.4057.1202.8425.1554,1.2251-.0394.4049-.2087.6523-.6515.8238-1.2305l.495707-1.6756c.133-.4501.218892-.699.288692-.893l-.744-.2203-.1356.3554-.0114-.0033c-.0661-.2945-.25-.5432-.6275-.6548-.6819-.2016-1.4334.2459-1.7213,1.2195-.2553.8626.0509,1.6097.7328,1.8114.3155.0936.622307.0301.8587-.168l.0112.0033-.0565.1909c-.1659.5609-.545093.7032-.9508.5833ZM35.101799,78.5098c-.354893-.1049-.453893-.5161-.320893-.9659.162293-.5482.501393-.7832.816893-.6896.2367.07.3509.2845.34.5495-.0051.0586-.0178.1221-.0342.1774l-.1313.4437c-.0235.08-.0583.177-.1027.244-.1202.1992-.3423.3077-.5678.2409Z"/>
    <path class="cls-7" d="M38.793799,80.141l.8784.1642.3358-1.8c.1745-.9345-.1742-1.4378-.7348-1.5424-.1618-.0305-.3318-.0163-.4789.0346-.1528.0497-.288392.1357-.4069.2572l-.0116-.0021.33-1.7681-.8784-.1643-.8366,4.4837.8785.1642.3417-1.8315c.012908-.0695.0341-.1504.0677-.2029.0966-.1649.2716-.3023.5029-.2588.329308.0614.4047.3629.329308.7672l-.317108,1.699Z"/>
    <path class="cls-7" d="M41.546099,79.3752l-.9129-.0369c-.1465.5719-.378292,1.2181-.6285,1.7655l.6023.0088c.336-.4665.6737-1.1077.9391-1.7374Z"/>
    <path class="cls-7" d="M44.520399,76.2795c-.5467-.0018-.9347.0358-1.2112.0863l-.0125,4.2733.8875.0024.0046-1.555c.0822.0195.188108.0264.3055.0266.5289.0015.982-.1449,1.288608-.4527.241592-.2369.366192-.6028.367292-1.0268.0014-.424-.162-.7845-.4202-1.0038-.2638-.2319-.6572-.3488-1.2096-.3503ZM44.490699,78.3613c-.1353-.0004-.2235-.0073-.299792-.0266l.004-1.2786c.064692-.0193.188092-.0317.364292-.0313.452708.0013.704708.2399.7034.6383-.0012.4368-.2958.6997-.7719.6982Z"/>
    <path class="cls-7" d="M49.015399,78.7514c-.0671-.7743-.4866-1.5311-1.4119-1.4511-.995592.0867-1.370592,1.0028-1.3019,1.7967.0849.9793.6946,1.5455,1.6666,1.4611.3865-.0337.7384-.1284,1.0195-.2885l-.1741-.6493c-.2325.1106-.4746.1768-.7792.2034-.4158.036-.8013-.124-.8597-.5252l1.8447-.1602c.0058-.0715.0104-.2202-.004-.3869ZM47.111199,78.6332c.0011-.2581.120708-.649.4955-.6816.4099-.0356.5381.3532.5586.5901l-1.0541.0915Z"/>
    <path class="cls-7" d="M50.689299,77.6795c.3184-.0558.4935.1939.5635.5926l.3008,1.7154.8802-.1546-.320892-1.8292c-.159808-.9112-.668608-1.2591-1.247608-1.1575-.4747.0833-.7062.4306-.786392.6535l-.017408.0028-.116-.423-.7644.1341c.0605.2763.1286.5972.1965.9831l.3695,2.1079.88-.1544-.313-1.7851c-.0155-.0886-.0251-.1781-.013192-.2455.032692-.1883.145192-.3974.388392-.4401Z"/>
    <path class="cls-7" d="M53.863099,76.9457c.3111-.0878.5107.143.6206.5323l.4731,1.6758.8599-.2426-.5043-1.7869c-.251492-.8906-.7928-1.1852-1.3586-1.0255-.4638.1311-.659.4998-.7164.7298l-.0168.0046-.1584-.4093-.747.2109c.0882.2688.1884.5809.295.9582l.5813,2.0591.8601-.2428-.4923-1.7437c-.0245-.0865-.0433-.1745-.0381-.2428.0134-.1908.1041-.4101.3419-.4771Z"/>
    <path class="cls-7" d="M57.046099,77.8031c-.2474.0934-.6094.0995-.8021.0555l.0966.7049c.2488.0437.596308.0154.948308-.1174.770192-.2905,1.008392-.8404.799692-1.3934-.166692-.4246-.484692-.6343-1.068692-.6337-.377708-.0018-.509308-.0345-.563908-.1788-.0543-.144.027-.2778.2304-.3547.2256-.085.498508-.0781.6466-.0515l-.0953-.685c-.199-.0279-.505792-.0084-.8194.1098-.6655.2511-.9377.8276-.729,1.3806.1263.3507.4654.6004,1.1037.5932.3511-.0021.4607.039.519908.1951.056592.1504-.013808.28-.266808.3754Z"/>
    <path class="cls-7" d="M59.204099,78.265l.5275.6602c.1908-.1188.4415-.3586.5911-.7564.1575-.4229.1954-.9883.0306-2.2967l-.2803-2.1564-.8605.4077.3362,1.5468c.0425.1862.0991.4152.1416.5873l-.0212.0099c-.1035-.1358-.2583-.3255-.3779-.4678l-1.0509-1.2156-.8976.4253,2.1886,2.1482c.0595.0569.0842.095.1007.13.0166.0346.0225.0886.0181.1479-.0084.1745-.0777.3852-.167.5126-.0863.1335-.1891.2459-.279.317Z"/>
    <rect class="cls-7" x="60.613394" y="71.832712" width=".893409" height="4.562677" transform="translate(-28.474628 39.404385) rotate(-29.326355)"/>
    <path class="cls-7" d="M62.995398,71.9069l.4929,1.4213c.0943.261.1858.4852.288.7256l-.0148.0097c-.177-.1835-.3507-.3614-.5581-.5478l-1.126492-1.0046-.810108.5333,2.6025,2.048.7462-.4912-.8344-3.2115-.7857.5172Z"/>
    <path class="cls-7" d="M67.244598,71.66l-.6862-.8581c-.4657-.5821-1.0849-.8764-1.8331-.2777-.4083.3268-.6153.6984-.6951.9185l.5218.389c.0666-.218.2415-.4979.470908-.6816.344192-.2753.557-.141.665292-.0057l.0241.03c-.7941.6353-1.0763,1.3553-.5668,1.9925.3131.3913.8729.5357,1.3272.1722.266208-.2128.411208-.5019.4016-.8151l.0138-.0111.238.2127.628808-.503c-.135908-.1135-.325908-.332-.510308-.5626ZM66.281907,72.6114c-.155908.1248-.351708.125-.508208-.0706-.2327-.2912-.0243-.6142.3427-.9079l.2128.2657c.0362.0452.067708.0942.0905.1415.0786.1923.0319.4353-.137792.5713Z"/>
    <path class="cls-7" d="M67.267298,68.266c-.344392.3369-.339.7543-.2791.9831l-.0127.0124-.335-.2833-.5547.5424c.2063.1939.4439.4196.7179.6998l1.4969,1.5286.6385-.6245-1.2674-1.2947c-.062792-.0643-.1217-.1326-.1499-.1951-.0796-.1738-.1048-.4095.0716-.5821.2311-.2262.5168-.1192.8.1699l1.2181,1.2443.6385-.6247-1.2988-1.3268c-.647292-.6609-1.2637-.6601-1.6839-.2493Z"/>
    <path class="cls-7" d="M67.660598,65.9503c-.1893.2172-.1531.4985.0551.6801.2034.1774.4877.1835.6731-.0291.197108-.2262.152108-.5073-.0511-.6846-.2122-.177-.4877-.1835-.6771.0336Z"/>
    <rect class="cls-7" x="69.420086" y="66.311839" width=".893724" height="3.141771" transform="translate(-27.215595 75.909848) rotate(-48.901399)"/>
    <path class="cls-7" d="M71.799907,64.9624c-.597208-.4462-1.270508-.5752-1.844.1927-.313.4191-.42.831-.441808,1.0641l.6027.2449c.0098-.2275.1087-.5425.2846-.778.2638-.3534.5036-.2771.642508-.173l.030792.023c-.6087.8147-.7009,1.5824-.0471,2.0707.4015.3.9797.2989,1.3278-.1672.2041-.2733.2719-.5896.1837-.8902l.0107-.0143.2837.1462.482-.6452c-.1599-.0756-.3987-.2394-.6354-.4162l-.880192-.6575ZM71.987598,66.7831c-.1196.1601-.3088.2097-.5095.0595-.2985-.2227-.178192-.5878.1033-.9648l.2727.2038c.0463.0346.0891.0739.1234.114.1242.1663.140408.4132.0101.5875Z"/>
    <path class="cls-7" d="M15.5412,47.1251l-.7879.2149c.1043.1994.1929.5278.219607.8414.077.9002-.444607,1.4821-1.344807,1.559-1.0006.0854-1.5408-.4999-1.609193-1.3003-.031307-.3666.024293-.6604.093893-.8678l-.8186-.1452c-.0847.1887-.1505.5974-.1056,1.1243.1162,1.3605,1.0565,2.3821,2.5905,2.2512,1.2806-.1095,2.186-.9929,2.0534-2.547-.0461-.54-.1892-.9577-.2913-1.1305Z"/>
    <polygon class="cls-7" points="15.7908 43.5569 14.9547 43.5222 14.8783 45.3754 13.807907 45.3313 13.8762 43.6722 13.0467 43.6383 12.9784 45.2973 12.0418 45.2586 12.1142 43.4992 11.278 43.4648 11.1636 46.2411 15.6728 46.4269 15.7908 43.5569"/>
    <path class="cls-7" d="M11.9041,39.3009l1.2911.2336c.6718.1216,1.274707.2104,1.871707.2572l-.002407.0132c-.5375.1137-1.1374.2705-1.652593.4491l-1.793807.6279-.2121,1.1724,4.4396.8033.1667-.9222-1.3371-.2418c-.7245-.1313-1.3527-.2313-1.9514-.3056l.0048-.0264c.5584-.1166,1.1851-.3093,1.7069-.487l1.8842-.6386.1908-1.054-4.439593-.803-.166807.9219Z"/>
    <polygon class="cls-7" points="13.8813 35.3845 14.2662 34.2144 13.4522 33.9468 12.3687 37.2408 13.1826 37.5084 13.5634 36.351 17.0354 37.4931 17.3533 36.5266 13.8813 35.3845"/>
    <path class="cls-7" d="M18.388,33.9406l-1.6015-.7635.1296-.272c.1874-.3778.404-.4897.9724-.3598.5563.1244.9317.1771,1.0813.1743l.4494-.9427c-.1947.0035-.784-.129-1.3099-.2239-.4236-.0758-.7645-.0453-1.0146.1839l-.0182-.0084c.0402-.4112-.1407-.9499-.6544-1.1946-.3748-.1787-.7281-.1838-1.0396-.0282-.368.1805-.6602.5603-.9482,1.1648-.2362.4955-.407393.9481-.5003,1.2673l4.019,1.9152.435-.9124ZM16.2946,32.4978l-.1729.3626-1.1181-.5329c.0135-.0752.0619-.2079.1685-.4315.2016-.423.5162-.5847.8847-.409.3566.1701.4566.5513.2378,1.0108Z"/>
    <path class="cls-7" d="M20.138499,30.6293l-.7875-.9078.714-1.0766,1.1575.3499.610407-.9205-4.537-1.3222-.739907,1.1157,3.0016,3.6374.5809-.8759ZM18.7965,29.1769l-.6499-.7521c-.1769-.2056-.4244-.4501-.6105-.6541l.0073-.0111c.2602.0922.5836.2104.8511.2912l.953.2948-.551.8313Z"/>
    <polygon class="cls-7" points="24.086599 25.4961 23.439699 24.934 22.262999 26.2885 19.503907 23.8912 18.8366 24.6593 22.242699 27.6187 24.086599 25.4961"/>
    <path class="cls-7" d="M27.202399,22.819c.4189-.3441.682-.6987.7666-.8807l-.6235-.5272c-.1051.1987-.3255.4577-.5687.6574-.6984.5732-1.4732.4735-2.0466-.2251-.6371-.7759-.4609-1.5526.1599-2.0623.2844-.2337.5579-.3543.7683-.4144l-.3441-.7568c-.203393.0371-.5775.2144-.9862.55-1.055193.8665-1.3643,2.22-.3874,3.4098.8156.9933,2.0563,1.2388,3.2617.2493Z"/>
    <path class="cls-7" d="M29.280699,21.2192l-.325793-1.157,1.105-.6701.898193.8101.9447-.5726-3.541893-3.13-1.145.6944,1.165893,4.5702.8989-.545ZM28.155599,17.5167c.196.1943.438307.439.6459.6265l.7367.6728-.8529.517-.267393-.9573c-.072407-.2615-.192207-.5882-.273807-.8519l.0115-.0071Z"/>
    <polygon class="cls-7" points="31.234799 15.9546 32.753799 19.2802 33.679499 18.8572 32.160499 15.5319 33.281199 15.02 32.925099 14.2406 29.770199 15.6814 30.126399 16.4611 31.234799 15.9546"/>
    <polygon class="cls-7" points="36.291907 17.8519 35.751799 16.0426 37.362399 15.5618 37.902399 17.3713 38.877599 17.0801 37.586799 12.7557 36.611599 13.0468 37.107599 14.7085 35.497199 15.1892 35.001199 13.5274 34.025907 13.8185 35.316699 18.1428 36.291907 17.8519"/>
    <path class="cls-7" d="M41.659699,16.699c1.3136-.1788,2.076-1.1815,1.875208-2.6546-.168908-1.2404-1.058708-2.1668-2.432-1.9799-1.313708.179-2.039808,1.2985-1.857308,2.6384.174308,1.2807,1.0937,2.1759,2.4141,1.9961ZM41.192299,12.8702c.6967-.095,1.1688.5437,1.279,1.3531.1184.8691-.1846,1.5725-.8679,1.6655-.6768.0923-1.1721-.4688-1.2923-1.351-.1184-.8692.1911-1.5738.8812-1.6676Z"/>
    <polygon class="cls-7" points="47.342999 15.4908 45.548699 15.4882 45.553999 11.8325 44.536299 11.8311 44.529699 16.3436 47.341699 16.3478 47.342999 15.4908"/>
    <rect class="cls-7" x="46.404448" y="13.713677" width="4.512152" height="1.017445" transform="translate(30.082621 61.392144) rotate(-84.795375)"/>
    <path class="cls-7" d="M51.948499,17.0673c.5327.1026.9738.0783,1.1678.0267l.0069-.8168c-.2202.0463-.5604.0422-.8697-.0172-.887592-.1706-1.3061-.8307-1.135592-1.7182.189592-.9866.899892-1.3477,1.689-1.1962.361592.0694.629292.2028.810192.3263l.362-.7488c-.1586-.1326-.5343-.3072-1.0536-.4071-1.3417-.2577-2.5804.3702-2.8713,1.8826-.2426,1.2627.3621,2.3744,1.8943,2.6687Z"/>
    <polygon class="cls-7" points="56.702907 16.4001 58.264199 17.0216 57.565999 18.7759 58.511599 19.1522 60.180498 14.9596 59.234907 14.5832 58.593499 16.1943 57.032199 15.5729 57.673499 13.9616 56.727907 13.5852 55.058999 17.778 56.004599 18.1545 56.702907 16.4001"/>
    <rect class="cls-7" x="58.545546" y="17.332209" width="4.512006" height="1.017633" transform="translate(16.562512 63.20663) rotate(-62.073617)"/>
    <path class="cls-7" d="M61.654798,20.2457c.1227.5595.5,1.0649,1.182,1.5262.4936.3338,1.0698.5453,1.3903.6328l1.3306-1.9688-1.391792-.9408-.446108.6599.5767.3898-.5323.7876c-.0851-.0172-.2554-.1003-.4441-.2275-.693192-.4686-.8775-1.2477-.3526-2.024.551-.8151,1.3551-.8453,2.0592-.3691.4104.2773.615.5125.7564.7456l.6385-.5623c-.1269-.2068-.4345-.5523-.9169-.8783-1.2256-.8284-2.6094-.7298-3.4543.5088-.3713.5488-.512492,1.1643-.3956,1.7201Z"/>
    <polygon class="cls-7" points="65.491498 23.7779 66.773907 22.3926 68.006907 23.5339 66.724498 24.9193 67.471298 25.6105 70.536298 22.2995 69.789498 21.6082 68.611698 22.8806 67.378698 21.7392 68.556398 20.4667 67.809798 19.7756 64.744907 23.0867 65.491498 23.7779"/>
    <path class="cls-7" d="M71.076598,28.0621c-.2359.1763-.5398.0942-.8203-.2811-.2608-.3488-.4047-.7762-.4523-1.0749l-.7948.335c.0398.2878.2319.7796.540708,1.1928.741392.9922,1.601192,1.0685,2.207292.6156.5094-.3812.6215-.9244.3804-1.7391-.1758-.6042-.2223-.8791.0084-1.0515.1824-.1363.476908-.0889.7415.2651.2606.3486.3551.6877.3896.8794l.7906-.3068c-.0583-.2908-.1984-.6459-.507-1.0588-.6336-.8476-1.4891-1.019-2.105792-.5579-.525608.393-.561408,1.0383-.327,1.7993.174492.5467.174092.8146-.051308.9829Z"/>
    <path class="cls-7" d="M72.069298,32.1452c.2669.4722.5712.7924.7359.9068l.6269-.5235c-.178-.138-.395192-.3996-.5501-.6735-.445092-.7869-.2132-1.5332.5734-1.978.8743-.4943,1.6094-.1873,2.0049.512.1812.3208.2532.6107.2761.8284l.805-.209c-.0017-.2068-.1121-.6058-.3723-1.0661-.6724-1.1889-1.9529-1.7261-3.2933-.968-1.118892.6327-1.5743,1.813-.8065,3.1709Z"/>
    <polygon class="cls-7" points="73.371198 34.6828 75.131598 33.9992 75.740098 35.566 73.979498 36.2496 74.347998 37.1984 78.555298 35.5646 78.186998 34.6158 76.570298 35.2435 75.961798 33.6768 77.578698 33.0488 77.210198 32.1002 73.002698 33.7338 73.371198 34.6828"/>
    <path class="cls-7" d="M76.745798,37.3787c-1.2623.2743-2.0824,1.2611-1.7996,2.5628.2814,1.295,1.3403,1.976,2.7926,1.6606,1.2233-.2659,2.0767-1.2253,1.7824-2.5793-.2815-1.2952-1.454-1.9311-2.7754-1.6441ZM78.725198,39.1751c.1495.6869-.45,1.2075-1.2479,1.3809-.8569.1863-1.5819-.0605-1.7282-.7341-.1451-.6673.3752-1.2052,1.2452-1.3943.8569-.186,1.5834.0672,1.7309.7475Z"/>
    <path class="cls-7" d="M77.778298,42.431c-1.2901.072-2.2552.9173-2.1808,2.2476.0742,1.3237,1.013,2.163,2.497,2.0796,1.2501-.0699,2.2437-.8832,2.166409-2.2669-.074209-1.3235-1.132309-2.1362-2.482609-2.0603ZM79.450798,44.5166c.0394.7018-.6345,1.1218-1.45,1.1675-.8756.0491-1.5528-.3087-1.5914-.9972-.0381-.6818.5602-1.1311,1.4494-1.181.8756-.049,1.5532.3155,1.592,1.0107Z"/>
    <polygon class="cls-7" points="75.493798 50.3696 76.348198 50.4396 76.494498 48.6511 80.138298 48.949 80.221298 47.9349 75.723198 47.5668 75.493798 50.3696"/>
    <polygon class="cls-1" points="45.612199 64.0304 45.616199 64.0363 45.616199 64.0304 45.612199 64.0304"/>
    <path class="cls-1" d="M56.349799,55.1304c1.4026-3.8062,1.2047-8.8569.9952-14.2042-.0712-1.8165-.1443-3.6946-.1582-5.5788-1.2091-.2505-6.5036-1.2848-11.4767-1.293v8.3593h-1.5133v1.5675h1.5717v1.5939h-1.573592v1.5675h1.515192v16.7925c3.6819-.0796,8.6375-3.3694,10.6397-8.8047ZM49.897099,41.6726l.9351-2.8769.0565-.1762.9917,3.0531h3.2113l-.06.0442-.066792.0491-2.470308,1.7944.0008.0028.9912,3.0519-.0613-.0447-.0801-.0586-2.4569-1.785-2.5963,1.8874.0223-.0708.0217-.0691.9444-2.9077.0021-.0065-2.4569-1.786-.084692-.0281.009192-.0275-.0623-.0458h3.2093ZM48.877599,49.6589l1.9196,1.5801,1.8773-1.6778,1.6293,5.768-2.0885,1.8187-1.4169-4.9772-1.353,5.0473-2.1609-1.699,1.5931-5.8601Z"/>
    <polygon class="cls-3" points="40.592399 43.9853 41.066099 43.9853 41.066099 43.9831 42.639499 43.9831 42.639499 43.9812 41.065907 43.9812 41.065907 43.9771 40.591907 43.9771 40.592399 43.9853"/>
    <rect class="cls-3" x="40.500899" y="42.405499" width=".565008" height=".004102"/>
    <rect class="cls-3" x="37.943299" y="42.403492" width=".7091" height=".005915"/>
    <rect class="cls-3" x="36.359499" y="42.4064" width=".004" height=".0032"/>
    <rect class="cls-3" x="42.645799" y="42.4064" width="1.549108" height=".0032"/>
    <path class="cls-3" d="M51.592299,61.8384c1.5682-1.1669,3.6984-3.2661,4.9412-6.6403,1.4162-3.8427,1.2175-8.9124,1.0073-14.2796-.0716-1.8293-.1458-3.7209-.1587-5.617h-.0044l.0205-.1094c-.001292-.0002-.0312-.0059-.088-.0191-1.0474-.2195-6.5325-1.3149-11.6588-1.3149h-.0393c-5.7668.0059-12.171,1.362-12.235,1.3758l-.085193.0182.007193.0776h-.0014c0,1.8592-.0581,3.7206-.1142,5.5207-.1701,5.4558-.3307,10.6091,1.1671,14.4572,2.1518,5.5214,7.4157,8.8208,11.2616,8.8208v-.098h.004v.0059l.000708.098c1.853192-.0126,4.031092-.8494,5.975392-2.2959ZM33.265299,45.5649l1.5185.001v-1.5767h1.5736v1.5767h-1.5674v.0092h1.5645v1.5675h-1.5707v-.0029l-1.5001-.0012-.0184-1.5736ZM44.194907,43.9802v1.5828h-3.128808v-.0102h-.3864l.001.0162h.3854v1.5676h-.2993c.104108,1.901.2095,3.7959.3305,5.6443.184.0084.2921-.0591.4097-.1171.0803-.097.1728-.1705.2535-.2731.066408-.0845.1095-.2453.2538-.2539.0167.0157.0115.0536.039.0586v.2342l-.0115.0272c-.1043.2447-.2974.4846-.495892.6947-.189908.2007-.437808.4407-.643708.5658-.1095.0664-.2889.0936-.3901.1757-.0557.0448-.1029.1544-.1757.234-.0802.088-.190492.1395-.2148.2145-.0351.1093,0,.3016,0,.4489,0,.4619.0225.8775.039308,1.3461.064692.0773.140392.1242.195092.2342.1735.3498.0706.7646-.0978.9952.0852.1498.2261.2864.2539.4875.0647.4705-.2027.8515-.6441.8781-.0823.2082-.2493.4851-.5073.4684-.2034-.0132-.2987-.2181-.3317-.4684-.5318-.0718-.7154-.9695-.3509-1.3656-.1888-.2051-.3658-.7989-.0977-1.0538.052508-.051.1242-.0748.1561-.1561.0702-.1797.019408-.5413.019408-.8386v-.8781c-.053808-.0915-.142108-.1175-.214508-.1952-.068492-.0737-.0973-.1661-.1756-.2342-.118892-.1033-.302892-.1607-.448892-.2535-.344608-.2191-.719508-.5203-.838808-.9365-.0138-.048-.0473-.1161-.0475-.1819v-.0006c0-.0394.012-.0779.0475-.1104.1242.0505.1294.203.2145.2929.086308.0911.1868.1516.390308.1365.151192-1.1234.247192-2.2742.351192-3.4339.0712-.7935.1432-1.5922.215-2.392h-.3119v-1.5656h-.006v-1.5878h-1.5717v.005h-1.577593v1.5767h-1.513407l.0213-1.5827h.000107l.038793-1.5695,1.4461-.0073v1.5798h.002v-1.5736h.0133v-.0062l-1.4554-.0021.0409-1.5837,1.4157.0031v.001h1.5722v-.002h1.5798v.002h.8547c.0468-.5785.065-1.1692.1336-1.7332.064-.5279.2104-1.0704.312308-1.6.106092-.5532.181492-1.142.292392-1.6389h.1367c.1586.2736.1714.6005.234.917.0616.3106.1346.6342.1951.956.0605.3199.1481.6506.1756.9754.0306.3599.0334.7191.0587,1.0925.0228.3382.0442.6801.066,1.021h.6677v.0102h1.5696v1.5837h.004v-1.5878h3.0636v1.5961h-1.512392v1.5675h-1.549108v.0031h1.549108ZM37.931199,45.569v1.5676h-1.5736v-1.5676h1.5736ZM36.361499,45.5526v-1.5675h1.5675v1.5675h-1.5675ZM44.146907,38.17c-.038-.0253-.067108-.0621-.099608-.0947-.2325-.2324-.5455-.4117-.9709-.458.0327.418.2163.739.4531.9758.0329.0329.0693.0615.0946.0996-.1777.0976-.4214.1842-.6921.1842-.2706,0-.5143-.0866-.692-.1842.0247-.0385.062-.0671.0946-.0996.2324-.2325.4117-.5453.458-.9709-.418.0328-.739.2164-.9758.4531-.032892.033-.0615.0693-.0996.0947-.0976-.1778-.1842-.4215-.1842-.6921,0-.2707.0866-.5144.1842-.692.038.0251.067.062.0996.0945.2325.2325.5454.4118.9709.4581-.032792-.418-.2164-.7391-.4531-.9759-.033-.0329-.0693-.0615-.0946-.0996.1682-.0987.3926-.1673.6472-.1792.2854-.0133.5502.0738.7369.1792-.025192.038-.0621.0671-.0946.0996-.2325.2325-.4118.5454-.4581.9709.418-.0328.739-.2162.9759-.4531.0329-.0329.0615-.0693.099608-.0945.097592.1776.184092.4213.184092.692,0,.2706-.0865.5143-.184092.6921ZM37.305399,38.1863c-.038-.0252-.0671-.0621-.0996-.0946-.2325-.2325-.5455-.4118-.970892-.4581.032693.418.216293.7391.453093.9759.032907.0329.0693.0615.0946.0996-.177692.0976-.4214.1841-.6921.1841-.270593,0-.5143-.0865-.692-.1841.0247-.0386.062-.0671.0945-.0996.2325-.2325.4118-.5454.4581-.9709-.418.0327-.739.2163-.9758.4531-.0329.0329-.0615.0693-.0996.0946-.0976-.1777-.1842-.4214-.1842-.6921,0-.2706.0866-.5143.1842-.692.038.0252.067.062.0996.0946.2325.2324.5454.4117.9708.458-.0327-.418-.2163-.739-.4531-.9758-.0329-.0329-.0692-.0615-.0945-.0996.1682-.0987.3926-.1673.6472-.1792.2854-.0133.550207.0738.7369.1792-.0252.038-.0621.0671-.0946.0996-.2325.2325-.4118.5454-.458093.9709.418-.0329.739-.2163.975892-.4531.0329-.033.0615-.0693.0996-.0946.097508.1777.1841.4214.1841.692,0,.2707-.086592.5144-.1841.6921ZM45.710099,47.1426h-3.0643v.0061h-1.5614v-1.5675h1.5551v-.0122h1.555408v.0061h.000192v-1.5939h.0017v-1.5675h1.5133v-8.3593c4.9731.0082,10.2676,1.0425,11.4767,1.293.0139,1.8842.087,3.7623.1582,5.5788.2095,5.3473.4074,10.398-.9952,14.2042-2.0022,5.4353-6.9578,8.7251-10.6397,8.8047v-16.7925Z"/>
    <polygon class="cls-1" points="34.791299 40.8176 34.791299 40.8166 33.375599 40.8135 33.334699 42.3972 34.790099 42.3993 34.790099 40.8176 34.791299 40.8176"/>
    <path class="cls-1" d="M38.638699,42.5573c.004-.0495.0093-.0986.0134-.1479h-.7088v-.0059h-.0063v-1.5859h.0063v-.002h-1.5798v.002h.0002v1.5888h-.0002v.0032h1.5706v1.5675h-.0029v.006h.5915c.0397-.4762.079-.952.116-1.4258Z"/>
    <path class="cls-1" d="M40.592399,43.9853c.0293.5218.0586,1.0442.0873,1.5675h.3864v-1.5675h-.4737Z"/>
    <polygon class="cls-1" points="36.359399 42.4096 36.359499 42.4096 36.359499 42.4064 34.790099 42.4064 34.790099 42.4055 34.776799 42.4055 34.776799 43.9791 34.774799 43.9791 33.289799 43.9791 33.289907 43.9761 33.289799 43.9761 33.268499 45.5588 34.781907 45.5588 34.781907 43.9821 36.359499 43.9821 36.359499 43.9771 36.359399 43.9771 36.359399 42.4096"/>
    <path class="cls-1" d="M42.645799,42.4096v-.0032h1.549108v-1.5929h-1.551208v1.5878h-.004v.0051h-1.5736v-1.5888h.004v-.0102h-.6677c.0337.5302.0666,1.0627.0984,1.5981h.565108v.0041h.000192v1.5675h-.000192v.0041h1.573592v.0019h.0002v1.5799h1.555208v-1.5828h-1.549108v-1.5706Z"/>
    <rect class="cls-1" x="36.361499" y="43.9851" width="1.5675" height="1.5675"/>
    <polygon class="cls-1" points="42.639499 45.5812 41.084399 45.5812 41.084399 47.1487 42.645799 47.1487 42.645799 47.1426 42.639499 47.1426 42.639499 45.5812"/>
    <path class="cls-1" d="M37.937199,45.5649v1.5656h.3119c.0467-.5218.092808-1.0434.1384-1.5656h-.4503Z"/>
    <polygon class="cls-1" points="34.783799 47.1397 34.783799 47.1426 36.354499 47.1426 36.354499 45.5751 34.789999 45.5751 34.789999 47.1397 34.783799 47.1397"/>
    <polygon class="cls-2" points="36.359499 42.4064 36.363499 42.4064 36.363699 42.4064 36.363699 40.8176 36.363499 40.8176 34.791299 40.8176 34.790099 40.8176 34.790099 42.3993 34.790099 42.4055 34.790099 42.4064 36.359499 42.4064"/>
    <path class="cls-2" d="M37.936999,42.4035h.7157c.0435-.5151.099208-1.0275.1423-1.5439l.003-.042h-.861v1.5859Z"/>
    <polygon class="cls-2" points="41.066099 42.4064 42.639699 42.4064 42.639699 42.4013 42.639699 40.8176 41.070099 40.8176 41.066099 40.8176 41.066099 42.4064"/>
    <polygon class="cls-2" points="44.194907 42.4096 45.707299 42.4096 45.707299 40.8135 44.198907 40.8135 44.194907 40.8135 44.194907 42.4064 44.194907 42.4096"/>
    <rect class="cls-2" x="42.645799" y="42.4096" width="1.549108" height="1.5675"/>
    <polygon class="cls-2" points="45.765399 45.5751 45.768499 45.5751 45.768499 43.9812 45.715299 43.9812 44.196799 43.9812 44.195099 43.9812 44.195099 45.5751 45.765399 45.5751"/>
    <polygon class="cls-2" points="44.194907 45.569 42.639499 45.569 42.639499 45.5812 42.639499 47.1426 42.645799 47.1426 44.188799 47.1426 44.194907 47.1426 44.194907 45.5751 44.194907 45.569"/>
    <polygon class="cls-2" points="34.774799 43.9791 34.774799 43.9791 34.774799 42.3993 33.328699 42.4066 33.289907 43.9761 33.289799 43.9791 34.774799 43.9791"/>
    <polygon class="cls-2" points="37.934099 42.4096 36.363499 42.4096 36.359499 42.4096 36.359399 42.4096 36.359399 43.9771 36.359499 43.9771 37.931199 43.9771 37.934099 43.9771 37.934099 42.4096"/>
    <path class="cls-2" d="M38.522699,43.9831h-.5915v1.5818h.4563c.0461-.5279.0913-1.0551.1352-1.5818Z"/>
    <path class="cls-2" d="M40.591907,43.9771h.474192v-1.5675h-.5651c.030908.5209.0612,1.0433.090908,1.5675Z"/>
    <polygon class="cls-2" points="42.639499 43.9831 41.066099 43.9831 41.066099 43.9853 41.066099 45.5528 41.066099 45.563 42.639499 45.563 42.639699 45.563 42.639699 43.9831 42.639499 43.9831"/>
    <path class="cls-2" d="M41.066099,47.1366v-1.5676h-.3854c.0287.5227.0575,1.0451.0861,1.5676h.2993Z"/>
    <rect class="cls-2" x="36.357599" y="45.569" width="1.5736" height="1.5676"/>
    <polygon class="cls-2" points="34.783799 47.1397 34.789999 47.1397 34.789999 45.5751 34.789999 45.5659 36.357399 45.5659 36.357399 43.9892 34.783799 43.9892 34.783799 45.5659 33.265299 45.5649 33.283699 47.1385 34.783799 47.1397"/>
    <polygon class="cls-7" points="50.949499 43.0622 52.439099 43.5462 52.437599 43.5412 54.852599 41.787 50.949499 43.0622"/>
    <polygon class="cls-2" points="54.894999 41.7216 51.875099 41.7216 50.928099 43.0177 54.894999 41.7216"/>
    <polygon class="cls-2" points="54.938299 41.7247 54.942499 41.7216 54.937299 41.7216 54.938299 41.7247"/>
    <polygon class="cls-2" points="53.373699 46.4719 53.373999 46.4721 53.393199 46.4861 53.385699 46.4631 53.373699 46.4719"/>
    <polygon class="cls-2" points="52.450199 43.5825 52.444699 43.5994 50.978199 43.123 53.376499 46.4348 52.450199 43.5825"/>
    <polygon class="cls-7" points="50.899199 43.0973 50.897699 43.0968 50.901499 44.6758 53.308599 46.4244 50.899199 43.0973"/>
    <polygon class="cls-7" points="50.887907 38.805 50.897699 42.9764 51.835499 41.6928 50.889099 38.7791 50.880599 38.8051 50.887907 38.805"/>
    <polygon class="cls-7" points="50.848699 43.0291 50.848699 43.0276 49.902499 41.7216 46.836907 41.7216 46.848299 41.7299 50.848699 43.0291"/>
    <path class="cls-2" d="M50.861499,38.8051l-.0059-.0019.0059.0019Z"/>
    <polygon class="cls-2" points="49.942099 41.6928 50.848499 42.9439 50.839299 38.9328 49.942099 41.6928"/>
    <polygon class="cls-2" points="50.792199 43.0623 46.976199 41.823 49.335499 43.538 50.792199 43.0623"/>
    <polygon class="cls-7" points="50.798799 43.1117 49.323299 43.5936 48.424099 46.3619 50.798799 43.1117"/>
    <polygon class="cls-2" points="50.852499 44.6923 50.848907 43.1263 48.404399 46.4717 50.852499 44.6923"/>
    <path class="cls-3" d="M46.740907,41.7459l.084692.0281,2.4569,1.786-.0021.0065-.9444,2.9077-.0217.0691-.0223.0708,2.5963-1.8874,2.4569,1.785.0801.0586.0613.0447-.9912-3.0519-.0008-.0028,2.470308-1.7944.066792-.0491.06-.0442h-3.2113l-.9917-3.0531-.0565.1762-.9351,2.8769h-3.2093l.0623.0458-.009192.0275ZM49.902499,41.7216l.9462,1.306v.0015l-4.0004-1.2992-.011392-.0083h3.065592ZM54.894999,41.7216l-3.9669,1.2961.947-1.2961h3.0199ZM50.901499,44.6758l-.0038-1.579.0015.0005,2.4094,3.3271-2.4071-1.7486ZM49.323299,43.5936l1.4755-.4819-2.3747,3.2502.8992-2.7683ZM52.444699,43.5994l.0055-.0169.9263,2.8523-2.3983-3.3118,1.4665.4764ZM52.439099,43.5462l-1.4896-.484,3.9031-1.2752-2.415,1.7542.0015.005ZM50.792199,43.0623l-1.4567.4757-2.3593-1.715,3.816,1.2393ZM50.848907,43.1263l.003592,1.566-2.4481,1.7794,2.444508-3.3454ZM53.373999,46.4721l-.0003-.0002.012-.0088.0075.023-.0192-.014ZM54.938299,41.7247l-.001-.0031h.0052l-.0042.0031ZM51.835499,41.6928l-.9378,1.2836-.009792-4.1714-.007308.0001.0085-.026.9464,2.9137ZM50.848499,42.9439l-.9064-1.2511.8972-2.76.0092,4.0111ZM50.861499,38.8051h0l-.0059-.0019.0059.0019Z"/>
    <polygon class="cls-2" points="49.445399 57.218 50.798399 52.1707 52.215299 57.1479 54.303799 55.3292 52.674499 49.5612 50.797199 51.239 48.877599 49.6589 47.284499 55.519 49.445399 57.218"/>
    <path class="cls-3" d="M35.060907,68.6778c.006293-.0687.012793-.139.019293-.2092.0293-.3136.0614-.6381.0991-.9422.0238-.1942.0104-.3897.0752-.5491.2002-.0006.3859.0964.5706.1613.5551.1961,1.102807.37,1.6575.5815.3595.1366.772.2189,1.1732.323.400108.1033.8137.2078,1.2267.2688.8647.1282,1.7813.212,2.7341.2585.9498.0459,1.9308.0643,2.927308.0643,1.996192,0,3.943592-.058,5.661492-.3228.8488-.1307,1.6446-.3502,2.3998-.5918.3848-.1234.768-.2317,1.141-.3552.1871-.0623.3645-.1406.5488-.2045.184-.0637.3668-.147.56-.1831.0901.1565.0846.3693.1074.5704.0308.2738.0641.5195.0979.7812.017608.1351.035.2733.052608.4242.007292.0634.013592.1277.020492.191.0153.1416.0364.2752.0978.3582.0783.1051.2715.2086.4309.2472.3492.0856.7811-.0021,1.087-.1075.3299-.1141.5984-.2591.8716-.377.5756-.247,1.246-.4946,1.8731-.6239.1817-.0375.3723-.05.5595-.0752.5765-.0783,1.1698-.0025,1.5391.2688.3586.2641.4968.7914.408508,1.4209-.022108.1609-.103908.3481,0,.5165.135692.0149.201092-.111.280592-.1828.237-.2158.467408-.4481.6561-.721.1351-.1957.2292-.4146.194-.6997-.0312-.2501-.135692-.4349-.2476-.6676-.193092-.4001-.2663-1.0019-.1615-1.5606.0377-.2019.111-.4937.172-.7428.0708-.2876.1376-.5679.0431-.7853-.0903-.208-.3081-.3165-.5276-.42-.2345-.1102-.4915-.2131-.769-.2966-.2196-.066-.4535-.1174-.6978-.153-.2719-.0395-.5572-.059-.8578-.0452-1.0363.0471-1.9352.2438-2.6692.6349-.0842.0451-.2431.1655-.3119.1506-.1091-.0232-.1481-.3408-.172392-.5056-.031208-.215-.052108-.4274-.043108-.6354.0174-.3882.1259-.9009-.0643-1.1944-.0601-.0922-.1284-.1175-.2263-.1615h-.9688c-.934.1722-1.766492.4625-2.583.775-.6046.2313-1.198492.5032-1.7864.7319-.2058.0798-.4232.1268-.6457.1936-.422.1269-.8611.2562-1.3238.3551-.3505.0749-.754592.0861-1.1305.1294-.1243.0143-.253092.0356-.3763.043-1.0232.0603-2.1067.1183-3.239792.1183-.853308,0-1.690208.0155-2.475608-.0431-.269-.0202-.5303-.0281-.7855-.0539-1.025-.1035-1.972-.2614-2.8307-.5274-.4195-.1297-.817192-.3015-1.216192-.4626-1.204908-.4862-2.398907-.9864-3.788507-1.2593-.1614,0-.3234-.0744-.4849-.0744-.1471,0-.293593.0744-.4408.0744-.4397.1441-.3376.8027-.3015,1.3886.0114.1818.0134.412-.0105.624-.0187.1659-.0692.473-.1723.4952-.0578.0124-.2094-.0921-.301493-.1401-.308107-.1605-.617607-.2784-.946907-.3764-.109-.0327-.2179-.0803-.3338-.1081-.7594-.1802-1.7108-.2116-2.5104-.0849-.0982.0155-.1952.0325-.2881.0528-.1313.0289-.2614.0723-.3886.1202-.091.034-.1808.0702-.2676.1062-.211.0866-.4372.1702-.602593.2902-.082707.0599-.181307.1495-.226407.2585-.1243.3025.0371.7145.1079,1.0008.065.2629.1397.5665.1719.8612.0392.3542,0,.667-.0862.9255-.084193.2526-.2634.4874-.3441.7424,0,.098-.0743.2333-.0743.3313,0,.11.0743.1833.0743.2931.1555.3482.4506.6766.7532.9797.0783.0777.234707.2625.3338.2149.113907-.054.0242-.3952.0108-.5276-.0223-.2162-.0326-.4001-.0108-.5698.0485-.3783.1822-.6523.419907-.8291.471-.3511,1.330293-.3421,2.077-.1936.638893.1272,1.263293.3417,1.872893.6136.2769.1234.5582.266.8716.3764.3076.1085.7588.2258,1.1623.1079.1833-.0534.3714-.1758.4413-.3337.0175-.0394.0317-.0821.044-.1267.0341-.1238.0512-.2637.063907-.4008ZM58.545499,65.2336c.818-.4537,2.0017-.74,3.2502-.6028.5329.0586.9324.1828,1.3673.377.1818.0811.4656.1965.5165.3549.0411.1298-.0119.3423-.0649.5276-.0456.1618-.0955.3427-.1288.4842-.0761.3228-.1466.727-.1188,1.1087.011908.1577.0446.3201.0758.4627.0292.1362.0698.2734.1287.3982.1032.2183.2863.4923.269408.7858-.014308.2438-.192608.4443-.322908.5918-.0475.054-.0837.121-.1722.1294-.0421-.1366-.0125-.226-.0215-.3443-.0983-1.2632-1.202392-1.6514-2.6157-1.3994-.7686.1372-1.3786.3402-1.990692.5922-.122308.0501-.250708.0935-.366.1506-.230808.1134-.459608.2426-.710708.3228-.4506.1437-1.3727.2437-1.2376-.4308.0515-.2556.2507-.4462.4521-.6027.0995-.0767.2027-.159.3121-.2149.1173-.0604.2467-.096.366108-.1511.208692-.0961.458392-.2356.656492-.3873.1886-.1445.4156-.3515.4521-.5917.018-.1194-.0138-.2581-.043-.3878-.0571-.251-.088592-.4288-.1833-.6779-.0331-.0877-.1326-.2134-.118292-.301.011892-.0748.153492-.1418.247592-.1942ZM33.489599,64.782c.072307-.4066.0159-.9345,0-1.3997-.0075-.2099-.0035-.4129.0966-.4843.1421-.1004.564-.048.8072-.0109.7879.1219,1.4584.367,2.1097.6033.6566.2377,1.3004.5006,1.9481.7641.212.0863.422.1861.6349.2581.9157.31,1.9374.4942,3.0135.6025.5527.0561,1.1192.0804,1.7006.1081.5784.0272,1.173708-.0046,1.7759,0,1.1816.0085,2.3627-.0446,3.4552-.1402.565-.0496,1.0964-.0842,1.592608-.2155.480392-.1266.941892-.2529,1.41-.3873.451-.1291.871892-.3342,1.302292-.5055.8712-.3477,1.6664-.6839,2.6692-.9364.210508-.053.434-.1125.7424-.1615.247108-.0391.7285-.0817.829108.0643.110392.1611.036192.6859.021292.9043-.044.6635.0698,1.2504.333708,1.6254.145592.2065.263092.373.290592.6883-.1573.0069-.291592-.0653-.4521-.0752-.257-.0159-.5258.0371-.775.1292-.4441.1649-.877492.3168-1.3237.4733-.4491.1577-.8563.3115-1.3237.474-.6538.2264-1.3882.425-2.0774.6131-.948.259-2.0072.3853-3.1429.4521-.2807.0168-.5594.0496-.8502.054-.8547.0134-1.7437.0432-2.6365.0432-1.5204,0-2.961-.0318-4.359-.1402-.5348-.0412-1.0677-.1323-1.5824-.2149-.507-.0817-.9814-.2095-1.4529-.3446-.2347-.0674-.4655-.1219-.6889-.2046-.9002-.3339-1.7506-.5914-2.6692-.9257-.2011-.0731-.4313-.1535-.6566-.2365-.2942-.1085-.5562-.2021-.8826-.1615-.1639.0203-.3352.0961-.4412.097-.018293.0006-.0277-.0078-.0322-.0218.112-.5423.5106-.8092.6136-1.388ZM34.705907,69.0117c-.094707.2366-.441307.3115-.818107.2579-.2997-.0421-.6111-.1697-.829-.2689-.2551-.1163-.5042-.2388-.7533-.3442-.2625-.1113-.5284-.203-.7963-.2906-.5398-.1763-1.2014-.3228-1.862-.3228-1.009293,0-1.7125.4014-1.840293,1.3128-.021307.1504.010893.3138-.032707.4952-.0896-.01-.1258-.0758-.1718-.1294-.1437-.1653-.3497-.4234-.323-.721.0254-.2808.218-.5244.3333-.8072.2561-.6265.1238-1.4946-.0643-2.1417-.0624-.2151-.150493-.5276-.0971-.6891.0554-.1663.3273-.2841.517-.3658.4354-.1877.8295-.3121,1.3882-.3661.2649-.0252.5328-.0549.818-.0321.9048.0723,1.774.2778,2.4217.6567.0921.0539.2258.1148.2368.1936.0108.0773-.0734.1956-.1076.2907-.0801.2214-.1094.3957-.1614.6348-.0292.1332-.0609.2704-.043093.3879.066893.446.617093.7528.99.9359.224393.1104.457093.1842.656593.3124.1957.1254.382407.2803.484407.4734.073293.1387.119293.3626.054.5276Z"/>
    <path class="cls-2" d="M50.046599,66.8169c.0155.0913.084.1256.1636.1122.086708-.0148.151708-.086.163-.1627.0013-.0195.0002-.0409-.003292-.062l-.021-.1242c-.187508.0318-.325308.1009-.302308.2367Z"/>
    <path class="cls-2" d="M48.895199,66.5119c.1909-.0245.2964-.1362.2758-.2965-.0188-.1462-.1315-.2205-.3129-.1971-.0708.009-.1196.0202-.1446.0308l.0603.4691c.0315.0029.0672.0008.1214-.0063Z"/>
    <path class="cls-2" d="M46.367799,66.6019c-.152.0044-.2097.1465-.2165.2414l.427608-.0124c-.002508-.0876-.044708-.2338-.211108-.229Z"/>
    <path class="cls-2" d="M53.609599,66.0496c.024308.0894.0957.1168.1737.0955.0848-.0229.1428-.1.1462-.1773-.0002-.0196-.003592-.0408-.0092-.0615l-.0329-.1215c-.183492.0498-.314.1319-.2778.2648Z"/>
    <path class="cls-2" d="M42.322099,66.5096c.0454-.3296-.1238-.5304-.4345-.573-.077692-.0108-.133-.0111-.1644-.0083l-.1427,1.0385c.029408.0112.0815.0183.1238.0243.3268.0472.5657-.1022.6178-.4815Z"/>
    <path class="cls-2" d="M38.215399,65.4502c.0356-.1432-.0424-.253-.22-.297-.0692-.0172-.1188-.0247-.1458-.0241l-.1141.459c.0281.0144.0622.0251.1152.0385.1867.0463.3257-.0195.3647-.1764Z"/>
    <path class="cls-2" d="M44.620907,67.3022c.142592.0065.236692-.1297.246192-.3412.0076-.1709-.0511-.3496-.2149-.3568-.1709-.0077-.2454.1674-.253.3383-.009.1995.0675.3528.221708.3597Z"/>
    <path class="cls-2" d="M39.917799,66.7282c.1402.0271.2529-.0938.2929-.3016.0325-.168.0006-.3534-.1605-.3846-.168-.0323-.2671.1303-.2995.2981-.037792.1961.0155.3588.1671.3881Z"/>
    <path class="cls-2" d="M32.908199,66.1918c.106-.0009.2773-.0767.4412-.097.3264-.0406.5884.053.8826.1615.2253.083.4555.1634.6566.2365.9186.3343,1.769.5918,2.6692.9257.2234.0827.4542.1372.6889.2046.4715.1351.9459.2629,1.4529.3446.5147.0826,1.0476.1737,1.5824.2149,1.398.1084,2.8386.1402,4.359.1402.8928,0,1.7818-.0298,2.6365-.0432.2908-.0044.5695-.0372.8502-.054,1.1357-.0668,2.1949-.1931,3.1429-.4521.6892-.1881,1.4236-.3867,2.0774-.6131.4674-.1625.8746-.3163,1.3237-.474.446208-.1565.8796-.3084,1.3237-.4733.2492-.0921.518-.1451.775-.1292.160508.0099.2948.0821.4521.0752-.0275-.3153-.145-.4818-.290592-.6883-.263908-.375-.377708-.9619-.333708-1.6254.0149-.2184.0891-.7432-.021292-.9043-.100608-.146-.582-.1034-.829108-.0643-.3084.049-.531892.1085-.7424.1615-1.0028.2525-1.798.5887-2.6692.9364-.4304.1713-.851292.3764-1.302292.5055-.468108.1344-.929608.2607-1.41.3873-.496208.1313-1.027608.1659-1.592608.2155-1.0925.0956-2.2736.1487-3.4552.1402-.602192-.0046-1.1975.0272-1.7759,0-.5814-.0277-1.1479-.052-1.7006-.1081-1.0761-.1083-2.0978-.2925-3.0135-.6025-.2129-.072-.4229-.1718-.6349-.2581-.6477-.2635-1.2915-.5264-1.9481-.7641-.6513-.2363-1.3218-.4814-2.1097-.6033-.2432-.0371-.6651-.0895-.8072.0109-.1001.0714-.1041.2744-.0966.4843.0159.4652.072307.9931,0,1.3997-.103.5788-.5016.8457-.6136,1.388.0045.014.013907.0224.0322.0218ZM53.565599,65.2072c.3741-.1015.5507.0868.6228.3528l.1064.3923c.0287.1056.0614.2076.0918.2659l-.3141.0852-.0513-.107-.0067.0019c-.0492.1095-.1508.1889-.2838.225-.2271.0617-.4074-.0669-.456-.2458-.079-.2913.1453-.5.5421-.6077l-.0038-.0136c-.0168-.062-.072-.1382-.244-.0915-.1146.031-.2256.1031-.2866.169l-.1253-.2075c.0662-.0648.2043-.1637.4085-.219ZM53.139999,66.5621l-.3509.0863-.2776-1.1288.3509-.0863.2776,1.1288ZM52.568907,64.9867c.113092-.0279.200892.0312.227692.1298.0239.097-.0283.193-.146.2221-.1108.0272-.201692-.0337-.2256-.1307-.0245-.0991.0306-.1934.143908-.2212ZM51.952399,65.6425l.0608.2057.0092-.0021c.0203-.1803.1416-.2806.253-.3056.032508-.0073.0491-.0086.0757-.0096l.0746.3314c-.029.0017-.0577.0035-.0972.0123-.1299.0291-.2024.1184-.2011.2326.0006.0243.0046.0529.0108.0804l.1293.5752-.3524.0794-.1711-.7606c-.0377-.167-.0643-.2755-.0932-.3712l.3016-.0679ZM50.839099,65.6532l.3282-.165.061608.3077.254092-.0507.052.261-.254092.0507.082692.4126c.0274.1375.075.1936.1799.1725.0488-.0097.0717-.0168.1029-.0304l.0559.2677c-.041.0253-.124392.0565-.222392.076-.114208.0227-.217508.0023-.287608-.0444-.0788-.0545-.1333-.1577-.1655-.3184l-.0932-.4661-.1515.0302-.052-.261.1515-.0302-.0425-.2122ZM50.084799,65.9741c.3822-.0647.5396.14.5856.4119l.0677.4007c.0184.1079.040808.2126.0656.2734l-.3212.0544-.0404-.1114-.0071.0012c-.0595.1041-.1684.1731-.3042.1963-.2321.039-.399-.1064-.43-.2891-.0501-.2976.1933-.4836.5987-.5523l-.0025-.0139c-.0105-.0632-.058092-.1443-.2338-.1145-.117292.0198-.2346.0806-.3017.1401l-.1045-.2187c.0721-.058.2193-.1429.4278-.1781ZM48.806499,65.7471c.2216-.0285.385-.0065.5019.0647.114.067.1971.1904.2171.3461.0199.1556-.0124.2962-.0977.3959-.1081.129-.2825.2065-.4947.2339-.047192.0059-.0901.009-.1239.0063l.0732.5704-.3559.0457-.2014-1.5677c.1083-.0331.2621-.0671.4814-.0953ZM47.116399,66.13l.3464-.1224.0224.313.2584-.0186.019.2654-.2584.0186.03.4196c.01.1401.0502.2013.1568.1938.0497-.0036.0733-.0078.106-.0172l.021908.2725c-.044.0199-.130608.0402-.230108.0474-.1163.0083-.2163-.0252-.2798-.0799-.0714-.0643-.1125-.1732-.1243-.3368l-.033792-.4742-.154208.0109-.0189-.2653.154-.011-.0154-.2158ZM46.382099,66.3613c.3756-.0109.5265.2771.5349.5645.001908.0618-.0036.1167-.0076.1429l-.7484.0219c.0138.1494.1657.2164.3343.2114.1234-.0036.2228-.0232.3193-.0591l.0546.2432c-.117292.0534-.2616.0813-.4184.0859-.3943.0115-.6266-.2099-.6372-.5735-.0086-.2945.1647-.6253.5685-.6372ZM44.675699,66.3458c.3538.0159.5803.271.5645.6225-.019.425-.329292.6062-.6402.5922-.3397-.0151-.5908-.2501-.574092-.6251.017-.3775.274792-.6064.649792-.5896ZM42.790499,66.8183c.0269-.2935.2387-.601.6411-.5641.3741.0342.4894.3383.4632.6245-.0057.0617-.0177.1154-.024892.1411l-.745508-.0682c-.0042.1501.1384.2344.3066.2499.123.0113.224.0039.324-.0204l.025.2481c-.1229.0389-.2694.0494-.4256.0351-.393-.036-.5971-.2838-.5639-.646ZM41.400099,65.6249c.1347-.0031.3086.0065.4877.031.3038.0419.4936.1255.6289.2592.1479.1451.2246.3548.1861.6349-.0418.3039-.1811.4983-.3497.607-.1864.1159-.4518.1467-.7628.1039-.186-.0255-.3187-.0557-.4041-.0796l.2139-1.5564ZM40.110799,65.79c.3479.067.5349.3524.4682.698-.0806.4175-.4137.5519-.7195.4929-.3339-.0645-.5481-.3333-.477-.702.0716-.3712.3598-.5601.7283-.4889ZM38.727399,65.5204l.3018.0668-.0325.212.0094.0021c.0951-.1542.2475-.1937.3587-.169.0325.0073.0483.0132.0727.0236l-.0734.3318c-.0268-.0108-.0536-.0217-.0931-.0305-.1299-.0287-.2335.0215-.2808.1254-.0099.0222-.0184.0495-.0245.0775l-.1274.5753-.3526-.078.1684-.7612c.037-.1671.0586-.2767.0733-.3758ZM38.490099,65.1241c.0819.1037.1144.249.0766.4013-.0379.1521-.1192.2715-.2349.3335-.1475.0807-.3383.0897-.545892.0381-.046108-.0115-.087-.0242-.117508-.0391l-.1387.5582-.3484-.0865.3812-1.534c.1131.0086.2689.0327.483408.0859.216592.054.361092.1337.444192.2426Z"/>
    <path class="cls-2" d="M43.388499,66.4911c-.151592-.0138-.2257.1201-.2438.2141l.4259.039c.0081-.0876-.0164-.2378-.1821-.2531Z"/>
    <path class="cls-2" d="M34.651907,68.4841c-.102-.1931-.288707-.348-.484407-.4734-.1995-.1282-.4322-.202-.656593-.3124-.372907-.1831-.923107-.4899-.99-.9359-.017807-.1175.013893-.2547.043093-.3879.052-.2391.0813-.4134.1614-.6348.0342-.0951.1184-.2134.1076-.2907-.011-.0788-.1447-.1397-.2368-.1936-.6477-.3789-1.5169-.5844-2.4217-.6567-.2852-.0228-.5531.0069-.818.0321-.5587.054-.9528.1784-1.3882.3661-.1897.0817-.4616.1995-.517.3658-.053393.1615.0347.474.0971.6891.1881.6471.3204,1.5152.0643,2.1417-.1153.2828-.3079.5264-.3333.8072-.0267.2976.1793.5557.323.721.046.0536.0822.1194.1718.1294.0436-.1814.0114-.3448.032707-.4952.127793-.9114.831-1.3128,1.840293-1.3128.6606,0,1.3222.1465,1.862.3228.2679.0876.5338.1793.7963.2906.2491.1054.4982.2279.7533.3442.2179.0992.5293.2268.829.2689.3768.0536.7234-.0213.818107-.2579.065293-.165.019293-.3889-.054-.5276Z"/>
    <path class="cls-2" d="M58.599499,66.4067c.0292.1297.061.2684.043.3878-.0365.2402-.2635.4472-.4521.5917-.1981.1517-.4478.2912-.656492.3873-.119408.0551-.248808.0907-.366108.1511-.1094.0559-.2126.1382-.3121.2149-.2014.1565-.4006.3471-.4521.6027-.1351.6745.787.5745,1.2376.4308.2511-.0802.4799-.2094.710708-.3228.115292-.0571.243692-.1005.366-.1506.612092-.252,1.222092-.455,1.990692-.5922,1.413308-.252,2.5174.1362,2.6157,1.3994.009.1183-.0206.2077.0215.3443.0885-.0084.1247-.0754.1722-.1294.1303-.1475.3086-.348.322908-.5918.016892-.2935-.166208-.5675-.269408-.7858-.0589-.1248-.0995-.262-.1287-.3982-.0312-.1426-.063892-.305-.0758-.4627-.0278-.3817.0427-.7859.1188-1.1087.0333-.1415.0832-.3224.1288-.4842.053-.1853.106-.3978.0649-.5276-.0509-.1584-.3347-.2738-.5165-.3549-.4349-.1942-.8344-.3184-1.3673-.377-1.2485-.1372-2.4322.1491-3.2502.6028-.0941.0524-.2357.1194-.247592.1942-.014308.0876.085192.2133.118292.301.094708.2491.1262.4269.1833.6779Z"/>
    <path class="cls-1" d="M37.181299,66.3296l.3484.0865.1387-.5582c.030508.0149.0714.0276.117508.0391.207592.0516.398392.0426.545892-.0381.1157-.062.197-.1814.2349-.3335.0378-.1523.0053-.2976-.0766-.4013-.0831-.1089-.2276-.1886-.444192-.2426-.214508-.0532-.370308-.0773-.483408-.0859l-.3812,1.534ZM37.849599,65.1291c.027-.0006.0766.0069.1458.0241.1776.044.2556.1538.22.297-.039.1569-.178.2227-.3647.1764-.053-.0134-.0871-.0241-.1152-.0385l.1141-.459Z"/>
    <path class="cls-1" d="M38.838299,66.7354l.1274-.5753c.0061-.028.0146-.0553.0245-.0775.0473-.1039.1509-.1541.2808-.1254.0395.0088.0663.0197.0931.0305l.0734-.3318c-.0244-.0104-.0402-.0163-.0727-.0236-.1112-.0247-.2636.0148-.3587.169l-.0094-.0021.0325-.212-.3018-.0668c-.0147.0991-.0363.2087-.0733.3758l-.1684.7612.3526.078Z"/>
    <path class="cls-1" d="M39.859499,66.9809c.3058.059.6389-.0754.7195-.4929.0667-.3456-.1203-.631-.4682-.698-.3685-.0712-.6567.1177-.7283.4889-.0711.3687.1431.6375.477.702ZM39.750699,66.3401c.0324-.1678.1315-.3304.2995-.2981.1611.0312.193.2166.1605.3846-.04.2078-.1527.3287-.2929.3016-.1516-.0293-.204892-.192-.1671-.3881Z"/>
    <path class="cls-1" d="M42.353099,67.157c.1686-.1087.3079-.3031.3497-.607.0385-.2801-.0382-.4898-.1861-.6349-.1353-.1337-.3251-.2173-.6289-.2592-.1791-.0245-.353-.0341-.4877-.031l-.2139,1.5564c.0854.0239.2181.0541.4041.0796.311.0428.5764.012.7628-.1039ZM41.723199,65.9283c.0314-.0028.086708-.0025.1644.0083.3107.0426.4799.2434.4345.573-.0521.3793-.291.5287-.6178.4815-.0423-.006-.094392-.0131-.1238-.0243l.1427-1.0385Z"/>
    <path class="cls-1" d="M43.354399,67.4643c.1562.0143.3027.0038.4256-.0351l-.025-.2481c-.1.0243-.201.0317-.324.0204-.1682-.0155-.3108-.0998-.3066-.2499l.745508.0682c.007192-.0257.019192-.0794.024892-.1411.0262-.2862-.0891-.5903-.4632-.6245-.4024-.0369-.6142.2706-.6411.5641-.0332.3622.1709.61.5639.646ZM43.388499,66.4911c.1657.0153.1902.1655.1821.2531l-.4259-.039c.0181-.094.092208-.2279.2438-.2141Z"/>
    <path class="cls-1" d="M44.599999,67.5605c.310908.014.6212-.1672.6402-.5922.0158-.3515-.2107-.6066-.5645-.6225-.375-.0168-.632792.2121-.649792.5896-.016708.375.234392.61.574092.6251ZM44.652199,66.6042c.1638.0072.2225.1859.2149.3568-.0095.2115-.1036.3477-.246192.3412-.154208-.0069-.230708-.1602-.221708-.3597.0076-.1709.0821-.346.253-.3383Z"/>
    <path class="cls-1" d="M46.450799,67.572c.1568-.0046.301108-.0325.4184-.0859l-.0546-.2432c-.0965.0359-.1959.0555-.3193.0591-.1686.005-.3205-.062-.3343-.2114l.7484-.0219c.004-.0262.009508-.0811.0076-.1429-.0084-.2874-.1593-.5754-.5349-.5645-.4038.0119-.5771.3427-.5685.6372.0106.3636.2429.585.6372.5735ZM46.367799,66.6019c.1664-.0048.2086.1414.211108.229l-.427608.0124c.0068-.0949.0645-.237.2165-.2414Z"/>
    <path class="cls-1" d="M46.996699,66.6221l.154208-.0109.033792.4742c.0118.1636.0529.2725.1243.3368.0635.0547.1635.0882.2798.0799.0995-.0072.186108-.0275.230108-.0474l-.021908-.2725c-.0327.0094-.0563.0136-.106.0172-.1066.0075-.1468-.0537-.1568-.1938l-.03-.4196.2584-.0186-.019-.2654-.2584.0186-.0224-.313-.3464.1224.0154.2158-.154.011.0189.2653Z"/>
    <path class="cls-1" d="M48.882399,67.3644l-.0732-.5704c.0338.0027.076708-.0004.1239-.0063.2122-.0274.3866-.1049.4947-.2339.0853-.0997.1176-.2403.0977-.3959-.02-.1557-.1031-.2791-.2171-.3461-.1169-.0712-.2803-.0932-.5019-.0647-.2193.0282-.3731.0622-.4814.0953l.2014,1.5677.3559-.0457ZM48.858099,66.0183c.1814-.0234.2941.0509.3129.1971.0206.1603-.0849.272-.2758.2965-.0542.0071-.0899.0092-.1214.0063l-.0603-.4691c.025-.0106.0738-.0218.1446-.0308Z"/>
    <path class="cls-1" d="M50.063199,66.2308c.175708-.0298.2233.0513.2338.1145l.0025.0139c-.4054.0687-.6488.2547-.5987.5523.031.1827.1979.3281.43.2891.1358-.0232.2447-.0922.3042-.1963l.0071-.0012.0404.1114.3212-.0544c-.024792-.0608-.0472-.1655-.0656-.2734l-.0677-.4007c-.046-.2719-.2034-.4766-.5856-.4119-.2085.0352-.3557.1201-.4278.1781l.1045.2187c.0671-.0595.184408-.1203.3017-.1401ZM50.369907,66.7044c.003492.0211.004592.0425.003292.062-.011292.0767-.076292.1479-.163.1627-.0796.0134-.1481-.0209-.1636-.1122-.023-.1358.1148-.2049.302308-.2367l.021.1242Z"/>
    <path class="cls-1" d="M50.782099,66.1566l.1515-.0302.0932.4661c.0322.1607.0867.2639.1655.3184.0701.0467.1734.0671.287608.0444.098-.0195.181392-.0507.222392-.076l-.0559-.2677c-.0312.0136-.0541.0207-.1029.0304-.1049.0211-.1525-.035-.1799-.1725l-.082692-.4126.254092-.0507-.052-.261-.254092.0507-.061608-.3077-.3282.165.0425.2122-.1515.0302.052.261Z"/>
    <path class="cls-1" d="M51.915099,66.8422l.3524-.0794-.1293-.5752c-.0062-.0275-.0102-.0561-.0108-.0804-.0013-.1142.0712-.2035.2011-.2326.0395-.0088.0682-.0106.0972-.0123l-.0746-.3314c-.0266.001-.043192.0023-.0757.0096-.1114.025-.2327.1253-.253.3056l-.0092.0021-.0608-.2057-.3016.0679c.0289.0957.0555.2042.0932.3712l.1711.7606Z"/>
    <path class="cls-1" d="M52.650599,65.3386c.1177-.0291.1699-.1251.146-.2221-.0268-.0986-.1146-.1577-.227692-.1298-.113308.0278-.168408.1221-.143908.2212.023908.097.1148.1579.2256.1307Z"/>
    <rect class="cls-1" x="52.64507" y="65.459633" width=".361356" height="1.162433" transform="translate(-14.243427 14.526975) rotate(-13.817045)"/>
    <path class="cls-1" d="M53.568999,65.4647c.172-.0467.2272.0295.244.0915l.0038.0136c-.3968.1077-.6211.3164-.5421.6077.0486.1789.2289.3075.456.2458.133-.0361.2346-.1155.2838-.225l.0067-.0019.0513.107.3141-.0852c-.0304-.0583-.0631-.1603-.0918-.2659l-.1064-.3923c-.0721-.266-.2487-.4543-.6228-.3528-.2042.0553-.3423.1542-.4085.219l.1253.2075c.061-.0659.172-.138.2866-.169ZM53.920299,65.9063c.005608.0207.009.0419.0092.0615-.0034.0773-.0614.1544-.1462.1773-.078.0213-.149392-.0061-.1737-.0955-.0362-.1329.094308-.215.2778-.2648l.0329.1215Z"/>
    <path class="cls-6" d="M40.591907,43.9771c-.029708-.5242-.06-1.0466-.090908-1.5675l-.0002-.0041c-.0318-.5354-.0647-1.0679-.0984-1.5981-.0218-.3409-.0432-.6828-.066-1.021-.0253-.3734-.0281-.7326-.0587-1.0925-.0275-.3248-.1151-.6555-.1756-.9754-.0605-.3218-.1335-.6454-.1951-.956-.0626-.3165-.0754-.6434-.234-.917h-.1367c-.1109.4969-.1863,1.0857-.292392,1.6389-.101908.5296-.248308,1.0721-.312308,1.6-.0686.564-.0868,1.1547-.1336,1.7332l-.003.042c-.043092.5164-.0988,1.0288-.1423,1.5439l-.0006.0059c-.0041.0493-.0094.0984-.0134.1479-.037.4738-.0763.9496-.116,1.4258-.0439.5267-.0891,1.0539-.1352,1.5818-.045592.5222-.0917,1.0438-.1384,1.5656-.0718.7998-.1438,1.5985-.215,2.392-.104,1.1597-.2,2.3105-.351192,3.4339-.203508.0151-.304-.0454-.390308-.1365-.0851-.0899-.0903-.2424-.2145-.2929-.0355.0325-.0475.071-.0475.1104v.0006c.0002.0658.0337.1339.0475.1819.1193.4162.4942.7174.838808.9365.146.0928.33.1502.448892.2535.0783.0681.107108.1605.1756.2342.0724.0777.1607.1037.214508.1952v.8781c0,.2973.050792.6589-.019408.8386-.0319.0813-.103592.1051-.1561.1561-.2681.2549-.0911.8487.0977,1.0538-.3645.3961-.1809,1.2938.3509,1.3656.033.2503.1283.4552.3317.4684.258.0167.425-.2602.5073-.4684.4414-.0266.7088-.4076.6441-.8781-.0278-.2011-.1687-.3377-.2539-.4875.1684-.2306.2713-.6454.0978-.9952-.0547-.11-.1304-.1569-.195092-.2342-.016808-.4686-.039308-.8842-.039308-1.3461,0-.1473-.0351-.3396,0-.4489.024308-.075.1346-.1265.2148-.2145.0728-.0796.12-.1892.1757-.234.1012-.0821.2806-.1093.3901-.1757.2059-.1251.4538-.3651.643708-.5658.198492-.2101.391592-.45.495892-.6947l.0115-.0272v-.2342c-.0275-.005-.0223-.0429-.039-.0586-.1443.0086-.187392.1694-.2538.2539-.0807.1026-.1732.1761-.2535.2731-.1176.058-.2257.1255-.4097.1171-.121-1.8484-.226392-3.7433-.3305-5.6443-.0286-.5225-.0574-1.0449-.0861-1.5676l-.001-.0162c-.0287-.5233-.058-1.0457-.0873-1.5675l-.000492-.0082ZM38.970499,40.372c.063408-.652.0928-1.3113.1951-1.9317.1002-.6075.2376-1.1857.3707-1.756.0373,2.2196-.058392,4.505-.058392,6.8094,0,1.1194-.058508,2.2617-.058508,3.3948,0,.573.0216,1.1618,0,1.7366-.021492.5715.0327,1.1498-.0197,1.6972-.0282.2977-.1231.6121-.1952.8974-.0719.2859-.162.5641-.2729.8197.0017.0276.0032.0553-.0195.0586h-.9757c.3696-3.8477.6561-7.8204,1.0341-11.726ZM38.697599,52.4296c-.1266-.0178-.3718-.0015-.5658-.0195-.0925-.0086-.2421.0258-.214892-.0976.025-.0731.141192-.0375.195092-.0389.2016-.0057.4416-.0304.6245,0,.016408.0814-.0379.0921-.0389.156ZM37.877999,52.5662c.2253.0023.4371.0182.643908.039-.166808.1845-.361608.3408-.663508.3902-.0496-.1217.0304-.2817.0196-.4292ZM40.297199,56.6439c.0598.3144-.1356.5182-.312.6829.047.1966.2852.2331.3512.4292.1294.3854-.1616.8046-.605.7998-.0532.2427-.1603.5301-.5073.3902-.0157-.1144-.0283-.2315-.0585-.3314-.0539-.0957-.1996-.0999-.3123-.1366-.1512-.2484-.3182-.5331-.1557-.8197.0462-.0814.227-.1583.234-.2341.0094-.1008-.0852-.1067-.1561-.1949-.1537-.1914-.2344-.4853-.0585-.7805.1085-.041.2178-.0817.2731-.1755.0219-.0999-.0776-.0786-.078-.1561v-1.6196c.140808-.0021.2539-.0323.4096-.0195v1.3461c.3808.2689.3318-.3744.3123-.8191-.01-.2254-.0337-.4319-.0194-.5658.1238-.0063.2315-.0285.3119-.0783.0623.3735.0587.7487.0587,1.2099,0,.1988-.041292.4384,0,.6046.0383.1541.2751.2744.312.4684ZM39.497399,55.727c-.051492-.1301-.063-.5109-.058492-.761.001492-.091-.034408-.2055.039-.2537.084492.0358.021592.1426.019492.2145-.0066.2354.0049.5452,0,.8002ZM38.658299,54.088c.5508.0564,1.117608.0476,1.5609-.0976-.2127.4106-1.249292.4345-1.5609.0976ZM39.419399,53.9513c-.3446-.0149-.6812-.0503-.9756-.1366.1919-.0834.4054-.0549.5852-.1169.1787-.0614.2991-.2093.448908-.2732.302192.1596.637692.2858,1.131592.2539-.3182.1251-.7283.2933-1.1901.2728ZM41.487499,52.9171c.0723.0404-.0671.0944-.1172.1368-.2587.2197-.6065.5048-1.1511.4683-.3491-.0236-.5549-.1349-.7607-.3121-.2125.0979-.408.3094-.683.3706-.4942.1098-.9532-.1297-1.2098-.3901.7716.0195,1.1819-.4883,1.4633-.9952.2368-.4263.3004-.9546.4295-1.424.3355,1.0329.581408,2.3535,2.029,2.1457ZM40.960699,52.8199l-.0195-.0197c-.1026-.0155-.1892-.0763-.273292-.1171-.082108-.0396-.181508-.0633-.234108-.1366.0279-.0723.1502-.0371.234108-.0388.097-.0021.194692.0017.273292,0-.0136.1239.0331.188.0195.3122ZM40.394907,52.3708c-.099108-.0114-.188508-.0285-.214608-.0972.2275-.0199.532-.0662.7609-.0195.000708.1127-.386.1359-.546292.1167ZM40.902199,52.0199c.0136.0157.0303.0534,0,.0586-.3056.0128-.5679-.0178-.8585-.0195-.1882-.6187-.5233-1.1517-.5463-1.8928-.0342-1.1025.0584-2.2298.0584-3.3751,0-1.1111.0393-2.25.0393-3.3756,0-1.1319.0076-2.2764.0389-3.3947.0313-1.1319.0108-2.2454.077908-3.3365.074792.0344.045192.1355.058492.1954.0904.3992.2476.9312.3122,1.3656.0407.2712.0435.5706.0588.8585.2222,4.2408.527508,8.6855.7608,12.9161Z"/>
    <path class="cls-1" d="M39.458499,50.7714c-.1291.4694-.1927.9977-.4295,1.424-.2814.5069-.6917,1.0147-1.4633.9952.2566.2604.7156.4999,1.2098.3901.275-.0612.4705-.2727.683-.3706.2058.1772.4116.2885.7607.3121.5446.0365.8924-.2486,1.1511-.4683.0501-.0424.1895-.0964.1172-.1368-1.447592.2078-1.6935-1.1128-2.029-2.1457Z"/>
    <path class="cls-2" d="M37.858399,52.9954c.3019-.0494.4967-.2057.663508-.3902-.206808-.0208-.418608-.0367-.643908-.039.0108.1475-.0692.3075-.0196.4292Z"/>
    <path class="cls-1" d="M38.111999,52.2736c-.0539.0014-.170092-.0342-.195092.0389-.027208.1234.122392.089.214892.0976.194.018.4392.0017.5658.0195.001-.0639.055308-.0746.0389-.156-.1829-.0304-.4229-.0057-.6245,0Z"/>
    <path class="cls-2" d="M38.912099,52.098c.0227-.0033.0212-.031.0195-.0586.1109-.2556.201-.5338.2729-.8197.0721-.2853.167-.5997.1952-.8974.0524-.5474-.001792-1.1257.0197-1.6972.0216-.5748,0-1.1636,0-1.7366,0-1.1331.058508-2.2754.058508-3.3948,0-2.3044.095692-4.5898.058392-6.8094-.1331.5703-.2705,1.1485-.3707,1.756-.1023.6204-.131692,1.2797-.1951,1.9317-.378,3.9056-.6645,7.8783-1.0341,11.726h.9757Z"/>
    <path class="cls-1" d="M39.985199,55.5709c0-.4612.0036-.8364-.0587-1.2099-.0804.0498-.1881.072-.3119.0783-.0143.1339.0094.3404.0194.5658.0195.4447.0685,1.088-.3123.8191v-1.3461c-.1557-.0128-.268792.0174-.4096.0195v1.6196c.0004.0775.0999.0562.078.1561-.0553.0938-.1646.1345-.2731.1755-.1759.2952-.0952.5891.0585.7805.0709.0882.1655.0941.1561.1949-.007.0758-.1878.1527-.234.2341-.1625.2866.0045.5713.1557.8197.1127.0367.2584.0409.3123.1366.0302.0999.0428.217.0585.3314.347.1399.4541-.1475.5073-.3902.4434.0048.7344-.4144.605-.7998-.066-.1961-.3042-.2326-.3512-.4292.1764-.1647.3718-.3685.312-.6829-.0369-.194-.2737-.3143-.312-.4684-.041292-.1662,0-.4058,0-.6046Z"/>
    <path class="cls-2" d="M39.477907,53.4246c-.149808.0639-.270208.2118-.448908.2732-.1798.062-.3933.0335-.5852.1169.2944.0863.631.1217.9756.1366.4618.0205.8719-.1477,1.1901-.2728-.4939.0319-.8294-.0943-1.131592-.2539Z"/>
    <path class="cls-1" d="M38.658299,54.088c.311608.3369,1.3482.313,1.5609-.0976-.443292.1452-1.0101.154-1.5609.0976Z"/>
    <path class="cls-2" d="M39.477907,54.7123c-.073408.0482-.037508.1627-.039.2537-.004508.2501.007.6309.058492.761.0049-.255-.0066-.5648,0-.8002.0021-.0719.065-.1787-.019492-.2145Z"/>
    <path class="cls-2" d="M40.141399,39.1038c-.0153-.2879-.0181-.5873-.0588-.8585-.0646-.4344-.2218-.9664-.3122-1.3656-.0133-.0599.0163-.161-.058492-.1954-.067108,1.0911-.046608,2.2046-.077908,3.3365-.0313,1.1183-.0389,2.2628-.0389,3.3947,0,1.1256-.0393,2.2645-.0393,3.3756,0,1.1453-.0926,2.2726-.0584,3.3751.023.7411.3581,1.2741.5463,1.8928.2906.0017.5529.0323.8585.0195.0303-.0052.0136-.0429,0-.0586-.233292-4.2306-.5386-8.6753-.7608-12.9161Z"/>
    <path class="cls-1" d="M40.180299,52.2736c.0261.0687.1155.0858.214608.0972.160292.0192.547-.004.546292-.1167-.2289-.0467-.5334-.0004-.7609.0195Z"/>
    <path class="cls-2" d="M40.667907,52.5077c-.083908.0017-.206208-.0335-.234108.0388.0526.0733.152.097.234108.1366.084092.0408.170692.1016.273292.1171l.0195.0197c.0136-.1242-.0331-.1883-.0195-.3122-.0786.0017-.176292-.0021-.273292,0Z"/>
    <path class="cls-2" d="M44.047299,36.8804c-.2369.2369-.5579.4203-.9759.4531.0463-.4255.2256-.7384.4581-.9709.0325-.0325.069408-.0616.0946-.0996-.1867-.1054-.4515-.1925-.7369-.1792-.2546.0119-.479.0805-.6472.1792.0253.0381.0616.0667.0946.0996.2367.2368.420308.5579.4531.9759-.4255-.0463-.7384-.2256-.9709-.4581-.0326-.0325-.0616-.0694-.0996-.0945-.0976.1776-.1842.4213-.1842.692,0,.2706.0866.5143.1842.6921.0381-.0254.066708-.0617.0996-.0947.2368-.2367.5578-.4203.9758-.4531-.0463.4256-.2256.7384-.458.9709-.0326.0325-.0699.0611-.0946.0996.1777.0976.4214.1842.692.1842.2707,0,.5144-.0866.6921-.1842-.0253-.0381-.0617-.0667-.0946-.0996-.2368-.2368-.4204-.5578-.4531-.9758.4254.0463.7384.2256.9709.458.0325.0326.061608.0694.099608.0947.097592-.1778.184092-.4215.184092-.6921,0-.2707-.0865-.5144-.184092-.692-.038108.0252-.066708.0616-.099608.0945Z"/>
    <path class="cls-2" d="M37.205799,36.8968c-.236892.2368-.557892.4202-.975892.4531.046293-.4255.225593-.7384.458093-.9709.0325-.0325.0694-.0616.0946-.0996-.186692-.1054-.4515-.1925-.7369-.1792-.2546.0119-.479.0805-.6472.1792.0253.0381.0616.0667.0945.0996.2368.2368.4204.5578.4531.9758-.4254-.0463-.7383-.2256-.9708-.458-.0326-.0326-.0616-.0694-.0996-.0946-.0976.1777-.1842.4214-.1842.692,0,.2707.0866.5144.1842.6921.0381-.0253.0667-.0617.0996-.0946.2368-.2368.5578-.4204.9758-.4531-.0463.4255-.2256.7384-.4581.9709-.0325.0325-.0698.061-.0945.0996.1777.0976.421407.1841.692.1841.2707,0,.514407-.0865.6921-.1841-.0253-.0381-.061692-.0667-.0946-.0996-.2368-.2368-.4204-.5579-.453093-.9759.425393.0463.738392.2256.970892.4581.0325.0325.0616.0694.0996.0946.097508-.1777.1841-.4214.1841-.6921,0-.2706-.086592-.5143-.1841-.692-.0381.0253-.0667.0616-.0996.0946Z"/>
    <path class="cls-1" d="M44.414099,28.768v.7606h.7494c-.239592,1.0311-.9001,2.5806-2.6754,4.2449,0,0,3.175808-.3452,6.3852,0-1.7375-1.6608-2.3921-3.2122-2.6336-4.2449h.7763v-.7637c1.031.2371,2.585908.8957,4.2567,2.6781v-6.3853c-1.6672,1.7445-3.2241,2.3972-4.2567,2.6363v-.7672h-.7833c.2339-1.031.8899-2.5934,2.6817-4.2731h-6.3853c1.7536,1.6762,2.4039,3.2406,2.6399,4.2731h-.7549v.7721c-1.0311-.2363-2.5879-.8942-4.261-2.679v6.3853c1.6696-1.7468,3.2284-2.3989,4.261-2.6372ZM44.627799,29.3148v-.5919c.2678-.0512.4917-.074.6626-.0826-.007492.1738-.0298.4017-.082.6745h-.5806ZM46.802199,29.3148h-.608c-.0531-.2734-.0767-.5017-.0856-.6757.1748.0062.4101.0277.6936.0811v.5946ZM46.802199,27.1405v.5986c-.2825.0543-.517292.0771-.692.0849.006-.1721.0265-.4041.0784-.6835h.6136ZM44.627799,27.1405h.5859c.0526.2787.0747.5102.0821.6822-.1715-.007-.3973-.0284-.668-.0793v-.6029Z"/>
  </g>
</svg>