<svg xmlns="http://www.w3.org/2000/svg" xmlns:xlink="http://www.w3.org/1999/xlink" id="Layer_1" x="0px" y="0px" viewBox="0 0 167.7 56" style="enable-background:new 0 0 167.7 56;" xml:space="preserve">
<style type="text/css">
	.st0{fill:#505257;}
	.st1{fill:#1C4525;}
</style>
<g id="logo" transform="translate(-255.277 -258.766)">
	<g id="Group_2" transform="translate(269.673 273.926)">
		<path id="Path_2" class="st0" d="M0,7.6L0,7.6C0.2,3.2,3.9-0.2,8.3,0c4.1,0.2,7.4,3.4,7.6,7.5v0c-0.2,4.4-3.9,7.8-8.3,7.6    C3.5,15,0.2,11.7,0,7.6z M11,7.6L11,7.6C11.1,5.9,9.7,4.4,8,4.3c0,0-0.1,0-0.1,0c-1.7,0-3,1.4-3,3.1c0,0,0,0.1,0,0.1v0    c-0.1,1.7,1.2,3.2,2.9,3.3c0,0,0.1,0,0.1,0c1.7,0,3-1.4,3-3.1C11,7.7,11,7.7,11,7.6z"/>
		<path id="Path_3" class="st0" d="M24.3,0.2h4.8l6.1,14.6H30l-0.8-2h-5.1l-0.7,2h-5.2L24.3,0.2z M28,9.4l-1.3-3.5l-1.3,3.5H28z"/>
		<path id="Path_4" class="st0" d="M39,0.3h4.9v5.4L48,0.3h5.6l-5.1,6.3l5.2,8.2h-5.8l-2.8-4.6l-1.2,1.5v3.1H39L39,0.3z"/>
		<path id="Path_5" class="st1" d="M59.2,0.3h6.6c1.6-0.1,3.1,0.4,4.2,1.5c0.8,0.9,1.3,2.1,1.2,3.3v0c0.1,2-1.2,3.9-3.1,4.5l3.5,5.2    H68l-3.1-4.7h-2.5v4.7h-3.2L59.2,0.3z M65.6,7.4c1.6,0,2.5-0.8,2.5-2.1v0c0-1.4-1-2.1-2.5-2.1h-3.2v4.2L65.6,7.4z"/>
		<path id="Path_6" class="st1" d="M78.3,0.3h3.2v14.5h-3.2V0.3z"/>
		<path id="Path_7" class="st1" d="M89.3,0.3H95c4.6,0,7.7,3.1,7.7,7.2v0c0,4.1-3.2,7.3-7.7,7.3h-5.7V0.3z M95,12    c2.3,0.1,4.2-1.6,4.4-3.9c0-0.1,0-0.3,0-0.5v0c0.1-2.3-1.7-4.3-4-4.4c-0.1,0-0.3,0-0.4,0h-2.5V12H95z"/>
		<path id="Path_8" class="st1" d="M107,7.6L107,7.6c0-4.2,3.3-7.5,7.4-7.6c0.1,0,0.1,0,0.2,0c2.1-0.1,4.1,0.6,5.7,2l-2,2.4    c-1-1-2.4-1.5-3.8-1.5c-2.4,0.1-4.3,2.1-4.2,4.5v0c-0.1,2.4,1.7,4.5,4.1,4.6c0.1,0,0.2,0,0.3,0c1.1,0,2.1-0.3,3-0.9V9.2h-3.2V6.5    h6.3v6.3c-1.7,1.5-3.9,2.3-6.2,2.3c-4,0.2-7.4-2.9-7.6-6.9C107,8,107,7.8,107,7.6z"/>
		<path id="Path_9" class="st1" d="M127,0.3h11v2.8h-7.8v2.9h6.9v2.8h-6.9V12h7.9v2.8H127V0.3z"/>
	</g>
	<g id="Group_3" transform="translate(297.802 297.467)">
		<path id="Path_10" class="st1" d="M0,2.9L0,2.9C0,1.3,1.3,0,2.8,0c0,0,0.1,0,0.1,0c0.9,0,1.8,0.4,2.4,1.2L4.2,2.1    C3.9,1.7,3.4,1.4,2.9,1.4c-0.8,0-1.4,0.7-1.3,1.4c0,0,0,0,0,0v0C1.5,3.7,2.1,4.4,2.9,4.4c0,0,0,0,0.1,0c0.5,0,1-0.3,1.3-0.7    l1.2,0.8C4.5,5.9,2.6,6.2,1.3,5.3C0.5,4.8,0,3.9,0,2.9L0,2.9z"/>
		<path id="Path_11" class="st1" d="M8.9,2.9L8.9,2.9C9,1.2,10.4-0.1,12,0C13.6,0,14.9,1.3,15,2.9v0c-0.1,1.7-1.5,3-3.1,2.9    C10.2,5.8,9,4.5,8.9,2.9z M13.4,2.9L13.4,2.9c0-0.8-0.6-1.5-1.4-1.5c0,0,0,0,0,0c-0.8,0-1.4,0.6-1.4,1.4c0,0,0,0,0,0.1v0    c0,0.8,0.6,1.5,1.4,1.5c0,0,0,0,0,0C12.7,4.4,13.4,3.8,13.4,2.9C13.4,3,13.4,3,13.4,2.9L13.4,2.9z"/>
		<path id="Path_12" class="st1" d="M19,0.1h1.5l2.3,3v-3h1.5v5.6h-1.4l-2.4-3.1v3.1H19V0.1z"/>
		<path id="Path_13" class="st1" d="M28.1,4.9l0.9-1c0.5,0.4,1.2,0.7,1.8,0.7c0.4,0,0.6-0.1,0.6-0.4v0c0-0.2-0.2-0.4-0.9-0.5    c-1.2-0.3-2.1-0.6-2.1-1.8v0c0-1,0.8-1.8,2.2-1.8c0.8,0,1.7,0.2,2.3,0.7L32,1.9c-0.5-0.3-1-0.5-1.6-0.6c-0.4,0-0.6,0.2-0.6,0.4v0    c0,0.3,0.2,0.4,1,0.5C32.2,2.5,33,2.9,33,4v0c0,1.1-0.9,1.8-2.3,1.8C29.7,5.8,28.8,5.5,28.1,4.9z"/>
		<path id="Path_14" class="st1" d="M36.8,3.3V0.1h1.6v3.1c0,0.8,0.4,1.2,1,1.2s1-0.4,1-1.2V0.1h1.6v3.1c0.2,1.3-0.8,2.5-2.1,2.6    c-0.2,0-0.4,0-0.6,0c-1.3,0.2-2.4-0.7-2.6-2C36.8,3.6,36.8,3.5,36.8,3.3z"/>
		<path id="Path_15" class="st1" d="M46.2,0.1h1.6v4.3h2.7v1.4h-4.3V0.1z"/>
		<path id="Path_16" class="st1" d="M54.9,1.5h-1.7V0.1h4.9v1.4h-1.7v4.2h-1.6L54.9,1.5z"/>
		<path id="Path_17" class="st1" d="M62.1,0.1h1.6v5.6h-1.6V0.1z"/>
		<path id="Path_18" class="st1" d="M67.9,0.1h1.5l2.3,3v-3h1.5v5.6h-1.4l-2.4-3.1v3.1h-1.5L67.9,0.1z"/>
		<path id="Path_19" class="st1" d="M77.2,2.9L77.2,2.9c0-1.6,1.3-2.9,2.9-2.9c0,0,0.1,0,0.1,0c0.8,0,1.7,0.3,2.3,0.8l-0.9,1.1    c-0.4-0.3-0.9-0.5-1.4-0.5c-0.8,0-1.5,0.7-1.4,1.5c0,0,0,0,0,0v0c0,0.8,0.6,1.5,1.4,1.6c0,0,0.1,0,0.1,0c0.3,0,0.6-0.1,0.9-0.2    V3.6h-1.1V2.4h2.6V5c-0.7,0.6-1.5,0.9-2.4,0.9c-1.6,0.1-3-1.1-3.1-2.7C77.2,3.1,77.2,3,77.2,2.9z"/>
	</g>
	<g id="Group_4" transform="translate(255.277 258.766)">
		<path id="Path_20" class="st1" d="M167.7,56H0V0h167.7V56z M1.8,54.2H166V1.8H1.8V54.2z"/>
	</g>
	<g id="Group_5" transform="translate(270.145 292.969)">
		<rect id="Rectangle_1" x="0" y="0" class="st1" width="138" height="0.6"/>
	</g>
</g>
</svg>